G75*
%MOIN*%
%OFA0B0*%
%FSLAX25Y25*%
%IPPOS*%
%LPD*%
%AMOC8*
5,1,8,0,0,1.08239X$1,22.5*
%
%ADD10C,0.00000*%
%ADD11R,0.00100X0.00100*%
%ADD12R,0.00700X0.00100*%
%ADD13R,0.01500X0.00100*%
%ADD14R,0.01700X0.00100*%
%ADD15R,0.01800X0.00100*%
%ADD16R,0.02000X0.00100*%
%ADD17R,0.01900X0.00100*%
%ADD18R,0.00300X0.00100*%
%ADD19R,0.00600X0.00100*%
%ADD20R,0.01600X0.00100*%
%ADD21R,0.00900X0.00100*%
%ADD22R,0.01200X0.00100*%
%ADD23R,0.00200X0.00100*%
%ADD24R,0.01400X0.00100*%
%ADD25R,0.01100X0.00100*%
%ADD26R,0.02100X0.00100*%
%ADD27R,0.02300X0.00100*%
%ADD28R,0.02400X0.00100*%
%ADD29R,0.00400X0.00100*%
%ADD30R,0.02200X0.00100*%
%ADD31R,0.00500X0.00100*%
%ADD32R,0.01300X0.00100*%
%ADD33R,0.00800X0.00100*%
%ADD34R,0.02500X0.00100*%
%ADD35R,0.02700X0.00100*%
%ADD36R,0.02900X0.00100*%
%ADD37R,0.03100X0.00100*%
%ADD38R,0.03700X0.00100*%
%ADD39R,0.03800X0.00100*%
%ADD40R,0.03900X0.00100*%
%ADD41R,0.04000X0.00100*%
%ADD42R,0.05100X0.00100*%
%ADD43R,0.04800X0.00100*%
%ADD44R,0.04700X0.00100*%
%ADD45R,0.03000X0.00100*%
%ADD46R,0.06200X0.00100*%
%ADD47R,0.06000X0.00100*%
%ADD48R,0.07400X0.00100*%
%ADD49R,0.02800X0.00100*%
%ADD50R,0.07600X0.00100*%
%ADD51R,0.07700X0.00100*%
%ADD52R,0.08200X0.00100*%
%ADD53R,0.08600X0.00100*%
%ADD54R,0.05200X0.00100*%
%ADD55R,0.02600X0.00100*%
%ADD56R,0.01000X0.00100*%
%ADD57R,0.04100X0.00100*%
%ADD58R,0.03300X0.00100*%
%ADD59R,0.03600X0.00100*%
%ADD60R,0.04200X0.00100*%
%ADD61R,0.04400X0.00100*%
%ADD62R,0.04600X0.00100*%
%ADD63R,0.03200X0.00100*%
%ADD64R,0.05000X0.00100*%
%ADD65R,0.03500X0.00100*%
%ADD66R,0.09400X0.00100*%
%ADD67R,0.09300X0.00100*%
%ADD68R,0.09200X0.00100*%
%ADD69R,0.09100X0.00100*%
%ADD70R,0.09000X0.00100*%
%ADD71R,0.08900X0.00100*%
%ADD72R,0.08800X0.00100*%
%ADD73R,0.08700X0.00100*%
%ADD74R,0.08500X0.00100*%
%ADD75R,0.08400X0.00100*%
%ADD76R,0.08300X0.00100*%
%ADD77R,0.08100X0.00100*%
%ADD78R,0.06700X0.00100*%
%ADD79R,0.06400X0.00100*%
%ADD80R,0.05900X0.00100*%
%ADD81R,0.05700X0.00100*%
%ADD82R,0.05400X0.00100*%
%ADD83R,0.04300X0.00100*%
%ADD84R,0.04900X0.00100*%
%ADD85R,0.05600X0.00100*%
%ADD86R,0.06100X0.00100*%
%ADD87R,0.04500X0.00100*%
%ADD88R,0.03400X0.00100*%
%ADD89R,0.05800X0.00100*%
%ADD90R,0.05300X0.00100*%
%ADD91R,0.11600X0.00100*%
%ADD92R,0.11100X0.00100*%
%ADD93R,0.11000X0.00100*%
%ADD94C,0.00300*%
%ADD95C,0.00200*%
%ADD96C,0.00600*%
%ADD97C,0.00800*%
%ADD98C,0.00060*%
%ADD99R,0.80000X0.10000*%
%ADD100C,0.00500*%
%ADD101C,0.00400*%
%ADD102C,0.00236*%
D10*
X0053934Y0055808D02*
X0054532Y0055829D01*
X0055131Y0055835D01*
X0055730Y0055827D01*
X0056329Y0055803D01*
X0056927Y0055766D01*
X0057524Y0055713D01*
X0058119Y0055646D01*
X0058712Y0055565D01*
X0059304Y0055469D01*
X0059893Y0055358D01*
X0060478Y0055234D01*
X0061061Y0055094D01*
X0061640Y0054941D01*
X0062215Y0054773D01*
X0062786Y0054592D01*
X0063353Y0054396D01*
X0063914Y0054187D01*
X0064470Y0053964D01*
X0065020Y0053728D01*
X0065565Y0053478D01*
X0066103Y0053215D01*
X0066634Y0052938D01*
X0067159Y0052649D01*
X0067676Y0052347D01*
X0068186Y0052033D01*
X0068688Y0051706D01*
X0069182Y0051367D01*
X0069667Y0051016D01*
X0070144Y0050653D01*
X0070612Y0050278D01*
X0071070Y0049892D01*
X0071519Y0049496D01*
X0071958Y0049088D01*
X0072386Y0048669D01*
X0072805Y0048241D01*
X0073213Y0047802D01*
X0073609Y0047353D01*
X0073995Y0046895D01*
X0074370Y0046427D01*
X0074733Y0045950D01*
X0075084Y0045465D01*
X0075423Y0044971D01*
X0075750Y0044469D01*
X0076064Y0043959D01*
X0076366Y0043442D01*
X0076655Y0042917D01*
X0076932Y0042386D01*
X0077195Y0041848D01*
X0077445Y0041303D01*
X0077681Y0040753D01*
X0077904Y0040197D01*
X0078113Y0039636D01*
X0078309Y0039069D01*
X0078490Y0038498D01*
X0078658Y0037923D01*
X0078811Y0037344D01*
X0078951Y0036761D01*
X0079075Y0036176D01*
X0079186Y0035587D01*
X0079282Y0034995D01*
X0079363Y0034402D01*
X0079430Y0033807D01*
X0079483Y0033210D01*
X0079520Y0032612D01*
X0079544Y0032013D01*
X0079552Y0031414D01*
X0079546Y0030815D01*
X0079525Y0030217D01*
X0079524Y0030217D02*
X0323619Y0030217D01*
X0323618Y0030217D02*
X0323597Y0030815D01*
X0323591Y0031414D01*
X0323599Y0032013D01*
X0323623Y0032612D01*
X0323660Y0033210D01*
X0323713Y0033807D01*
X0323780Y0034402D01*
X0323861Y0034995D01*
X0323957Y0035587D01*
X0324068Y0036176D01*
X0324192Y0036761D01*
X0324332Y0037344D01*
X0324485Y0037923D01*
X0324653Y0038498D01*
X0324834Y0039069D01*
X0325030Y0039636D01*
X0325239Y0040197D01*
X0325462Y0040753D01*
X0325698Y0041303D01*
X0325948Y0041848D01*
X0326211Y0042386D01*
X0326488Y0042917D01*
X0326777Y0043442D01*
X0327079Y0043959D01*
X0327393Y0044469D01*
X0327720Y0044971D01*
X0328059Y0045465D01*
X0328410Y0045950D01*
X0328773Y0046427D01*
X0329148Y0046895D01*
X0329534Y0047353D01*
X0329930Y0047802D01*
X0330338Y0048241D01*
X0330757Y0048669D01*
X0331185Y0049088D01*
X0331624Y0049496D01*
X0332073Y0049892D01*
X0332531Y0050278D01*
X0332999Y0050653D01*
X0333476Y0051016D01*
X0333961Y0051367D01*
X0334455Y0051706D01*
X0334957Y0052033D01*
X0335467Y0052347D01*
X0335984Y0052649D01*
X0336509Y0052938D01*
X0337040Y0053215D01*
X0337578Y0053478D01*
X0338123Y0053728D01*
X0338673Y0053964D01*
X0339229Y0054187D01*
X0339790Y0054396D01*
X0340357Y0054592D01*
X0340928Y0054773D01*
X0341503Y0054941D01*
X0342082Y0055094D01*
X0342665Y0055234D01*
X0343250Y0055358D01*
X0343839Y0055469D01*
X0344431Y0055565D01*
X0345024Y0055646D01*
X0345619Y0055713D01*
X0346216Y0055766D01*
X0346814Y0055803D01*
X0347413Y0055827D01*
X0348012Y0055835D01*
X0348611Y0055829D01*
X0349209Y0055808D01*
X0349209Y0055807D02*
X0349209Y0201476D01*
X0348611Y0201455D01*
X0348012Y0201449D01*
X0347413Y0201457D01*
X0346814Y0201481D01*
X0346216Y0201518D01*
X0345619Y0201571D01*
X0345024Y0201638D01*
X0344431Y0201719D01*
X0343839Y0201815D01*
X0343250Y0201926D01*
X0342665Y0202050D01*
X0342082Y0202190D01*
X0341503Y0202343D01*
X0340928Y0202511D01*
X0340357Y0202692D01*
X0339790Y0202888D01*
X0339229Y0203097D01*
X0338673Y0203320D01*
X0338123Y0203556D01*
X0337578Y0203806D01*
X0337040Y0204069D01*
X0336509Y0204346D01*
X0335984Y0204635D01*
X0335467Y0204937D01*
X0334957Y0205251D01*
X0334455Y0205578D01*
X0333961Y0205917D01*
X0333476Y0206268D01*
X0332999Y0206631D01*
X0332531Y0207006D01*
X0332073Y0207392D01*
X0331624Y0207788D01*
X0331185Y0208196D01*
X0330757Y0208615D01*
X0330338Y0209043D01*
X0329930Y0209482D01*
X0329534Y0209931D01*
X0329148Y0210389D01*
X0328773Y0210857D01*
X0328410Y0211334D01*
X0328059Y0211819D01*
X0327720Y0212313D01*
X0327393Y0212815D01*
X0327079Y0213325D01*
X0326777Y0213842D01*
X0326488Y0214367D01*
X0326211Y0214898D01*
X0325948Y0215436D01*
X0325698Y0215981D01*
X0325462Y0216531D01*
X0325239Y0217087D01*
X0325030Y0217648D01*
X0324834Y0218215D01*
X0324653Y0218786D01*
X0324485Y0219361D01*
X0324332Y0219940D01*
X0324192Y0220523D01*
X0324068Y0221108D01*
X0323957Y0221697D01*
X0323861Y0222289D01*
X0323780Y0222882D01*
X0323713Y0223477D01*
X0323660Y0224074D01*
X0323623Y0224672D01*
X0323599Y0225271D01*
X0323591Y0225870D01*
X0323597Y0226469D01*
X0323618Y0227067D01*
X0323619Y0227067D02*
X0079524Y0227067D01*
X0079525Y0227067D02*
X0079546Y0226469D01*
X0079552Y0225870D01*
X0079544Y0225271D01*
X0079520Y0224672D01*
X0079483Y0224074D01*
X0079430Y0223477D01*
X0079363Y0222882D01*
X0079282Y0222289D01*
X0079186Y0221697D01*
X0079075Y0221108D01*
X0078951Y0220523D01*
X0078811Y0219940D01*
X0078658Y0219361D01*
X0078490Y0218786D01*
X0078309Y0218215D01*
X0078113Y0217648D01*
X0077904Y0217087D01*
X0077681Y0216531D01*
X0077445Y0215981D01*
X0077195Y0215436D01*
X0076932Y0214898D01*
X0076655Y0214367D01*
X0076366Y0213842D01*
X0076064Y0213325D01*
X0075750Y0212815D01*
X0075423Y0212313D01*
X0075084Y0211819D01*
X0074733Y0211334D01*
X0074370Y0210857D01*
X0073995Y0210389D01*
X0073609Y0209931D01*
X0073213Y0209482D01*
X0072805Y0209043D01*
X0072386Y0208615D01*
X0071958Y0208196D01*
X0071519Y0207788D01*
X0071070Y0207392D01*
X0070612Y0207006D01*
X0070144Y0206631D01*
X0069667Y0206268D01*
X0069182Y0205917D01*
X0068688Y0205578D01*
X0068186Y0205251D01*
X0067676Y0204937D01*
X0067159Y0204635D01*
X0066634Y0204346D01*
X0066103Y0204069D01*
X0065565Y0203806D01*
X0065020Y0203556D01*
X0064470Y0203320D01*
X0063914Y0203097D01*
X0063353Y0202888D01*
X0062786Y0202692D01*
X0062215Y0202511D01*
X0061640Y0202343D01*
X0061061Y0202190D01*
X0060478Y0202050D01*
X0059893Y0201926D01*
X0059304Y0201815D01*
X0058712Y0201719D01*
X0058119Y0201638D01*
X0057524Y0201571D01*
X0056927Y0201518D01*
X0056329Y0201481D01*
X0055730Y0201457D01*
X0055131Y0201449D01*
X0054532Y0201455D01*
X0053934Y0201476D01*
X0053934Y0055807D01*
X0096847Y0049902D02*
X0096849Y0050060D01*
X0096855Y0050218D01*
X0096865Y0050376D01*
X0096879Y0050534D01*
X0096897Y0050691D01*
X0096918Y0050848D01*
X0096944Y0051004D01*
X0096974Y0051160D01*
X0097007Y0051315D01*
X0097045Y0051468D01*
X0097086Y0051621D01*
X0097131Y0051773D01*
X0097180Y0051924D01*
X0097233Y0052073D01*
X0097289Y0052221D01*
X0097349Y0052367D01*
X0097413Y0052512D01*
X0097481Y0052655D01*
X0097552Y0052797D01*
X0097626Y0052937D01*
X0097704Y0053074D01*
X0097786Y0053210D01*
X0097870Y0053344D01*
X0097959Y0053475D01*
X0098050Y0053604D01*
X0098145Y0053731D01*
X0098242Y0053856D01*
X0098343Y0053978D01*
X0098447Y0054097D01*
X0098554Y0054214D01*
X0098664Y0054328D01*
X0098777Y0054439D01*
X0098892Y0054548D01*
X0099010Y0054653D01*
X0099131Y0054755D01*
X0099254Y0054855D01*
X0099380Y0054951D01*
X0099508Y0055044D01*
X0099638Y0055134D01*
X0099771Y0055220D01*
X0099906Y0055304D01*
X0100042Y0055383D01*
X0100181Y0055460D01*
X0100322Y0055532D01*
X0100464Y0055602D01*
X0100608Y0055667D01*
X0100754Y0055729D01*
X0100901Y0055787D01*
X0101050Y0055842D01*
X0101200Y0055893D01*
X0101351Y0055940D01*
X0101503Y0055983D01*
X0101656Y0056022D01*
X0101811Y0056058D01*
X0101966Y0056089D01*
X0102122Y0056117D01*
X0102278Y0056141D01*
X0102435Y0056161D01*
X0102593Y0056177D01*
X0102750Y0056189D01*
X0102909Y0056197D01*
X0103067Y0056201D01*
X0103225Y0056201D01*
X0103383Y0056197D01*
X0103542Y0056189D01*
X0103699Y0056177D01*
X0103857Y0056161D01*
X0104014Y0056141D01*
X0104170Y0056117D01*
X0104326Y0056089D01*
X0104481Y0056058D01*
X0104636Y0056022D01*
X0104789Y0055983D01*
X0104941Y0055940D01*
X0105092Y0055893D01*
X0105242Y0055842D01*
X0105391Y0055787D01*
X0105538Y0055729D01*
X0105684Y0055667D01*
X0105828Y0055602D01*
X0105970Y0055532D01*
X0106111Y0055460D01*
X0106250Y0055383D01*
X0106386Y0055304D01*
X0106521Y0055220D01*
X0106654Y0055134D01*
X0106784Y0055044D01*
X0106912Y0054951D01*
X0107038Y0054855D01*
X0107161Y0054755D01*
X0107282Y0054653D01*
X0107400Y0054548D01*
X0107515Y0054439D01*
X0107628Y0054328D01*
X0107738Y0054214D01*
X0107845Y0054097D01*
X0107949Y0053978D01*
X0108050Y0053856D01*
X0108147Y0053731D01*
X0108242Y0053604D01*
X0108333Y0053475D01*
X0108422Y0053344D01*
X0108506Y0053210D01*
X0108588Y0053074D01*
X0108666Y0052937D01*
X0108740Y0052797D01*
X0108811Y0052655D01*
X0108879Y0052512D01*
X0108943Y0052367D01*
X0109003Y0052221D01*
X0109059Y0052073D01*
X0109112Y0051924D01*
X0109161Y0051773D01*
X0109206Y0051621D01*
X0109247Y0051468D01*
X0109285Y0051315D01*
X0109318Y0051160D01*
X0109348Y0051004D01*
X0109374Y0050848D01*
X0109395Y0050691D01*
X0109413Y0050534D01*
X0109427Y0050376D01*
X0109437Y0050218D01*
X0109443Y0050060D01*
X0109445Y0049902D01*
X0109443Y0049744D01*
X0109437Y0049586D01*
X0109427Y0049428D01*
X0109413Y0049270D01*
X0109395Y0049113D01*
X0109374Y0048956D01*
X0109348Y0048800D01*
X0109318Y0048644D01*
X0109285Y0048489D01*
X0109247Y0048336D01*
X0109206Y0048183D01*
X0109161Y0048031D01*
X0109112Y0047880D01*
X0109059Y0047731D01*
X0109003Y0047583D01*
X0108943Y0047437D01*
X0108879Y0047292D01*
X0108811Y0047149D01*
X0108740Y0047007D01*
X0108666Y0046867D01*
X0108588Y0046730D01*
X0108506Y0046594D01*
X0108422Y0046460D01*
X0108333Y0046329D01*
X0108242Y0046200D01*
X0108147Y0046073D01*
X0108050Y0045948D01*
X0107949Y0045826D01*
X0107845Y0045707D01*
X0107738Y0045590D01*
X0107628Y0045476D01*
X0107515Y0045365D01*
X0107400Y0045256D01*
X0107282Y0045151D01*
X0107161Y0045049D01*
X0107038Y0044949D01*
X0106912Y0044853D01*
X0106784Y0044760D01*
X0106654Y0044670D01*
X0106521Y0044584D01*
X0106386Y0044500D01*
X0106250Y0044421D01*
X0106111Y0044344D01*
X0105970Y0044272D01*
X0105828Y0044202D01*
X0105684Y0044137D01*
X0105538Y0044075D01*
X0105391Y0044017D01*
X0105242Y0043962D01*
X0105092Y0043911D01*
X0104941Y0043864D01*
X0104789Y0043821D01*
X0104636Y0043782D01*
X0104481Y0043746D01*
X0104326Y0043715D01*
X0104170Y0043687D01*
X0104014Y0043663D01*
X0103857Y0043643D01*
X0103699Y0043627D01*
X0103542Y0043615D01*
X0103383Y0043607D01*
X0103225Y0043603D01*
X0103067Y0043603D01*
X0102909Y0043607D01*
X0102750Y0043615D01*
X0102593Y0043627D01*
X0102435Y0043643D01*
X0102278Y0043663D01*
X0102122Y0043687D01*
X0101966Y0043715D01*
X0101811Y0043746D01*
X0101656Y0043782D01*
X0101503Y0043821D01*
X0101351Y0043864D01*
X0101200Y0043911D01*
X0101050Y0043962D01*
X0100901Y0044017D01*
X0100754Y0044075D01*
X0100608Y0044137D01*
X0100464Y0044202D01*
X0100322Y0044272D01*
X0100181Y0044344D01*
X0100042Y0044421D01*
X0099906Y0044500D01*
X0099771Y0044584D01*
X0099638Y0044670D01*
X0099508Y0044760D01*
X0099380Y0044853D01*
X0099254Y0044949D01*
X0099131Y0045049D01*
X0099010Y0045151D01*
X0098892Y0045256D01*
X0098777Y0045365D01*
X0098664Y0045476D01*
X0098554Y0045590D01*
X0098447Y0045707D01*
X0098343Y0045826D01*
X0098242Y0045948D01*
X0098145Y0046073D01*
X0098050Y0046200D01*
X0097959Y0046329D01*
X0097870Y0046460D01*
X0097786Y0046594D01*
X0097704Y0046730D01*
X0097626Y0046867D01*
X0097552Y0047007D01*
X0097481Y0047149D01*
X0097413Y0047292D01*
X0097349Y0047437D01*
X0097289Y0047583D01*
X0097233Y0047731D01*
X0097180Y0047880D01*
X0097131Y0048031D01*
X0097086Y0048183D01*
X0097045Y0048336D01*
X0097007Y0048489D01*
X0096974Y0048644D01*
X0096944Y0048800D01*
X0096918Y0048956D01*
X0096897Y0049113D01*
X0096879Y0049270D01*
X0096865Y0049428D01*
X0096855Y0049586D01*
X0096849Y0049744D01*
X0096847Y0049902D01*
X0293698Y0049902D02*
X0293700Y0050060D01*
X0293706Y0050218D01*
X0293716Y0050376D01*
X0293730Y0050534D01*
X0293748Y0050691D01*
X0293769Y0050848D01*
X0293795Y0051004D01*
X0293825Y0051160D01*
X0293858Y0051315D01*
X0293896Y0051468D01*
X0293937Y0051621D01*
X0293982Y0051773D01*
X0294031Y0051924D01*
X0294084Y0052073D01*
X0294140Y0052221D01*
X0294200Y0052367D01*
X0294264Y0052512D01*
X0294332Y0052655D01*
X0294403Y0052797D01*
X0294477Y0052937D01*
X0294555Y0053074D01*
X0294637Y0053210D01*
X0294721Y0053344D01*
X0294810Y0053475D01*
X0294901Y0053604D01*
X0294996Y0053731D01*
X0295093Y0053856D01*
X0295194Y0053978D01*
X0295298Y0054097D01*
X0295405Y0054214D01*
X0295515Y0054328D01*
X0295628Y0054439D01*
X0295743Y0054548D01*
X0295861Y0054653D01*
X0295982Y0054755D01*
X0296105Y0054855D01*
X0296231Y0054951D01*
X0296359Y0055044D01*
X0296489Y0055134D01*
X0296622Y0055220D01*
X0296757Y0055304D01*
X0296893Y0055383D01*
X0297032Y0055460D01*
X0297173Y0055532D01*
X0297315Y0055602D01*
X0297459Y0055667D01*
X0297605Y0055729D01*
X0297752Y0055787D01*
X0297901Y0055842D01*
X0298051Y0055893D01*
X0298202Y0055940D01*
X0298354Y0055983D01*
X0298507Y0056022D01*
X0298662Y0056058D01*
X0298817Y0056089D01*
X0298973Y0056117D01*
X0299129Y0056141D01*
X0299286Y0056161D01*
X0299444Y0056177D01*
X0299601Y0056189D01*
X0299760Y0056197D01*
X0299918Y0056201D01*
X0300076Y0056201D01*
X0300234Y0056197D01*
X0300393Y0056189D01*
X0300550Y0056177D01*
X0300708Y0056161D01*
X0300865Y0056141D01*
X0301021Y0056117D01*
X0301177Y0056089D01*
X0301332Y0056058D01*
X0301487Y0056022D01*
X0301640Y0055983D01*
X0301792Y0055940D01*
X0301943Y0055893D01*
X0302093Y0055842D01*
X0302242Y0055787D01*
X0302389Y0055729D01*
X0302535Y0055667D01*
X0302679Y0055602D01*
X0302821Y0055532D01*
X0302962Y0055460D01*
X0303101Y0055383D01*
X0303237Y0055304D01*
X0303372Y0055220D01*
X0303505Y0055134D01*
X0303635Y0055044D01*
X0303763Y0054951D01*
X0303889Y0054855D01*
X0304012Y0054755D01*
X0304133Y0054653D01*
X0304251Y0054548D01*
X0304366Y0054439D01*
X0304479Y0054328D01*
X0304589Y0054214D01*
X0304696Y0054097D01*
X0304800Y0053978D01*
X0304901Y0053856D01*
X0304998Y0053731D01*
X0305093Y0053604D01*
X0305184Y0053475D01*
X0305273Y0053344D01*
X0305357Y0053210D01*
X0305439Y0053074D01*
X0305517Y0052937D01*
X0305591Y0052797D01*
X0305662Y0052655D01*
X0305730Y0052512D01*
X0305794Y0052367D01*
X0305854Y0052221D01*
X0305910Y0052073D01*
X0305963Y0051924D01*
X0306012Y0051773D01*
X0306057Y0051621D01*
X0306098Y0051468D01*
X0306136Y0051315D01*
X0306169Y0051160D01*
X0306199Y0051004D01*
X0306225Y0050848D01*
X0306246Y0050691D01*
X0306264Y0050534D01*
X0306278Y0050376D01*
X0306288Y0050218D01*
X0306294Y0050060D01*
X0306296Y0049902D01*
X0306294Y0049744D01*
X0306288Y0049586D01*
X0306278Y0049428D01*
X0306264Y0049270D01*
X0306246Y0049113D01*
X0306225Y0048956D01*
X0306199Y0048800D01*
X0306169Y0048644D01*
X0306136Y0048489D01*
X0306098Y0048336D01*
X0306057Y0048183D01*
X0306012Y0048031D01*
X0305963Y0047880D01*
X0305910Y0047731D01*
X0305854Y0047583D01*
X0305794Y0047437D01*
X0305730Y0047292D01*
X0305662Y0047149D01*
X0305591Y0047007D01*
X0305517Y0046867D01*
X0305439Y0046730D01*
X0305357Y0046594D01*
X0305273Y0046460D01*
X0305184Y0046329D01*
X0305093Y0046200D01*
X0304998Y0046073D01*
X0304901Y0045948D01*
X0304800Y0045826D01*
X0304696Y0045707D01*
X0304589Y0045590D01*
X0304479Y0045476D01*
X0304366Y0045365D01*
X0304251Y0045256D01*
X0304133Y0045151D01*
X0304012Y0045049D01*
X0303889Y0044949D01*
X0303763Y0044853D01*
X0303635Y0044760D01*
X0303505Y0044670D01*
X0303372Y0044584D01*
X0303237Y0044500D01*
X0303101Y0044421D01*
X0302962Y0044344D01*
X0302821Y0044272D01*
X0302679Y0044202D01*
X0302535Y0044137D01*
X0302389Y0044075D01*
X0302242Y0044017D01*
X0302093Y0043962D01*
X0301943Y0043911D01*
X0301792Y0043864D01*
X0301640Y0043821D01*
X0301487Y0043782D01*
X0301332Y0043746D01*
X0301177Y0043715D01*
X0301021Y0043687D01*
X0300865Y0043663D01*
X0300708Y0043643D01*
X0300550Y0043627D01*
X0300393Y0043615D01*
X0300234Y0043607D01*
X0300076Y0043603D01*
X0299918Y0043603D01*
X0299760Y0043607D01*
X0299601Y0043615D01*
X0299444Y0043627D01*
X0299286Y0043643D01*
X0299129Y0043663D01*
X0298973Y0043687D01*
X0298817Y0043715D01*
X0298662Y0043746D01*
X0298507Y0043782D01*
X0298354Y0043821D01*
X0298202Y0043864D01*
X0298051Y0043911D01*
X0297901Y0043962D01*
X0297752Y0044017D01*
X0297605Y0044075D01*
X0297459Y0044137D01*
X0297315Y0044202D01*
X0297173Y0044272D01*
X0297032Y0044344D01*
X0296893Y0044421D01*
X0296757Y0044500D01*
X0296622Y0044584D01*
X0296489Y0044670D01*
X0296359Y0044760D01*
X0296231Y0044853D01*
X0296105Y0044949D01*
X0295982Y0045049D01*
X0295861Y0045151D01*
X0295743Y0045256D01*
X0295628Y0045365D01*
X0295515Y0045476D01*
X0295405Y0045590D01*
X0295298Y0045707D01*
X0295194Y0045826D01*
X0295093Y0045948D01*
X0294996Y0046073D01*
X0294901Y0046200D01*
X0294810Y0046329D01*
X0294721Y0046460D01*
X0294637Y0046594D01*
X0294555Y0046730D01*
X0294477Y0046867D01*
X0294403Y0047007D01*
X0294332Y0047149D01*
X0294264Y0047292D01*
X0294200Y0047437D01*
X0294140Y0047583D01*
X0294084Y0047731D01*
X0294031Y0047880D01*
X0293982Y0048031D01*
X0293937Y0048183D01*
X0293896Y0048336D01*
X0293858Y0048489D01*
X0293825Y0048644D01*
X0293795Y0048800D01*
X0293769Y0048956D01*
X0293748Y0049113D01*
X0293730Y0049270D01*
X0293716Y0049428D01*
X0293706Y0049586D01*
X0293700Y0049744D01*
X0293698Y0049902D01*
X0293698Y0207382D02*
X0293700Y0207540D01*
X0293706Y0207698D01*
X0293716Y0207856D01*
X0293730Y0208014D01*
X0293748Y0208171D01*
X0293769Y0208328D01*
X0293795Y0208484D01*
X0293825Y0208640D01*
X0293858Y0208795D01*
X0293896Y0208948D01*
X0293937Y0209101D01*
X0293982Y0209253D01*
X0294031Y0209404D01*
X0294084Y0209553D01*
X0294140Y0209701D01*
X0294200Y0209847D01*
X0294264Y0209992D01*
X0294332Y0210135D01*
X0294403Y0210277D01*
X0294477Y0210417D01*
X0294555Y0210554D01*
X0294637Y0210690D01*
X0294721Y0210824D01*
X0294810Y0210955D01*
X0294901Y0211084D01*
X0294996Y0211211D01*
X0295093Y0211336D01*
X0295194Y0211458D01*
X0295298Y0211577D01*
X0295405Y0211694D01*
X0295515Y0211808D01*
X0295628Y0211919D01*
X0295743Y0212028D01*
X0295861Y0212133D01*
X0295982Y0212235D01*
X0296105Y0212335D01*
X0296231Y0212431D01*
X0296359Y0212524D01*
X0296489Y0212614D01*
X0296622Y0212700D01*
X0296757Y0212784D01*
X0296893Y0212863D01*
X0297032Y0212940D01*
X0297173Y0213012D01*
X0297315Y0213082D01*
X0297459Y0213147D01*
X0297605Y0213209D01*
X0297752Y0213267D01*
X0297901Y0213322D01*
X0298051Y0213373D01*
X0298202Y0213420D01*
X0298354Y0213463D01*
X0298507Y0213502D01*
X0298662Y0213538D01*
X0298817Y0213569D01*
X0298973Y0213597D01*
X0299129Y0213621D01*
X0299286Y0213641D01*
X0299444Y0213657D01*
X0299601Y0213669D01*
X0299760Y0213677D01*
X0299918Y0213681D01*
X0300076Y0213681D01*
X0300234Y0213677D01*
X0300393Y0213669D01*
X0300550Y0213657D01*
X0300708Y0213641D01*
X0300865Y0213621D01*
X0301021Y0213597D01*
X0301177Y0213569D01*
X0301332Y0213538D01*
X0301487Y0213502D01*
X0301640Y0213463D01*
X0301792Y0213420D01*
X0301943Y0213373D01*
X0302093Y0213322D01*
X0302242Y0213267D01*
X0302389Y0213209D01*
X0302535Y0213147D01*
X0302679Y0213082D01*
X0302821Y0213012D01*
X0302962Y0212940D01*
X0303101Y0212863D01*
X0303237Y0212784D01*
X0303372Y0212700D01*
X0303505Y0212614D01*
X0303635Y0212524D01*
X0303763Y0212431D01*
X0303889Y0212335D01*
X0304012Y0212235D01*
X0304133Y0212133D01*
X0304251Y0212028D01*
X0304366Y0211919D01*
X0304479Y0211808D01*
X0304589Y0211694D01*
X0304696Y0211577D01*
X0304800Y0211458D01*
X0304901Y0211336D01*
X0304998Y0211211D01*
X0305093Y0211084D01*
X0305184Y0210955D01*
X0305273Y0210824D01*
X0305357Y0210690D01*
X0305439Y0210554D01*
X0305517Y0210417D01*
X0305591Y0210277D01*
X0305662Y0210135D01*
X0305730Y0209992D01*
X0305794Y0209847D01*
X0305854Y0209701D01*
X0305910Y0209553D01*
X0305963Y0209404D01*
X0306012Y0209253D01*
X0306057Y0209101D01*
X0306098Y0208948D01*
X0306136Y0208795D01*
X0306169Y0208640D01*
X0306199Y0208484D01*
X0306225Y0208328D01*
X0306246Y0208171D01*
X0306264Y0208014D01*
X0306278Y0207856D01*
X0306288Y0207698D01*
X0306294Y0207540D01*
X0306296Y0207382D01*
X0306294Y0207224D01*
X0306288Y0207066D01*
X0306278Y0206908D01*
X0306264Y0206750D01*
X0306246Y0206593D01*
X0306225Y0206436D01*
X0306199Y0206280D01*
X0306169Y0206124D01*
X0306136Y0205969D01*
X0306098Y0205816D01*
X0306057Y0205663D01*
X0306012Y0205511D01*
X0305963Y0205360D01*
X0305910Y0205211D01*
X0305854Y0205063D01*
X0305794Y0204917D01*
X0305730Y0204772D01*
X0305662Y0204629D01*
X0305591Y0204487D01*
X0305517Y0204347D01*
X0305439Y0204210D01*
X0305357Y0204074D01*
X0305273Y0203940D01*
X0305184Y0203809D01*
X0305093Y0203680D01*
X0304998Y0203553D01*
X0304901Y0203428D01*
X0304800Y0203306D01*
X0304696Y0203187D01*
X0304589Y0203070D01*
X0304479Y0202956D01*
X0304366Y0202845D01*
X0304251Y0202736D01*
X0304133Y0202631D01*
X0304012Y0202529D01*
X0303889Y0202429D01*
X0303763Y0202333D01*
X0303635Y0202240D01*
X0303505Y0202150D01*
X0303372Y0202064D01*
X0303237Y0201980D01*
X0303101Y0201901D01*
X0302962Y0201824D01*
X0302821Y0201752D01*
X0302679Y0201682D01*
X0302535Y0201617D01*
X0302389Y0201555D01*
X0302242Y0201497D01*
X0302093Y0201442D01*
X0301943Y0201391D01*
X0301792Y0201344D01*
X0301640Y0201301D01*
X0301487Y0201262D01*
X0301332Y0201226D01*
X0301177Y0201195D01*
X0301021Y0201167D01*
X0300865Y0201143D01*
X0300708Y0201123D01*
X0300550Y0201107D01*
X0300393Y0201095D01*
X0300234Y0201087D01*
X0300076Y0201083D01*
X0299918Y0201083D01*
X0299760Y0201087D01*
X0299601Y0201095D01*
X0299444Y0201107D01*
X0299286Y0201123D01*
X0299129Y0201143D01*
X0298973Y0201167D01*
X0298817Y0201195D01*
X0298662Y0201226D01*
X0298507Y0201262D01*
X0298354Y0201301D01*
X0298202Y0201344D01*
X0298051Y0201391D01*
X0297901Y0201442D01*
X0297752Y0201497D01*
X0297605Y0201555D01*
X0297459Y0201617D01*
X0297315Y0201682D01*
X0297173Y0201752D01*
X0297032Y0201824D01*
X0296893Y0201901D01*
X0296757Y0201980D01*
X0296622Y0202064D01*
X0296489Y0202150D01*
X0296359Y0202240D01*
X0296231Y0202333D01*
X0296105Y0202429D01*
X0295982Y0202529D01*
X0295861Y0202631D01*
X0295743Y0202736D01*
X0295628Y0202845D01*
X0295515Y0202956D01*
X0295405Y0203070D01*
X0295298Y0203187D01*
X0295194Y0203306D01*
X0295093Y0203428D01*
X0294996Y0203553D01*
X0294901Y0203680D01*
X0294810Y0203809D01*
X0294721Y0203940D01*
X0294637Y0204074D01*
X0294555Y0204210D01*
X0294477Y0204347D01*
X0294403Y0204487D01*
X0294332Y0204629D01*
X0294264Y0204772D01*
X0294200Y0204917D01*
X0294140Y0205063D01*
X0294084Y0205211D01*
X0294031Y0205360D01*
X0293982Y0205511D01*
X0293937Y0205663D01*
X0293896Y0205816D01*
X0293858Y0205969D01*
X0293825Y0206124D01*
X0293795Y0206280D01*
X0293769Y0206436D01*
X0293748Y0206593D01*
X0293730Y0206750D01*
X0293716Y0206908D01*
X0293706Y0207066D01*
X0293700Y0207224D01*
X0293698Y0207382D01*
X0096847Y0207382D02*
X0096849Y0207540D01*
X0096855Y0207698D01*
X0096865Y0207856D01*
X0096879Y0208014D01*
X0096897Y0208171D01*
X0096918Y0208328D01*
X0096944Y0208484D01*
X0096974Y0208640D01*
X0097007Y0208795D01*
X0097045Y0208948D01*
X0097086Y0209101D01*
X0097131Y0209253D01*
X0097180Y0209404D01*
X0097233Y0209553D01*
X0097289Y0209701D01*
X0097349Y0209847D01*
X0097413Y0209992D01*
X0097481Y0210135D01*
X0097552Y0210277D01*
X0097626Y0210417D01*
X0097704Y0210554D01*
X0097786Y0210690D01*
X0097870Y0210824D01*
X0097959Y0210955D01*
X0098050Y0211084D01*
X0098145Y0211211D01*
X0098242Y0211336D01*
X0098343Y0211458D01*
X0098447Y0211577D01*
X0098554Y0211694D01*
X0098664Y0211808D01*
X0098777Y0211919D01*
X0098892Y0212028D01*
X0099010Y0212133D01*
X0099131Y0212235D01*
X0099254Y0212335D01*
X0099380Y0212431D01*
X0099508Y0212524D01*
X0099638Y0212614D01*
X0099771Y0212700D01*
X0099906Y0212784D01*
X0100042Y0212863D01*
X0100181Y0212940D01*
X0100322Y0213012D01*
X0100464Y0213082D01*
X0100608Y0213147D01*
X0100754Y0213209D01*
X0100901Y0213267D01*
X0101050Y0213322D01*
X0101200Y0213373D01*
X0101351Y0213420D01*
X0101503Y0213463D01*
X0101656Y0213502D01*
X0101811Y0213538D01*
X0101966Y0213569D01*
X0102122Y0213597D01*
X0102278Y0213621D01*
X0102435Y0213641D01*
X0102593Y0213657D01*
X0102750Y0213669D01*
X0102909Y0213677D01*
X0103067Y0213681D01*
X0103225Y0213681D01*
X0103383Y0213677D01*
X0103542Y0213669D01*
X0103699Y0213657D01*
X0103857Y0213641D01*
X0104014Y0213621D01*
X0104170Y0213597D01*
X0104326Y0213569D01*
X0104481Y0213538D01*
X0104636Y0213502D01*
X0104789Y0213463D01*
X0104941Y0213420D01*
X0105092Y0213373D01*
X0105242Y0213322D01*
X0105391Y0213267D01*
X0105538Y0213209D01*
X0105684Y0213147D01*
X0105828Y0213082D01*
X0105970Y0213012D01*
X0106111Y0212940D01*
X0106250Y0212863D01*
X0106386Y0212784D01*
X0106521Y0212700D01*
X0106654Y0212614D01*
X0106784Y0212524D01*
X0106912Y0212431D01*
X0107038Y0212335D01*
X0107161Y0212235D01*
X0107282Y0212133D01*
X0107400Y0212028D01*
X0107515Y0211919D01*
X0107628Y0211808D01*
X0107738Y0211694D01*
X0107845Y0211577D01*
X0107949Y0211458D01*
X0108050Y0211336D01*
X0108147Y0211211D01*
X0108242Y0211084D01*
X0108333Y0210955D01*
X0108422Y0210824D01*
X0108506Y0210690D01*
X0108588Y0210554D01*
X0108666Y0210417D01*
X0108740Y0210277D01*
X0108811Y0210135D01*
X0108879Y0209992D01*
X0108943Y0209847D01*
X0109003Y0209701D01*
X0109059Y0209553D01*
X0109112Y0209404D01*
X0109161Y0209253D01*
X0109206Y0209101D01*
X0109247Y0208948D01*
X0109285Y0208795D01*
X0109318Y0208640D01*
X0109348Y0208484D01*
X0109374Y0208328D01*
X0109395Y0208171D01*
X0109413Y0208014D01*
X0109427Y0207856D01*
X0109437Y0207698D01*
X0109443Y0207540D01*
X0109445Y0207382D01*
X0109443Y0207224D01*
X0109437Y0207066D01*
X0109427Y0206908D01*
X0109413Y0206750D01*
X0109395Y0206593D01*
X0109374Y0206436D01*
X0109348Y0206280D01*
X0109318Y0206124D01*
X0109285Y0205969D01*
X0109247Y0205816D01*
X0109206Y0205663D01*
X0109161Y0205511D01*
X0109112Y0205360D01*
X0109059Y0205211D01*
X0109003Y0205063D01*
X0108943Y0204917D01*
X0108879Y0204772D01*
X0108811Y0204629D01*
X0108740Y0204487D01*
X0108666Y0204347D01*
X0108588Y0204210D01*
X0108506Y0204074D01*
X0108422Y0203940D01*
X0108333Y0203809D01*
X0108242Y0203680D01*
X0108147Y0203553D01*
X0108050Y0203428D01*
X0107949Y0203306D01*
X0107845Y0203187D01*
X0107738Y0203070D01*
X0107628Y0202956D01*
X0107515Y0202845D01*
X0107400Y0202736D01*
X0107282Y0202631D01*
X0107161Y0202529D01*
X0107038Y0202429D01*
X0106912Y0202333D01*
X0106784Y0202240D01*
X0106654Y0202150D01*
X0106521Y0202064D01*
X0106386Y0201980D01*
X0106250Y0201901D01*
X0106111Y0201824D01*
X0105970Y0201752D01*
X0105828Y0201682D01*
X0105684Y0201617D01*
X0105538Y0201555D01*
X0105391Y0201497D01*
X0105242Y0201442D01*
X0105092Y0201391D01*
X0104941Y0201344D01*
X0104789Y0201301D01*
X0104636Y0201262D01*
X0104481Y0201226D01*
X0104326Y0201195D01*
X0104170Y0201167D01*
X0104014Y0201143D01*
X0103857Y0201123D01*
X0103699Y0201107D01*
X0103542Y0201095D01*
X0103383Y0201087D01*
X0103225Y0201083D01*
X0103067Y0201083D01*
X0102909Y0201087D01*
X0102750Y0201095D01*
X0102593Y0201107D01*
X0102435Y0201123D01*
X0102278Y0201143D01*
X0102122Y0201167D01*
X0101966Y0201195D01*
X0101811Y0201226D01*
X0101656Y0201262D01*
X0101503Y0201301D01*
X0101351Y0201344D01*
X0101200Y0201391D01*
X0101050Y0201442D01*
X0100901Y0201497D01*
X0100754Y0201555D01*
X0100608Y0201617D01*
X0100464Y0201682D01*
X0100322Y0201752D01*
X0100181Y0201824D01*
X0100042Y0201901D01*
X0099906Y0201980D01*
X0099771Y0202064D01*
X0099638Y0202150D01*
X0099508Y0202240D01*
X0099380Y0202333D01*
X0099254Y0202429D01*
X0099131Y0202529D01*
X0099010Y0202631D01*
X0098892Y0202736D01*
X0098777Y0202845D01*
X0098664Y0202956D01*
X0098554Y0203070D01*
X0098447Y0203187D01*
X0098343Y0203306D01*
X0098242Y0203428D01*
X0098145Y0203553D01*
X0098050Y0203680D01*
X0097959Y0203809D01*
X0097870Y0203940D01*
X0097786Y0204074D01*
X0097704Y0204210D01*
X0097626Y0204347D01*
X0097552Y0204487D01*
X0097481Y0204629D01*
X0097413Y0204772D01*
X0097349Y0204917D01*
X0097289Y0205063D01*
X0097233Y0205211D01*
X0097180Y0205360D01*
X0097131Y0205511D01*
X0097086Y0205663D01*
X0097045Y0205816D01*
X0097007Y0205969D01*
X0096974Y0206124D01*
X0096944Y0206280D01*
X0096918Y0206436D01*
X0096897Y0206593D01*
X0096879Y0206750D01*
X0096865Y0206908D01*
X0096855Y0207066D01*
X0096849Y0207224D01*
X0096847Y0207382D01*
D11*
X0154734Y0205667D03*
X0158934Y0212267D03*
X0158934Y0212367D03*
X0168834Y0208767D03*
X0161734Y0199367D03*
D12*
X0161934Y0199467D03*
X0154634Y0205367D03*
X0151734Y0205267D03*
X0146134Y0208317D03*
X0145734Y0208017D03*
X0145634Y0207917D03*
X0143634Y0210517D03*
X0143734Y0210617D03*
X0143434Y0210417D03*
X0142434Y0204717D03*
X0142334Y0204617D03*
X0142134Y0204517D03*
X0141834Y0204317D03*
X0136834Y0204917D03*
X0136734Y0204817D03*
X0136634Y0204717D03*
X0136534Y0204617D03*
X0132934Y0209517D03*
X0132234Y0208917D03*
X0129034Y0210417D03*
X0129134Y0210817D03*
X0129234Y0210917D03*
X0132234Y0213817D03*
X0125134Y0213917D03*
X0125034Y0214117D03*
X0126434Y0220817D03*
X0126434Y0220917D03*
X0123434Y0223517D03*
X0123234Y0223317D03*
X0129634Y0223417D03*
X0129734Y0223517D03*
X0129834Y0223617D03*
X0127234Y0207717D03*
X0127134Y0207617D03*
X0124834Y0206017D03*
X0124434Y0205717D03*
X0124334Y0205617D03*
X0124034Y0204517D03*
X0123934Y0204417D03*
X0123634Y0204217D03*
X0123534Y0204117D03*
X0126234Y0198517D03*
X0126134Y0198417D03*
X0126034Y0198317D03*
X0125934Y0198217D03*
X0125834Y0198117D03*
X0125734Y0198017D03*
X0125634Y0197917D03*
X0159134Y0212967D03*
D13*
X0159434Y0213467D03*
X0164034Y0218967D03*
X0173534Y0211467D03*
X0164234Y0202367D03*
X0164734Y0201467D03*
X0164734Y0201367D03*
X0162234Y0202567D03*
X0162234Y0202667D03*
X0162334Y0202767D03*
X0161834Y0200367D03*
X0162134Y0199567D03*
X0142034Y0206417D03*
X0141634Y0209717D03*
X0138834Y0203117D03*
X0138434Y0203017D03*
X0132334Y0209017D03*
D14*
X0132234Y0209117D03*
X0138034Y0202917D03*
X0141634Y0206317D03*
X0161434Y0201367D03*
X0161434Y0201267D03*
X0161434Y0201167D03*
X0161934Y0200167D03*
X0162134Y0199667D03*
X0162434Y0202967D03*
X0162434Y0203067D03*
X0162534Y0203167D03*
X0162534Y0203267D03*
X0164234Y0202267D03*
D15*
X0164284Y0202167D03*
X0164884Y0201167D03*
X0161984Y0200067D03*
X0162084Y0199767D03*
X0161384Y0201067D03*
X0162584Y0203367D03*
X0162684Y0203467D03*
X0162684Y0203567D03*
X0165684Y0209267D03*
X0165584Y0209367D03*
X0173384Y0211367D03*
X0164084Y0218867D03*
X0141184Y0209617D03*
X0141184Y0206217D03*
X0137584Y0202817D03*
D16*
X0136984Y0202717D03*
X0135484Y0202417D03*
X0140684Y0206117D03*
X0159384Y0213567D03*
X0165084Y0209867D03*
X0165184Y0209767D03*
X0165284Y0209667D03*
X0165384Y0209567D03*
X0173184Y0211267D03*
X0164984Y0201067D03*
X0162084Y0199867D03*
D17*
X0162034Y0199967D03*
X0165134Y0200567D03*
X0165534Y0209467D03*
X0151634Y0205067D03*
X0139834Y0209317D03*
D18*
X0136734Y0215517D03*
X0136934Y0216617D03*
X0136934Y0216717D03*
X0136934Y0216817D03*
X0136934Y0216917D03*
X0136934Y0217017D03*
X0136934Y0217117D03*
X0136934Y0217817D03*
X0136934Y0217917D03*
X0136934Y0218017D03*
X0136934Y0218117D03*
X0136934Y0218217D03*
X0136834Y0218817D03*
X0131534Y0221217D03*
X0129534Y0215117D03*
X0129634Y0214717D03*
X0129634Y0214617D03*
X0129734Y0213717D03*
X0129634Y0212817D03*
X0129634Y0212717D03*
X0129534Y0212317D03*
X0125034Y0213417D03*
X0124734Y0215317D03*
X0124734Y0215417D03*
X0124734Y0215517D03*
X0124734Y0215617D03*
X0124734Y0215717D03*
X0124734Y0215817D03*
X0124734Y0215917D03*
X0124734Y0216017D03*
X0124734Y0216117D03*
X0124734Y0216217D03*
X0124734Y0216317D03*
X0124734Y0216417D03*
X0124834Y0217217D03*
X0124934Y0217717D03*
X0121234Y0217417D03*
X0121134Y0216017D03*
X0121134Y0215917D03*
X0121134Y0215817D03*
X0121134Y0215717D03*
X0121134Y0215617D03*
X0121134Y0215517D03*
X0121134Y0215417D03*
X0121134Y0215317D03*
X0121234Y0214017D03*
X0117934Y0214317D03*
X0117934Y0214417D03*
X0118034Y0215017D03*
X0118234Y0215917D03*
X0117834Y0213517D03*
X0117834Y0213417D03*
X0117834Y0213317D03*
X0117834Y0213217D03*
X0117834Y0213117D03*
X0117834Y0213017D03*
X0117834Y0212917D03*
X0117834Y0212817D03*
X0117834Y0211817D03*
X0117834Y0211717D03*
X0117834Y0211617D03*
X0117834Y0211517D03*
X0117834Y0211417D03*
X0117834Y0211317D03*
X0117834Y0211217D03*
X0117934Y0210417D03*
X0117934Y0210317D03*
X0117934Y0210217D03*
X0118034Y0209717D03*
X0118134Y0209217D03*
X0118234Y0208717D03*
X0118434Y0207917D03*
X0121034Y0202217D03*
X0149134Y0201467D03*
X0155034Y0203567D03*
X0154734Y0205567D03*
X0160534Y0200767D03*
X0160634Y0200867D03*
X0160434Y0200567D03*
X0163034Y0201367D03*
X0163134Y0201467D03*
X0163234Y0201567D03*
X0163334Y0201767D03*
X0163434Y0201967D03*
X0163534Y0202067D03*
X0165334Y0200067D03*
X0159034Y0212567D03*
X0148334Y0212917D03*
X0148334Y0213017D03*
X0148334Y0213117D03*
X0148334Y0213217D03*
X0148334Y0213317D03*
X0148334Y0213417D03*
X0148334Y0213517D03*
X0148334Y0213617D03*
X0148334Y0213717D03*
X0148334Y0213817D03*
X0148334Y0213917D03*
X0148334Y0214017D03*
X0148334Y0214117D03*
X0148334Y0214217D03*
X0148334Y0214317D03*
X0148334Y0214417D03*
X0148334Y0214517D03*
X0148334Y0214617D03*
X0148334Y0214717D03*
X0148334Y0214817D03*
X0148234Y0215717D03*
X0148234Y0215817D03*
X0148234Y0212117D03*
D19*
X0144384Y0212817D03*
X0144284Y0212717D03*
X0144184Y0212617D03*
X0144084Y0212517D03*
X0143984Y0212417D03*
X0143884Y0212317D03*
X0143784Y0212217D03*
X0143684Y0212117D03*
X0143584Y0212017D03*
X0143484Y0211917D03*
X0143384Y0211817D03*
X0143284Y0211717D03*
X0143184Y0211617D03*
X0143084Y0211517D03*
X0142984Y0211417D03*
X0142884Y0211317D03*
X0142784Y0211217D03*
X0142684Y0211117D03*
X0142584Y0211017D03*
X0142484Y0210917D03*
X0142384Y0210817D03*
X0142284Y0210717D03*
X0142184Y0210617D03*
X0142084Y0210517D03*
X0141984Y0210417D03*
X0141884Y0210317D03*
X0141784Y0210217D03*
X0143884Y0210717D03*
X0143984Y0210817D03*
X0144084Y0210917D03*
X0144184Y0211017D03*
X0144284Y0211117D03*
X0144384Y0211217D03*
X0146484Y0208617D03*
X0146384Y0208517D03*
X0146284Y0208417D03*
X0145984Y0208217D03*
X0145884Y0208117D03*
X0142784Y0205017D03*
X0142684Y0204917D03*
X0142584Y0204817D03*
X0136484Y0204517D03*
X0136384Y0204417D03*
X0136284Y0204317D03*
X0135184Y0202917D03*
X0134184Y0201717D03*
X0134084Y0201617D03*
X0133984Y0201517D03*
X0130984Y0203717D03*
X0130884Y0203617D03*
X0130584Y0203217D03*
X0130484Y0203117D03*
X0130384Y0203017D03*
X0130084Y0202617D03*
X0129984Y0202517D03*
X0129584Y0202017D03*
X0129484Y0201917D03*
X0129084Y0201417D03*
X0128984Y0201317D03*
X0131284Y0204117D03*
X0131384Y0204217D03*
X0131584Y0204517D03*
X0131684Y0204617D03*
X0131784Y0204717D03*
X0132084Y0205117D03*
X0132384Y0205517D03*
X0132584Y0205817D03*
X0132684Y0205917D03*
X0132884Y0206217D03*
X0132984Y0209617D03*
X0133084Y0209717D03*
X0133184Y0209817D03*
X0133284Y0209917D03*
X0133384Y0210017D03*
X0133484Y0210117D03*
X0133584Y0210217D03*
X0133684Y0210317D03*
X0133784Y0210417D03*
X0133884Y0210517D03*
X0133984Y0210617D03*
X0134084Y0210717D03*
X0134184Y0210817D03*
X0134284Y0210917D03*
X0134384Y0211017D03*
X0134484Y0211117D03*
X0134584Y0211217D03*
X0134684Y0211317D03*
X0134784Y0211417D03*
X0134884Y0211517D03*
X0134984Y0211617D03*
X0135084Y0211717D03*
X0135184Y0211817D03*
X0135284Y0211917D03*
X0135384Y0212017D03*
X0135484Y0212117D03*
X0135584Y0212217D03*
X0131884Y0213517D03*
X0131784Y0213417D03*
X0131684Y0213317D03*
X0131584Y0213217D03*
X0131484Y0213117D03*
X0131384Y0213017D03*
X0131284Y0212917D03*
X0131184Y0212817D03*
X0131084Y0212717D03*
X0130984Y0212617D03*
X0130884Y0212517D03*
X0130784Y0212417D03*
X0130684Y0212317D03*
X0130584Y0212217D03*
X0130484Y0212117D03*
X0130384Y0212017D03*
X0130284Y0211917D03*
X0130184Y0211817D03*
X0130084Y0211717D03*
X0129984Y0211617D03*
X0129884Y0211517D03*
X0129084Y0210717D03*
X0128984Y0210617D03*
X0127484Y0207917D03*
X0127384Y0207817D03*
X0125584Y0206017D03*
X0125484Y0205917D03*
X0125384Y0205817D03*
X0125284Y0205717D03*
X0125184Y0205617D03*
X0125084Y0205517D03*
X0124984Y0205417D03*
X0124884Y0205317D03*
X0124784Y0205217D03*
X0124684Y0205117D03*
X0124584Y0205017D03*
X0124484Y0204917D03*
X0124384Y0204817D03*
X0124284Y0204717D03*
X0124184Y0204617D03*
X0123784Y0204317D03*
X0123384Y0204017D03*
X0123084Y0204417D03*
X0123184Y0204517D03*
X0123284Y0204617D03*
X0123384Y0204717D03*
X0123484Y0204817D03*
X0123584Y0204917D03*
X0123684Y0205017D03*
X0123784Y0205117D03*
X0123884Y0205217D03*
X0123984Y0205317D03*
X0124084Y0205417D03*
X0124184Y0205517D03*
X0122984Y0204317D03*
X0122884Y0204217D03*
X0122784Y0204117D03*
X0122684Y0204017D03*
X0125584Y0197817D03*
X0125484Y0197717D03*
X0130184Y0197717D03*
X0125584Y0213517D03*
X0125984Y0213917D03*
X0126084Y0214017D03*
X0126184Y0214117D03*
X0126284Y0214217D03*
X0126384Y0214317D03*
X0126484Y0214417D03*
X0126584Y0214517D03*
X0126684Y0214617D03*
X0126784Y0214717D03*
X0126884Y0214817D03*
X0126984Y0214917D03*
X0127084Y0215017D03*
X0127184Y0215117D03*
X0127284Y0215217D03*
X0127384Y0215317D03*
X0127484Y0215417D03*
X0127584Y0215517D03*
X0127684Y0215617D03*
X0127784Y0215717D03*
X0127884Y0215817D03*
X0127984Y0215917D03*
X0128084Y0216017D03*
X0128184Y0216117D03*
X0128284Y0216217D03*
X0128384Y0216317D03*
X0128484Y0216417D03*
X0128784Y0216717D03*
X0128884Y0216817D03*
X0128884Y0216917D03*
X0124984Y0214317D03*
X0124984Y0214217D03*
X0120784Y0221017D03*
X0120884Y0221117D03*
X0121184Y0221417D03*
X0121284Y0221517D03*
X0121584Y0221817D03*
X0121684Y0221917D03*
X0121984Y0222217D03*
X0122084Y0222317D03*
X0123484Y0223617D03*
X0123584Y0223717D03*
X0123684Y0223817D03*
X0128984Y0222417D03*
X0129884Y0223717D03*
X0129984Y0223817D03*
X0130084Y0223917D03*
X0131584Y0221017D03*
X0131884Y0220617D03*
X0149684Y0201867D03*
X0165284Y0200167D03*
X0164984Y0215367D03*
D20*
X0162384Y0202867D03*
X0161484Y0201567D03*
X0161484Y0201467D03*
X0161884Y0200267D03*
X0164784Y0201267D03*
X0165184Y0200467D03*
D21*
X0165234Y0200267D03*
X0154734Y0203667D03*
X0145334Y0207717D03*
X0144134Y0207117D03*
X0141034Y0203917D03*
X0140834Y0203817D03*
X0137734Y0206117D03*
X0137234Y0205417D03*
X0137134Y0205317D03*
X0138434Y0207317D03*
X0138534Y0207517D03*
X0138634Y0207717D03*
X0138934Y0208317D03*
X0139034Y0208517D03*
X0139034Y0208617D03*
X0139134Y0208717D03*
X0139134Y0208817D03*
X0139234Y0208917D03*
X0139234Y0209017D03*
X0139334Y0209117D03*
X0136334Y0213217D03*
X0136534Y0213817D03*
X0136634Y0214117D03*
X0136734Y0214417D03*
X0136934Y0215217D03*
X0137034Y0215917D03*
X0137134Y0216017D03*
X0137134Y0216117D03*
X0137134Y0216217D03*
X0137134Y0216317D03*
X0131534Y0220817D03*
X0129034Y0222617D03*
X0126434Y0220717D03*
X0122934Y0222917D03*
X0122934Y0223017D03*
X0122834Y0222817D03*
X0128734Y0216517D03*
X0129434Y0211217D03*
X0129334Y0211117D03*
X0129134Y0210317D03*
X0129334Y0210217D03*
X0129534Y0210117D03*
X0130034Y0209917D03*
X0130734Y0209617D03*
X0132734Y0209217D03*
X0126634Y0207217D03*
X0126534Y0207117D03*
X0124434Y0205817D03*
X0121834Y0203017D03*
X0121734Y0202917D03*
X0121634Y0202817D03*
X0121134Y0202517D03*
X0126734Y0199117D03*
X0126834Y0199217D03*
X0126934Y0199317D03*
X0127034Y0199417D03*
X0127134Y0199517D03*
X0144734Y0213017D03*
D22*
X0143384Y0206817D03*
X0143084Y0206717D03*
X0140084Y0203517D03*
X0139784Y0203417D03*
X0135384Y0212417D03*
X0125384Y0213617D03*
X0125784Y0206517D03*
X0125684Y0206417D03*
X0125584Y0206317D03*
X0122784Y0203817D03*
X0122684Y0203717D03*
X0122584Y0203617D03*
X0121184Y0202617D03*
X0128984Y0222817D03*
X0161684Y0200967D03*
X0161784Y0200567D03*
X0164184Y0202567D03*
X0164284Y0203567D03*
X0165184Y0200367D03*
D23*
X0163084Y0201267D03*
X0163284Y0201667D03*
X0163384Y0201867D03*
X0160484Y0200667D03*
X0160484Y0200467D03*
X0164389Y0209530D03*
X0164984Y0215267D03*
X0158984Y0212467D03*
X0149084Y0201367D03*
X0131484Y0221317D03*
X0128984Y0222117D03*
X0126484Y0221217D03*
D24*
X0125484Y0213817D03*
X0132384Y0213617D03*
X0135284Y0212517D03*
X0137584Y0205517D03*
X0139184Y0203217D03*
X0135084Y0202317D03*
X0142384Y0206517D03*
X0144584Y0207217D03*
X0151684Y0205167D03*
X0161484Y0201667D03*
X0161884Y0202167D03*
X0161984Y0202267D03*
X0162084Y0202367D03*
X0162184Y0202467D03*
X0164184Y0202467D03*
X0164484Y0202067D03*
X0164584Y0201967D03*
X0164584Y0201867D03*
X0164684Y0201767D03*
X0164684Y0201667D03*
X0164684Y0201567D03*
X0161784Y0200467D03*
D25*
X0161734Y0200667D03*
X0161734Y0200767D03*
X0161734Y0200867D03*
X0164134Y0202667D03*
X0164234Y0202767D03*
X0164234Y0202867D03*
X0164234Y0202967D03*
X0164234Y0203067D03*
X0164234Y0203167D03*
X0164234Y0203267D03*
X0164234Y0203367D03*
X0164234Y0203467D03*
X0173634Y0211567D03*
X0150134Y0202067D03*
X0144934Y0207417D03*
X0143634Y0206917D03*
X0142634Y0210017D03*
X0140634Y0203717D03*
X0134634Y0212717D03*
X0133934Y0213017D03*
X0133234Y0213317D03*
X0126034Y0206717D03*
X0125934Y0206617D03*
X0124534Y0205917D03*
X0122434Y0203517D03*
X0122334Y0203417D03*
X0122234Y0203317D03*
X0127834Y0200317D03*
X0127934Y0200417D03*
X0128034Y0200517D03*
X0128134Y0200617D03*
X0122634Y0222617D03*
D26*
X0140634Y0209517D03*
X0137934Y0205617D03*
X0164134Y0218767D03*
X0164634Y0210267D03*
X0164734Y0210167D03*
X0164834Y0210067D03*
X0164934Y0209967D03*
X0165134Y0200667D03*
D27*
X0165134Y0200767D03*
X0164334Y0205467D03*
X0164434Y0205567D03*
X0172834Y0211067D03*
X0173034Y0211167D03*
X0164134Y0218667D03*
X0140134Y0209417D03*
X0139634Y0205917D03*
X0136434Y0202617D03*
X0150034Y0202167D03*
D28*
X0151584Y0204967D03*
X0164184Y0205267D03*
X0164284Y0205367D03*
X0164484Y0205867D03*
X0165184Y0200867D03*
X0172284Y0210867D03*
X0172584Y0210967D03*
D29*
X0173884Y0211767D03*
X0168484Y0208767D03*
X0159084Y0212667D03*
X0159084Y0212767D03*
X0154684Y0205467D03*
X0147484Y0209917D03*
X0147584Y0210117D03*
X0147684Y0210317D03*
X0147684Y0210417D03*
X0147784Y0210517D03*
X0147784Y0210617D03*
X0147884Y0210717D03*
X0147884Y0210817D03*
X0147884Y0210917D03*
X0147984Y0211017D03*
X0147984Y0211117D03*
X0147984Y0211217D03*
X0148084Y0211317D03*
X0148084Y0211417D03*
X0148084Y0211517D03*
X0148084Y0211617D03*
X0148184Y0211717D03*
X0148184Y0211817D03*
X0148184Y0211917D03*
X0148184Y0212017D03*
X0148284Y0212217D03*
X0148284Y0212317D03*
X0148284Y0212417D03*
X0148284Y0212517D03*
X0148284Y0212617D03*
X0148284Y0212717D03*
X0148284Y0212817D03*
X0148284Y0214917D03*
X0148284Y0215017D03*
X0148284Y0215117D03*
X0148284Y0215217D03*
X0148284Y0215317D03*
X0148284Y0215417D03*
X0148284Y0215517D03*
X0148284Y0215617D03*
X0148184Y0215917D03*
X0148184Y0216017D03*
X0148184Y0216117D03*
X0148184Y0216217D03*
X0148184Y0216317D03*
X0144984Y0212817D03*
X0144984Y0212717D03*
X0144984Y0212617D03*
X0144884Y0212417D03*
X0144884Y0212317D03*
X0144884Y0212217D03*
X0144784Y0212017D03*
X0144784Y0211917D03*
X0144684Y0211717D03*
X0144584Y0211517D03*
X0147284Y0209617D03*
X0147084Y0209317D03*
X0140084Y0211817D03*
X0140084Y0211917D03*
X0140084Y0212017D03*
X0140184Y0212117D03*
X0140184Y0212217D03*
X0140184Y0212317D03*
X0140284Y0212517D03*
X0140284Y0212617D03*
X0140284Y0212717D03*
X0140384Y0212817D03*
X0140384Y0212917D03*
X0140384Y0213017D03*
X0140384Y0213117D03*
X0139984Y0211717D03*
X0139984Y0211617D03*
X0139984Y0211517D03*
X0139884Y0211417D03*
X0139884Y0211317D03*
X0139884Y0211217D03*
X0139784Y0211117D03*
X0139784Y0211017D03*
X0139784Y0210917D03*
X0139684Y0210817D03*
X0139684Y0210717D03*
X0139684Y0210617D03*
X0139584Y0210517D03*
X0139584Y0210417D03*
X0139484Y0210217D03*
X0139384Y0209817D03*
X0139284Y0209717D03*
X0139284Y0209617D03*
X0139184Y0209517D03*
X0139084Y0208117D03*
X0138984Y0207917D03*
X0138584Y0208117D03*
X0138484Y0207917D03*
X0137984Y0207017D03*
X0137884Y0206817D03*
X0137784Y0206617D03*
X0138284Y0206617D03*
X0138384Y0206817D03*
X0135884Y0203817D03*
X0131484Y0205917D03*
X0131484Y0206017D03*
X0131384Y0205817D03*
X0131284Y0205617D03*
X0131184Y0205417D03*
X0131084Y0205217D03*
X0130984Y0205117D03*
X0130884Y0204917D03*
X0130684Y0204617D03*
X0130584Y0204417D03*
X0130384Y0204117D03*
X0130184Y0203817D03*
X0129984Y0203517D03*
X0129784Y0203217D03*
X0128984Y0202117D03*
X0128684Y0201717D03*
X0128284Y0201217D03*
X0131684Y0206317D03*
X0131784Y0206517D03*
X0131884Y0206717D03*
X0131984Y0206917D03*
X0132084Y0207117D03*
X0132184Y0207317D03*
X0132184Y0207417D03*
X0132284Y0207517D03*
X0132284Y0207617D03*
X0132384Y0207817D03*
X0132484Y0208017D03*
X0132584Y0208217D03*
X0132584Y0208317D03*
X0132684Y0208417D03*
X0132684Y0208517D03*
X0132784Y0208717D03*
X0132784Y0208817D03*
X0132884Y0208917D03*
X0132284Y0208817D03*
X0134384Y0208517D03*
X0134684Y0209017D03*
X0134784Y0209217D03*
X0134884Y0209417D03*
X0134984Y0209617D03*
X0135084Y0209817D03*
X0135184Y0210017D03*
X0135384Y0210417D03*
X0135484Y0210617D03*
X0135584Y0210817D03*
X0135684Y0211017D03*
X0135784Y0211217D03*
X0135884Y0211417D03*
X0135884Y0211517D03*
X0135984Y0211717D03*
X0136084Y0211917D03*
X0136084Y0212017D03*
X0136184Y0212217D03*
X0136284Y0212417D03*
X0136284Y0212517D03*
X0136384Y0212717D03*
X0136384Y0212817D03*
X0136484Y0213017D03*
X0136484Y0213117D03*
X0136584Y0213317D03*
X0136584Y0213417D03*
X0136684Y0213517D03*
X0136684Y0213617D03*
X0136684Y0213717D03*
X0136784Y0213917D03*
X0136784Y0214017D03*
X0136884Y0214217D03*
X0136884Y0214317D03*
X0136984Y0214517D03*
X0136984Y0214617D03*
X0137084Y0214817D03*
X0137084Y0214917D03*
X0137084Y0215017D03*
X0137184Y0215317D03*
X0137184Y0215417D03*
X0137184Y0215517D03*
X0137284Y0215617D03*
X0137284Y0215717D03*
X0137284Y0215817D03*
X0136784Y0215817D03*
X0136784Y0215717D03*
X0136784Y0215617D03*
X0136684Y0215417D03*
X0136684Y0215317D03*
X0136584Y0215017D03*
X0136584Y0214917D03*
X0136584Y0214817D03*
X0136484Y0214617D03*
X0136484Y0214517D03*
X0136384Y0214317D03*
X0136384Y0214217D03*
X0136284Y0214017D03*
X0136284Y0213917D03*
X0136184Y0213717D03*
X0136184Y0213617D03*
X0136184Y0213517D03*
X0136084Y0213417D03*
X0136084Y0213317D03*
X0135984Y0213117D03*
X0135984Y0213017D03*
X0135884Y0212917D03*
X0135884Y0212817D03*
X0135884Y0212717D03*
X0135784Y0212617D03*
X0132384Y0214217D03*
X0132484Y0214417D03*
X0132584Y0214617D03*
X0132684Y0214817D03*
X0132684Y0214917D03*
X0132684Y0215017D03*
X0132784Y0215217D03*
X0132784Y0215317D03*
X0132884Y0215517D03*
X0132884Y0215617D03*
X0132884Y0215717D03*
X0132984Y0215917D03*
X0132984Y0216017D03*
X0132984Y0216117D03*
X0132984Y0216217D03*
X0132984Y0216317D03*
X0133084Y0216417D03*
X0133084Y0216517D03*
X0133084Y0216617D03*
X0133084Y0216717D03*
X0133084Y0216817D03*
X0133084Y0216917D03*
X0133084Y0217017D03*
X0133084Y0217117D03*
X0133084Y0217217D03*
X0133084Y0217317D03*
X0133084Y0217417D03*
X0133084Y0217517D03*
X0133084Y0217617D03*
X0133084Y0217717D03*
X0132984Y0217817D03*
X0132984Y0217917D03*
X0132984Y0218017D03*
X0132984Y0218117D03*
X0132984Y0218217D03*
X0132884Y0218417D03*
X0132884Y0218517D03*
X0132884Y0218617D03*
X0132784Y0218817D03*
X0132784Y0218917D03*
X0132684Y0219117D03*
X0132684Y0219217D03*
X0132584Y0219417D03*
X0132484Y0219617D03*
X0132384Y0219817D03*
X0131184Y0220517D03*
X0130984Y0220217D03*
X0130684Y0219717D03*
X0130384Y0219217D03*
X0130184Y0218917D03*
X0129884Y0218417D03*
X0129784Y0218217D03*
X0129584Y0217917D03*
X0129384Y0217617D03*
X0129284Y0217417D03*
X0129084Y0216417D03*
X0129084Y0216317D03*
X0129184Y0216217D03*
X0129184Y0216117D03*
X0129284Y0215917D03*
X0129284Y0215817D03*
X0129384Y0215717D03*
X0129384Y0215617D03*
X0129384Y0215517D03*
X0129484Y0215417D03*
X0129484Y0215317D03*
X0129484Y0215217D03*
X0129584Y0215017D03*
X0129584Y0214917D03*
X0129584Y0214817D03*
X0129684Y0214517D03*
X0129684Y0214417D03*
X0129684Y0214317D03*
X0129684Y0214217D03*
X0129684Y0214117D03*
X0129684Y0214017D03*
X0129684Y0213917D03*
X0129684Y0213817D03*
X0129684Y0213617D03*
X0129684Y0213517D03*
X0129684Y0213417D03*
X0129684Y0213317D03*
X0129684Y0213217D03*
X0129684Y0213117D03*
X0129684Y0213017D03*
X0129684Y0212917D03*
X0129584Y0212617D03*
X0129584Y0212517D03*
X0129584Y0212417D03*
X0129484Y0212217D03*
X0129484Y0212117D03*
X0129484Y0212017D03*
X0129484Y0211917D03*
X0129384Y0211817D03*
X0129384Y0211717D03*
X0129384Y0211617D03*
X0129284Y0211517D03*
X0126084Y0210517D03*
X0126084Y0210417D03*
X0125984Y0210617D03*
X0125984Y0210717D03*
X0125884Y0210817D03*
X0125884Y0210917D03*
X0125784Y0211117D03*
X0125784Y0211217D03*
X0125684Y0211317D03*
X0125684Y0211417D03*
X0125584Y0211517D03*
X0125584Y0211617D03*
X0125584Y0211717D03*
X0125484Y0211817D03*
X0125484Y0211917D03*
X0125484Y0212017D03*
X0125384Y0212117D03*
X0125384Y0212217D03*
X0125384Y0212317D03*
X0125284Y0212417D03*
X0125284Y0212517D03*
X0125284Y0212617D03*
X0125184Y0212717D03*
X0125184Y0212817D03*
X0125184Y0212917D03*
X0125084Y0213017D03*
X0125084Y0213117D03*
X0125084Y0213217D03*
X0125084Y0213317D03*
X0124984Y0213517D03*
X0125584Y0213417D03*
X0124784Y0214817D03*
X0124784Y0214917D03*
X0124784Y0215017D03*
X0124784Y0215117D03*
X0124784Y0215217D03*
X0124784Y0216517D03*
X0124784Y0216617D03*
X0124784Y0216717D03*
X0124784Y0216817D03*
X0124784Y0216917D03*
X0124784Y0217017D03*
X0124784Y0217117D03*
X0124884Y0217317D03*
X0124884Y0217417D03*
X0124884Y0217517D03*
X0124884Y0217617D03*
X0124984Y0217817D03*
X0124984Y0217917D03*
X0124984Y0218017D03*
X0124984Y0218117D03*
X0125084Y0218217D03*
X0125084Y0218317D03*
X0125084Y0218417D03*
X0125184Y0218517D03*
X0125184Y0218617D03*
X0125184Y0218717D03*
X0125284Y0218817D03*
X0125284Y0218917D03*
X0125284Y0219017D03*
X0125384Y0219117D03*
X0125384Y0219217D03*
X0125484Y0219317D03*
X0125484Y0219417D03*
X0125584Y0219617D03*
X0125684Y0219817D03*
X0125784Y0220017D03*
X0126084Y0220517D03*
X0126484Y0221117D03*
X0126984Y0220117D03*
X0127384Y0219417D03*
X0127684Y0218917D03*
X0128084Y0218217D03*
X0122284Y0221217D03*
X0122284Y0221317D03*
X0122384Y0221517D03*
X0122484Y0221717D03*
X0122584Y0221917D03*
X0122684Y0222117D03*
X0122784Y0222317D03*
X0122884Y0222517D03*
X0122184Y0221117D03*
X0122184Y0221017D03*
X0122084Y0220917D03*
X0122084Y0220817D03*
X0121984Y0220617D03*
X0121984Y0220517D03*
X0121884Y0220417D03*
X0121884Y0220317D03*
X0121884Y0220217D03*
X0121784Y0220017D03*
X0121784Y0219917D03*
X0121684Y0219717D03*
X0121684Y0219617D03*
X0121684Y0219517D03*
X0121584Y0219417D03*
X0121584Y0219317D03*
X0121584Y0219217D03*
X0121584Y0219117D03*
X0121484Y0219017D03*
X0121484Y0218917D03*
X0121484Y0218817D03*
X0121484Y0218717D03*
X0121484Y0218617D03*
X0121384Y0218517D03*
X0121384Y0218417D03*
X0121384Y0218317D03*
X0121384Y0218217D03*
X0121384Y0218117D03*
X0121284Y0218017D03*
X0121284Y0217917D03*
X0121284Y0217817D03*
X0121284Y0217717D03*
X0121284Y0217617D03*
X0121284Y0217517D03*
X0121184Y0217317D03*
X0121184Y0217217D03*
X0121184Y0217117D03*
X0121184Y0217017D03*
X0121184Y0216917D03*
X0121184Y0216817D03*
X0121184Y0216717D03*
X0121184Y0216617D03*
X0121184Y0216517D03*
X0121184Y0216417D03*
X0121184Y0216317D03*
X0121184Y0216217D03*
X0121184Y0216117D03*
X0121184Y0215217D03*
X0121184Y0215117D03*
X0121184Y0215017D03*
X0121184Y0214917D03*
X0121184Y0214817D03*
X0121184Y0214717D03*
X0121184Y0214617D03*
X0121184Y0214517D03*
X0121184Y0214417D03*
X0121184Y0214317D03*
X0121184Y0214217D03*
X0121184Y0214117D03*
X0121284Y0213917D03*
X0121284Y0213817D03*
X0121284Y0213717D03*
X0121284Y0213617D03*
X0121284Y0213517D03*
X0121284Y0213417D03*
X0121284Y0213317D03*
X0121384Y0213217D03*
X0121384Y0213117D03*
X0121384Y0213017D03*
X0121384Y0212917D03*
X0121384Y0212817D03*
X0121484Y0212717D03*
X0121484Y0212617D03*
X0121484Y0212517D03*
X0121484Y0212417D03*
X0121484Y0212317D03*
X0121584Y0212117D03*
X0121584Y0212017D03*
X0121584Y0211917D03*
X0121684Y0211717D03*
X0121684Y0211617D03*
X0121684Y0211517D03*
X0121784Y0211317D03*
X0121784Y0211217D03*
X0121784Y0211117D03*
X0121884Y0211017D03*
X0121884Y0210917D03*
X0121884Y0210817D03*
X0121984Y0210617D03*
X0121984Y0210517D03*
X0122084Y0210317D03*
X0122084Y0210217D03*
X0122184Y0210017D03*
X0122184Y0209917D03*
X0122284Y0209817D03*
X0122284Y0209717D03*
X0122384Y0209517D03*
X0122384Y0209417D03*
X0122484Y0209217D03*
X0122584Y0209017D03*
X0122584Y0208917D03*
X0122684Y0208817D03*
X0122684Y0208717D03*
X0122784Y0208517D03*
X0122884Y0208317D03*
X0122984Y0208117D03*
X0123084Y0207917D03*
X0123184Y0207717D03*
X0123284Y0207517D03*
X0123384Y0207317D03*
X0123484Y0207117D03*
X0123784Y0206617D03*
X0123884Y0206417D03*
X0127084Y0208617D03*
X0126984Y0208817D03*
X0126884Y0208917D03*
X0126784Y0209117D03*
X0126684Y0209317D03*
X0126584Y0209517D03*
X0126484Y0209617D03*
X0126384Y0209817D03*
X0126284Y0210017D03*
X0126184Y0210217D03*
X0127284Y0208317D03*
X0127484Y0208017D03*
X0119884Y0204317D03*
X0119884Y0204217D03*
X0119984Y0204117D03*
X0120084Y0203917D03*
X0120184Y0203717D03*
X0120284Y0203517D03*
X0120484Y0203217D03*
X0120584Y0203017D03*
X0119784Y0204417D03*
X0119784Y0204517D03*
X0119684Y0204617D03*
X0119684Y0204717D03*
X0119584Y0204817D03*
X0119584Y0204917D03*
X0119484Y0205017D03*
X0119484Y0205117D03*
X0119384Y0205317D03*
X0119284Y0205517D03*
X0119284Y0205617D03*
X0119184Y0205717D03*
X0119184Y0205817D03*
X0119084Y0205917D03*
X0119084Y0206017D03*
X0119084Y0206117D03*
X0118984Y0206217D03*
X0118984Y0206317D03*
X0118884Y0206517D03*
X0118884Y0206617D03*
X0118784Y0206717D03*
X0118784Y0206817D03*
X0118784Y0206917D03*
X0118684Y0207017D03*
X0118684Y0207117D03*
X0118684Y0207217D03*
X0118584Y0207317D03*
X0118584Y0207417D03*
X0118584Y0207517D03*
X0118484Y0207617D03*
X0118484Y0207717D03*
X0118484Y0207817D03*
X0118384Y0208017D03*
X0118384Y0208117D03*
X0118384Y0208217D03*
X0118284Y0208317D03*
X0118284Y0208417D03*
X0118284Y0208517D03*
X0118284Y0208617D03*
X0118184Y0208817D03*
X0118184Y0208917D03*
X0118184Y0209017D03*
X0118184Y0209117D03*
X0118084Y0209317D03*
X0118084Y0209417D03*
X0118084Y0209517D03*
X0118084Y0209617D03*
X0117984Y0209817D03*
X0117984Y0209917D03*
X0117984Y0210017D03*
X0117984Y0210117D03*
X0117884Y0210517D03*
X0117884Y0210617D03*
X0117884Y0210717D03*
X0117884Y0210817D03*
X0117884Y0210917D03*
X0117884Y0211017D03*
X0117884Y0211117D03*
X0117784Y0211917D03*
X0117784Y0212017D03*
X0117784Y0212117D03*
X0117784Y0212217D03*
X0117784Y0212317D03*
X0117784Y0212417D03*
X0117784Y0212517D03*
X0117784Y0212617D03*
X0117784Y0212717D03*
X0117884Y0213617D03*
X0117884Y0213717D03*
X0117884Y0213817D03*
X0117884Y0213917D03*
X0117884Y0214017D03*
X0117884Y0214117D03*
X0117884Y0214217D03*
X0117984Y0214517D03*
X0117984Y0214617D03*
X0117984Y0214717D03*
X0117984Y0214817D03*
X0117984Y0214917D03*
X0118084Y0215117D03*
X0118084Y0215217D03*
X0118084Y0215317D03*
X0118084Y0215417D03*
X0118184Y0215517D03*
X0118184Y0215617D03*
X0118184Y0215717D03*
X0118184Y0215817D03*
X0118284Y0216017D03*
X0118284Y0216117D03*
X0118284Y0216217D03*
X0118384Y0216317D03*
X0118384Y0216417D03*
X0118384Y0216517D03*
X0118384Y0216617D03*
X0118484Y0216717D03*
X0118484Y0216817D03*
X0118584Y0217017D03*
X0118584Y0217117D03*
X0118684Y0217217D03*
X0118684Y0217317D03*
X0118684Y0217417D03*
X0118784Y0217517D03*
X0118784Y0217617D03*
X0118884Y0217817D03*
X0118884Y0217917D03*
X0118984Y0218017D03*
X0118984Y0218117D03*
X0119084Y0218217D03*
X0119084Y0218317D03*
X0119184Y0218517D03*
X0119284Y0218717D03*
X0119384Y0218917D03*
X0119484Y0219017D03*
X0119484Y0219117D03*
X0119584Y0219217D03*
X0119684Y0219417D03*
X0119784Y0219617D03*
X0119884Y0219717D03*
X0119984Y0219917D03*
X0120184Y0220217D03*
X0127984Y0223917D03*
X0128284Y0223417D03*
X0128484Y0223117D03*
X0128984Y0222217D03*
X0134984Y0223017D03*
X0135084Y0222817D03*
X0135284Y0222517D03*
X0135384Y0222417D03*
X0135484Y0222217D03*
X0135584Y0222017D03*
X0135784Y0221717D03*
X0135884Y0221517D03*
X0135984Y0221317D03*
X0136084Y0221117D03*
X0136184Y0220917D03*
X0136184Y0220817D03*
X0136284Y0220717D03*
X0136284Y0220617D03*
X0136384Y0220417D03*
X0136384Y0220317D03*
X0136484Y0220217D03*
X0136484Y0220117D03*
X0136484Y0220017D03*
X0136584Y0219917D03*
X0136584Y0219817D03*
X0136584Y0219717D03*
X0136684Y0219617D03*
X0136684Y0219517D03*
X0136684Y0219417D03*
X0136684Y0219317D03*
X0136784Y0219217D03*
X0136784Y0219117D03*
X0136784Y0219017D03*
X0136784Y0218917D03*
X0136884Y0218717D03*
X0136884Y0218617D03*
X0136884Y0218517D03*
X0136884Y0218417D03*
X0136884Y0218317D03*
X0136984Y0217717D03*
X0136984Y0217617D03*
X0136984Y0217517D03*
X0136984Y0217417D03*
X0136984Y0217317D03*
X0136984Y0217217D03*
X0136884Y0216517D03*
X0149384Y0201667D03*
X0149284Y0201567D03*
X0160684Y0200967D03*
D30*
X0165084Y0200967D03*
X0164484Y0205667D03*
X0164584Y0205767D03*
X0140184Y0206017D03*
D31*
X0138534Y0207017D03*
X0139534Y0210317D03*
X0140234Y0212417D03*
X0136434Y0212917D03*
X0136334Y0212617D03*
X0136234Y0212317D03*
X0136134Y0212117D03*
X0136034Y0211817D03*
X0135934Y0211617D03*
X0135834Y0211317D03*
X0135734Y0211117D03*
X0135634Y0210917D03*
X0135534Y0210717D03*
X0135434Y0210517D03*
X0135334Y0210317D03*
X0135334Y0210217D03*
X0135234Y0210117D03*
X0135134Y0209917D03*
X0135034Y0209717D03*
X0134934Y0209517D03*
X0134834Y0209317D03*
X0134734Y0209117D03*
X0134634Y0208917D03*
X0134534Y0208817D03*
X0134534Y0208717D03*
X0134434Y0208617D03*
X0134334Y0208417D03*
X0134234Y0208317D03*
X0134234Y0208217D03*
X0134134Y0208117D03*
X0134134Y0208017D03*
X0134034Y0207917D03*
X0133934Y0207817D03*
X0133934Y0207717D03*
X0133834Y0207617D03*
X0133734Y0207517D03*
X0133734Y0207417D03*
X0133634Y0207317D03*
X0133534Y0207217D03*
X0133534Y0207117D03*
X0133434Y0207017D03*
X0133334Y0206917D03*
X0133334Y0206817D03*
X0133234Y0206717D03*
X0133134Y0206617D03*
X0133134Y0206517D03*
X0133034Y0206417D03*
X0132934Y0206317D03*
X0132834Y0206117D03*
X0132734Y0206017D03*
X0132534Y0205717D03*
X0132434Y0205617D03*
X0132334Y0205417D03*
X0132234Y0205317D03*
X0132134Y0205217D03*
X0132034Y0205017D03*
X0131934Y0204917D03*
X0131834Y0204817D03*
X0131534Y0204417D03*
X0131434Y0204317D03*
X0131234Y0204017D03*
X0131134Y0203917D03*
X0131034Y0203817D03*
X0130834Y0203517D03*
X0130734Y0203417D03*
X0130634Y0203317D03*
X0130334Y0202917D03*
X0130234Y0202817D03*
X0130134Y0202717D03*
X0129934Y0202417D03*
X0129834Y0202317D03*
X0129734Y0202217D03*
X0129634Y0202117D03*
X0129434Y0201817D03*
X0129334Y0201717D03*
X0129234Y0201617D03*
X0129134Y0201517D03*
X0128934Y0201217D03*
X0128834Y0201117D03*
X0128734Y0201017D03*
X0128434Y0201417D03*
X0128534Y0201517D03*
X0128634Y0201617D03*
X0128734Y0201817D03*
X0128834Y0201917D03*
X0128934Y0202017D03*
X0129034Y0202217D03*
X0129134Y0202317D03*
X0129234Y0202417D03*
X0129234Y0202517D03*
X0129334Y0202617D03*
X0129434Y0202717D03*
X0129534Y0202817D03*
X0129534Y0202917D03*
X0129634Y0203017D03*
X0129734Y0203117D03*
X0129834Y0203317D03*
X0129934Y0203417D03*
X0130034Y0203617D03*
X0130134Y0203717D03*
X0130234Y0203917D03*
X0130334Y0204017D03*
X0130434Y0204217D03*
X0130534Y0204317D03*
X0130634Y0204517D03*
X0130734Y0204717D03*
X0130834Y0204817D03*
X0130934Y0205017D03*
X0131134Y0205317D03*
X0131234Y0205517D03*
X0131334Y0205717D03*
X0131534Y0206117D03*
X0131634Y0206217D03*
X0131734Y0206417D03*
X0131834Y0206617D03*
X0131934Y0206817D03*
X0132034Y0207017D03*
X0132134Y0207217D03*
X0132334Y0207717D03*
X0132434Y0207917D03*
X0132534Y0208117D03*
X0132734Y0208617D03*
X0128934Y0210517D03*
X0126634Y0209417D03*
X0126734Y0209217D03*
X0126834Y0209017D03*
X0127034Y0208717D03*
X0127134Y0208517D03*
X0127234Y0208417D03*
X0127334Y0208217D03*
X0127434Y0208117D03*
X0126434Y0209717D03*
X0126334Y0209917D03*
X0126234Y0210117D03*
X0126134Y0210317D03*
X0125834Y0211017D03*
X0124934Y0214417D03*
X0124934Y0214517D03*
X0124834Y0214617D03*
X0124834Y0214717D03*
X0121534Y0212217D03*
X0121634Y0211817D03*
X0121734Y0211417D03*
X0121934Y0210717D03*
X0122034Y0210417D03*
X0122134Y0210117D03*
X0122334Y0209617D03*
X0122434Y0209317D03*
X0122534Y0209117D03*
X0122734Y0208617D03*
X0122834Y0208417D03*
X0122934Y0208217D03*
X0123034Y0208017D03*
X0123134Y0207817D03*
X0123234Y0207617D03*
X0123334Y0207417D03*
X0123434Y0207217D03*
X0123534Y0207017D03*
X0123634Y0206917D03*
X0123634Y0206817D03*
X0123734Y0206717D03*
X0123834Y0206517D03*
X0123934Y0206317D03*
X0124034Y0206217D03*
X0124034Y0206117D03*
X0124134Y0206017D03*
X0120034Y0204017D03*
X0120134Y0203817D03*
X0120234Y0203617D03*
X0120334Y0203417D03*
X0120434Y0203317D03*
X0120534Y0203117D03*
X0120634Y0202917D03*
X0120734Y0202817D03*
X0120734Y0202717D03*
X0121034Y0202317D03*
X0119434Y0205217D03*
X0119334Y0205417D03*
X0118934Y0206417D03*
X0127934Y0200817D03*
X0128034Y0200917D03*
X0128134Y0201017D03*
X0128234Y0201117D03*
X0128334Y0201317D03*
X0131134Y0198617D03*
X0131234Y0198717D03*
X0131334Y0198817D03*
X0131434Y0198917D03*
X0131534Y0199017D03*
X0131634Y0199117D03*
X0131734Y0199217D03*
X0131834Y0199317D03*
X0131934Y0199417D03*
X0132034Y0199517D03*
X0132134Y0199617D03*
X0132234Y0199717D03*
X0132334Y0199817D03*
X0132434Y0199917D03*
X0132534Y0200017D03*
X0132634Y0200117D03*
X0132734Y0200217D03*
X0132834Y0200317D03*
X0132934Y0200417D03*
X0133034Y0200517D03*
X0133134Y0200617D03*
X0133534Y0201017D03*
X0133634Y0201117D03*
X0133734Y0201217D03*
X0133834Y0201317D03*
X0133934Y0201417D03*
X0134234Y0201817D03*
X0134334Y0201917D03*
X0134434Y0202017D03*
X0134534Y0202117D03*
X0134934Y0202617D03*
X0135034Y0202717D03*
X0135134Y0202817D03*
X0135234Y0203017D03*
X0135334Y0203117D03*
X0135434Y0203217D03*
X0135534Y0203317D03*
X0135534Y0203417D03*
X0135634Y0203517D03*
X0135734Y0203617D03*
X0135834Y0203717D03*
X0135934Y0203917D03*
X0136034Y0204017D03*
X0136134Y0204117D03*
X0136234Y0204217D03*
X0142934Y0205117D03*
X0143034Y0205217D03*
X0143134Y0205317D03*
X0143234Y0205417D03*
X0143334Y0205517D03*
X0143434Y0205617D03*
X0143534Y0205717D03*
X0143634Y0205817D03*
X0143734Y0205917D03*
X0143834Y0206017D03*
X0143934Y0206117D03*
X0144034Y0206217D03*
X0144134Y0206317D03*
X0144234Y0206417D03*
X0144334Y0206517D03*
X0144434Y0206617D03*
X0144534Y0206717D03*
X0144634Y0206817D03*
X0144734Y0206917D03*
X0144834Y0207017D03*
X0144934Y0207117D03*
X0146534Y0208717D03*
X0146634Y0208817D03*
X0146734Y0208917D03*
X0146834Y0209017D03*
X0146934Y0209117D03*
X0147034Y0209217D03*
X0147134Y0209417D03*
X0147234Y0209517D03*
X0147334Y0209717D03*
X0147434Y0209817D03*
X0147534Y0210017D03*
X0147634Y0210217D03*
X0144634Y0211617D03*
X0144734Y0211817D03*
X0144834Y0212117D03*
X0144934Y0212517D03*
X0144534Y0211417D03*
X0144434Y0211317D03*
X0148234Y0204967D03*
X0149534Y0201767D03*
X0159134Y0212867D03*
X0136334Y0220517D03*
X0136134Y0221017D03*
X0136034Y0221217D03*
X0135934Y0221417D03*
X0135834Y0221617D03*
X0135734Y0221817D03*
X0135634Y0221917D03*
X0135534Y0222117D03*
X0135434Y0222317D03*
X0135234Y0222617D03*
X0135134Y0222717D03*
X0135034Y0222917D03*
X0134934Y0223117D03*
X0134834Y0223217D03*
X0134734Y0223317D03*
X0134734Y0223417D03*
X0134634Y0223517D03*
X0134534Y0223617D03*
X0134534Y0223717D03*
X0134434Y0223817D03*
X0134334Y0223917D03*
X0131534Y0221117D03*
X0131234Y0220617D03*
X0131134Y0220417D03*
X0131034Y0220317D03*
X0130934Y0220117D03*
X0130834Y0220017D03*
X0130834Y0219917D03*
X0130734Y0219817D03*
X0130634Y0219617D03*
X0130534Y0219517D03*
X0130534Y0219417D03*
X0130434Y0219317D03*
X0130334Y0219117D03*
X0130234Y0219017D03*
X0130134Y0218817D03*
X0130034Y0218717D03*
X0130034Y0218617D03*
X0129934Y0218517D03*
X0129834Y0218317D03*
X0129734Y0218117D03*
X0129634Y0218017D03*
X0129534Y0217817D03*
X0129434Y0217717D03*
X0129334Y0217517D03*
X0129234Y0217317D03*
X0128634Y0217317D03*
X0128534Y0217417D03*
X0128534Y0217517D03*
X0128434Y0217617D03*
X0128334Y0217717D03*
X0128334Y0217817D03*
X0128234Y0217917D03*
X0128234Y0218017D03*
X0128134Y0218117D03*
X0128034Y0218317D03*
X0127934Y0218417D03*
X0127934Y0218517D03*
X0127834Y0218617D03*
X0127834Y0218717D03*
X0127734Y0218817D03*
X0127634Y0219017D03*
X0127534Y0219117D03*
X0127534Y0219217D03*
X0127434Y0219317D03*
X0127334Y0219517D03*
X0127234Y0219617D03*
X0127234Y0219717D03*
X0127134Y0219817D03*
X0127134Y0219917D03*
X0127034Y0220017D03*
X0126934Y0220217D03*
X0126834Y0220317D03*
X0126834Y0220417D03*
X0126734Y0220517D03*
X0126734Y0220617D03*
X0126434Y0221017D03*
X0126134Y0220617D03*
X0126034Y0220417D03*
X0125934Y0220317D03*
X0125934Y0220217D03*
X0125834Y0220117D03*
X0125734Y0219917D03*
X0125634Y0219717D03*
X0125534Y0219517D03*
X0122034Y0220717D03*
X0121834Y0220117D03*
X0121734Y0219817D03*
X0120434Y0220517D03*
X0120434Y0220617D03*
X0120534Y0220717D03*
X0120634Y0220817D03*
X0120734Y0220917D03*
X0121034Y0221217D03*
X0121134Y0221317D03*
X0121434Y0221617D03*
X0121534Y0221717D03*
X0121834Y0222017D03*
X0121934Y0222117D03*
X0122234Y0222417D03*
X0122334Y0222517D03*
X0122734Y0222217D03*
X0122834Y0222417D03*
X0122634Y0222017D03*
X0122534Y0221817D03*
X0122434Y0221617D03*
X0122334Y0221417D03*
X0120334Y0220417D03*
X0120234Y0220317D03*
X0120134Y0220117D03*
X0120034Y0220017D03*
X0119934Y0219817D03*
X0119734Y0219517D03*
X0119634Y0219317D03*
X0119334Y0218817D03*
X0119234Y0218617D03*
X0119134Y0218417D03*
X0118834Y0217717D03*
X0118534Y0216917D03*
X0123734Y0223917D03*
X0128034Y0223817D03*
X0128134Y0223717D03*
X0128134Y0223617D03*
X0128234Y0223517D03*
X0128334Y0223317D03*
X0128434Y0223217D03*
X0128534Y0223017D03*
X0128934Y0222317D03*
X0131934Y0220517D03*
X0132034Y0220417D03*
X0132134Y0220317D03*
X0132134Y0220217D03*
X0132234Y0220117D03*
X0132234Y0220017D03*
X0132334Y0219917D03*
X0132434Y0219717D03*
X0132534Y0219517D03*
X0132634Y0219317D03*
X0132734Y0219017D03*
X0132834Y0218717D03*
X0132934Y0218317D03*
X0132934Y0215817D03*
X0132834Y0215417D03*
X0132734Y0215117D03*
X0132634Y0214717D03*
X0132534Y0214517D03*
X0132434Y0214317D03*
X0132334Y0214117D03*
X0132334Y0214017D03*
X0132234Y0213917D03*
X0129234Y0216017D03*
X0131034Y0198517D03*
X0130934Y0198417D03*
X0130834Y0198317D03*
X0130734Y0198217D03*
X0130634Y0198117D03*
X0130534Y0198017D03*
X0130434Y0197917D03*
X0130334Y0197817D03*
D32*
X0122934Y0203917D03*
X0125334Y0206117D03*
X0125434Y0206217D03*
X0125434Y0213717D03*
X0129034Y0222917D03*
X0139534Y0209217D03*
X0142034Y0209817D03*
X0142734Y0206617D03*
X0144734Y0207317D03*
X0139534Y0203317D03*
X0159234Y0213267D03*
X0159334Y0213367D03*
X0161834Y0202067D03*
X0161734Y0201967D03*
X0161634Y0201867D03*
X0161534Y0201767D03*
D33*
X0154584Y0205267D03*
X0149884Y0201967D03*
X0145484Y0207817D03*
X0143284Y0210317D03*
X0144784Y0213117D03*
X0136884Y0215117D03*
X0136784Y0214717D03*
X0135484Y0212317D03*
X0132884Y0209417D03*
X0132784Y0209317D03*
X0129284Y0211017D03*
X0125084Y0214017D03*
X0128784Y0216617D03*
X0128884Y0217017D03*
X0128884Y0217117D03*
X0131584Y0220917D03*
X0128984Y0222517D03*
X0129284Y0223017D03*
X0129384Y0223117D03*
X0129484Y0223217D03*
X0129584Y0223317D03*
X0123284Y0223417D03*
X0123184Y0223217D03*
X0123084Y0223117D03*
X0126984Y0207517D03*
X0126884Y0207417D03*
X0126784Y0207317D03*
X0121484Y0202717D03*
X0121084Y0202417D03*
X0126284Y0198617D03*
X0126384Y0198717D03*
X0126484Y0198817D03*
X0126584Y0198917D03*
X0126684Y0199017D03*
X0134784Y0202217D03*
X0136884Y0205017D03*
X0136984Y0205117D03*
X0137084Y0205217D03*
X0141284Y0204017D03*
X0141484Y0204117D03*
X0141684Y0204217D03*
X0141984Y0204417D03*
X0159184Y0213067D03*
X0173784Y0211667D03*
D34*
X0172034Y0210767D03*
X0171734Y0210667D03*
X0164134Y0205167D03*
X0164034Y0204967D03*
X0150334Y0202267D03*
X0135834Y0202517D03*
X0164134Y0218567D03*
D35*
X0164134Y0218467D03*
X0160934Y0210967D03*
X0160634Y0210767D03*
X0166134Y0208567D03*
X0170934Y0210367D03*
X0163834Y0204667D03*
X0163834Y0204567D03*
X0163734Y0204467D03*
X0150634Y0202367D03*
X0140634Y0210117D03*
X0140534Y0210017D03*
X0138334Y0205717D03*
D36*
X0150734Y0202467D03*
X0160434Y0210667D03*
X0161034Y0211067D03*
X0161134Y0211167D03*
X0164334Y0205967D03*
X0163634Y0204267D03*
X0163534Y0204067D03*
X0163534Y0203967D03*
X0163434Y0203867D03*
X0164134Y0218267D03*
X0164134Y0218367D03*
D37*
X0164134Y0218167D03*
X0161234Y0211267D03*
X0160234Y0210467D03*
X0160134Y0210267D03*
X0160034Y0210067D03*
X0157134Y0205267D03*
X0151034Y0202667D03*
X0150834Y0202567D03*
X0138634Y0205817D03*
X0168234Y0209267D03*
D38*
X0165034Y0211067D03*
X0164134Y0217667D03*
X0155434Y0204767D03*
X0150934Y0202867D03*
X0150834Y0202767D03*
X0141034Y0209917D03*
D39*
X0150984Y0202967D03*
X0155584Y0204867D03*
X0157584Y0205567D03*
X0160184Y0209667D03*
X0165084Y0210967D03*
X0163984Y0206267D03*
X0164084Y0217567D03*
D40*
X0164034Y0217467D03*
X0164034Y0217367D03*
X0162634Y0213567D03*
X0162734Y0213467D03*
X0165234Y0210867D03*
X0155834Y0204967D03*
X0151034Y0203067D03*
D41*
X0151084Y0203167D03*
X0157784Y0205667D03*
X0162684Y0213367D03*
X0167284Y0208967D03*
X0163984Y0217267D03*
D42*
X0163434Y0215867D03*
X0162834Y0215567D03*
X0161234Y0214867D03*
X0160634Y0209167D03*
X0158934Y0206267D03*
X0150734Y0203367D03*
X0150634Y0203267D03*
X0168934Y0210067D03*
D43*
X0162684Y0212667D03*
X0162684Y0212767D03*
X0163584Y0216167D03*
X0158584Y0206067D03*
X0151084Y0203567D03*
X0150984Y0203467D03*
X0142684Y0213517D03*
D44*
X0151234Y0203667D03*
X0160434Y0209367D03*
X0167334Y0209167D03*
X0161534Y0215167D03*
D45*
X0160284Y0210567D03*
X0160184Y0210367D03*
X0156884Y0205167D03*
X0163384Y0203767D03*
X0163384Y0203667D03*
X0151484Y0204867D03*
D46*
X0152184Y0204067D03*
X0152184Y0203867D03*
X0152084Y0203767D03*
X0160984Y0208767D03*
X0162884Y0211667D03*
X0161384Y0213767D03*
D47*
X0161484Y0213667D03*
X0161084Y0214167D03*
X0162784Y0211767D03*
X0152284Y0203967D03*
D48*
X0151784Y0204167D03*
D49*
X0163584Y0204167D03*
X0163684Y0204367D03*
X0168384Y0209367D03*
X0168584Y0209467D03*
X0168784Y0209567D03*
D50*
X0151984Y0204267D03*
D51*
X0152234Y0204367D03*
X0152534Y0204467D03*
D52*
X0152584Y0204567D03*
D53*
X0152684Y0204667D03*
X0161684Y0207467D03*
D54*
X0162684Y0212367D03*
X0163084Y0215667D03*
X0150784Y0204767D03*
X0127684Y0197517D03*
D55*
X0160884Y0210867D03*
X0166384Y0208667D03*
X0166684Y0208767D03*
X0171184Y0210467D03*
X0171484Y0210567D03*
X0164084Y0205067D03*
X0163984Y0204867D03*
X0163884Y0204767D03*
D56*
X0154584Y0205167D03*
X0148584Y0204867D03*
X0145184Y0207617D03*
X0145084Y0207517D03*
X0143884Y0207017D03*
X0142884Y0210117D03*
X0143084Y0210217D03*
X0144684Y0212917D03*
X0138984Y0208417D03*
X0138884Y0208217D03*
X0138784Y0208017D03*
X0138684Y0207817D03*
X0138584Y0207617D03*
X0138484Y0207417D03*
X0138384Y0207217D03*
X0138284Y0207117D03*
X0138184Y0206917D03*
X0138084Y0206717D03*
X0137984Y0206517D03*
X0137884Y0206417D03*
X0137884Y0206317D03*
X0137784Y0206217D03*
X0137684Y0206017D03*
X0137584Y0205917D03*
X0140384Y0203617D03*
X0131684Y0209217D03*
X0131384Y0209317D03*
X0131184Y0209417D03*
X0130984Y0209517D03*
X0130484Y0209717D03*
X0130284Y0209817D03*
X0129784Y0210017D03*
X0129484Y0211317D03*
X0129584Y0211417D03*
X0132284Y0213717D03*
X0132784Y0213517D03*
X0132984Y0213417D03*
X0133484Y0213217D03*
X0133684Y0213117D03*
X0134184Y0212917D03*
X0134384Y0212817D03*
X0134884Y0212617D03*
X0128884Y0217217D03*
X0131584Y0220717D03*
X0128984Y0222717D03*
X0122684Y0222717D03*
X0126384Y0207017D03*
X0126284Y0206917D03*
X0126184Y0206817D03*
X0122084Y0203217D03*
X0121984Y0203117D03*
X0127184Y0199617D03*
X0127284Y0199717D03*
X0127384Y0199817D03*
X0127484Y0199917D03*
X0127584Y0200017D03*
X0127684Y0200117D03*
X0127784Y0200217D03*
X0159184Y0213167D03*
X0163984Y0219067D03*
D57*
X0163934Y0217167D03*
X0165334Y0210767D03*
X0168934Y0209867D03*
X0160234Y0209567D03*
X0156034Y0205067D03*
D58*
X0157334Y0205367D03*
X0159934Y0209867D03*
X0161334Y0211467D03*
X0164734Y0211367D03*
X0164134Y0217967D03*
X0164134Y0218067D03*
D59*
X0164084Y0217767D03*
X0168884Y0209767D03*
X0167184Y0208867D03*
X0157484Y0205467D03*
D60*
X0157984Y0205767D03*
X0162684Y0213267D03*
X0161884Y0215367D03*
X0163684Y0216667D03*
X0163784Y0216867D03*
X0163884Y0216967D03*
X0163884Y0217067D03*
X0165484Y0210667D03*
X0125884Y0224217D03*
D61*
X0125884Y0224117D03*
X0158184Y0205867D03*
X0162684Y0213067D03*
X0165584Y0210567D03*
X0163584Y0216467D03*
D62*
X0163584Y0216267D03*
X0161684Y0215267D03*
X0162684Y0212967D03*
X0162684Y0212867D03*
X0168984Y0209967D03*
X0158384Y0205967D03*
X0132184Y0224017D03*
X0125884Y0224017D03*
D63*
X0159984Y0209967D03*
X0160084Y0210167D03*
X0161284Y0211367D03*
X0164684Y0211467D03*
X0168884Y0209667D03*
X0164184Y0206067D03*
D64*
X0158784Y0206167D03*
X0162684Y0212467D03*
X0162684Y0212567D03*
X0161284Y0214967D03*
X0163184Y0215767D03*
X0163484Y0215967D03*
X0127684Y0197417D03*
D65*
X0160034Y0209767D03*
X0164934Y0211167D03*
X0164034Y0206167D03*
X0164134Y0217867D03*
D66*
X0162484Y0208367D03*
X0161284Y0206567D03*
X0161184Y0206367D03*
D67*
X0161234Y0206467D03*
X0161334Y0206667D03*
X0162534Y0208467D03*
D68*
X0162384Y0208267D03*
X0162284Y0208167D03*
X0161384Y0206767D03*
D69*
X0161434Y0206867D03*
D70*
X0161484Y0206967D03*
D71*
X0161534Y0207067D03*
X0161534Y0207167D03*
X0162134Y0208067D03*
D72*
X0161584Y0207267D03*
D73*
X0161634Y0207367D03*
D74*
X0161634Y0207567D03*
D75*
X0161684Y0207667D03*
D76*
X0161634Y0207767D03*
D77*
X0161634Y0207867D03*
X0161734Y0207967D03*
D78*
X0161234Y0208567D03*
D79*
X0161084Y0208667D03*
X0162884Y0211567D03*
D80*
X0161334Y0213967D03*
X0160934Y0214467D03*
X0160934Y0208867D03*
X0166534Y0210367D03*
X0130634Y0200717D03*
D81*
X0160834Y0208967D03*
X0162734Y0211967D03*
X0160934Y0214567D03*
D82*
X0161084Y0214667D03*
X0162684Y0212167D03*
X0160684Y0209067D03*
X0130984Y0200817D03*
D83*
X0160334Y0209467D03*
X0162734Y0213167D03*
X0167234Y0209067D03*
X0163634Y0216567D03*
X0163734Y0216767D03*
X0132234Y0224217D03*
D84*
X0142734Y0213417D03*
X0142734Y0213317D03*
X0142734Y0213217D03*
X0160534Y0209267D03*
X0161434Y0215067D03*
X0163534Y0216067D03*
D85*
X0162684Y0212067D03*
X0168984Y0210167D03*
D86*
X0168934Y0210267D03*
X0161334Y0213867D03*
D87*
X0163634Y0216367D03*
X0165734Y0210467D03*
X0132234Y0224117D03*
D88*
X0164884Y0211267D03*
D89*
X0162784Y0211867D03*
X0161284Y0214067D03*
X0161084Y0214267D03*
X0160984Y0214367D03*
D90*
X0161134Y0214767D03*
X0162734Y0215467D03*
X0162634Y0212267D03*
X0131034Y0200917D03*
X0127734Y0197617D03*
D91*
X0142484Y0216417D03*
D92*
X0142734Y0216517D03*
D93*
X0142784Y0216617D03*
D94*
X0142735Y0219067D02*
X0143219Y0219550D01*
X0142735Y0220034D01*
X0141767Y0220034D01*
X0141284Y0220518D01*
X0141767Y0221002D01*
X0143219Y0221002D01*
X0144230Y0220518D02*
X0145681Y0220518D01*
X0146165Y0220034D01*
X0146165Y0219550D01*
X0145681Y0219067D01*
X0144714Y0219067D01*
X0144230Y0219550D01*
X0144230Y0220518D01*
X0145198Y0221485D01*
X0146165Y0221969D01*
X0147177Y0221002D02*
X0149112Y0221002D01*
X0147177Y0219067D01*
X0149112Y0219067D01*
X0150123Y0219067D02*
X0150607Y0219067D01*
X0150607Y0219550D01*
X0150123Y0219550D01*
X0150123Y0219067D01*
X0151597Y0219550D02*
X0151597Y0220518D01*
X0152080Y0221002D01*
X0153532Y0221002D01*
X0153532Y0221969D02*
X0153532Y0219067D01*
X0152080Y0219067D01*
X0151597Y0219550D01*
X0154543Y0219550D02*
X0155027Y0219067D01*
X0155994Y0219067D01*
X0156478Y0220034D02*
X0154543Y0220034D01*
X0154543Y0219550D02*
X0154543Y0220518D01*
X0155027Y0221002D01*
X0155994Y0221002D01*
X0156478Y0220518D01*
X0156478Y0220034D01*
X0142735Y0219067D02*
X0141284Y0219067D01*
X0173084Y0220367D02*
X0175019Y0220367D01*
X0174051Y0220367D02*
X0174051Y0223269D01*
X0173084Y0222302D01*
X0176030Y0223269D02*
X0176030Y0220367D01*
X0176998Y0221334D01*
X0177965Y0220367D01*
X0177965Y0223269D01*
X0178977Y0221818D02*
X0180912Y0221818D01*
X0181923Y0223269D02*
X0182891Y0223269D01*
X0182407Y0223269D02*
X0182407Y0220367D01*
X0181923Y0220367D02*
X0182891Y0220367D01*
X0183888Y0220367D02*
X0185823Y0222302D01*
X0185823Y0222785D01*
X0185339Y0223269D01*
X0184371Y0223269D01*
X0183888Y0222785D01*
X0183888Y0220367D02*
X0185823Y0220367D01*
X0186834Y0220850D02*
X0187318Y0220367D01*
X0188285Y0220367D01*
X0188769Y0220850D01*
X0189781Y0221818D02*
X0191716Y0221818D01*
X0192727Y0222785D02*
X0192727Y0220850D01*
X0193211Y0220367D01*
X0194178Y0220367D01*
X0194662Y0220850D01*
X0194662Y0221818D01*
X0193695Y0221818D01*
X0194662Y0222785D02*
X0194178Y0223269D01*
X0193211Y0223269D01*
X0192727Y0222785D01*
X0196157Y0222302D02*
X0197125Y0222302D01*
X0197609Y0221818D01*
X0197609Y0220367D01*
X0196157Y0220367D01*
X0195674Y0220850D01*
X0196157Y0221334D01*
X0197609Y0221334D01*
X0198620Y0222302D02*
X0199588Y0222302D01*
X0199104Y0222785D02*
X0199104Y0220850D01*
X0199588Y0220367D01*
X0200585Y0220850D02*
X0200585Y0221818D01*
X0201068Y0222302D01*
X0202036Y0222302D01*
X0202520Y0221818D01*
X0202520Y0221334D01*
X0200585Y0221334D01*
X0200585Y0220850D02*
X0201068Y0220367D01*
X0202036Y0220367D01*
X0203531Y0220367D02*
X0203531Y0223269D01*
X0205466Y0223269D02*
X0205466Y0220367D01*
X0204499Y0221334D01*
X0203531Y0220367D01*
X0206478Y0220850D02*
X0206961Y0221334D01*
X0208413Y0221334D01*
X0208413Y0221818D02*
X0208413Y0220367D01*
X0206961Y0220367D01*
X0206478Y0220850D01*
X0206961Y0222302D02*
X0207929Y0222302D01*
X0208413Y0221818D01*
X0209424Y0222302D02*
X0209424Y0220850D01*
X0209908Y0220367D01*
X0211359Y0220367D01*
X0211359Y0219883D02*
X0210875Y0219399D01*
X0210392Y0219399D01*
X0211359Y0219883D02*
X0211359Y0222302D01*
X0215317Y0221818D02*
X0217252Y0221818D01*
X0221210Y0221334D02*
X0221210Y0223269D01*
X0221210Y0221334D02*
X0222178Y0220367D01*
X0223145Y0221334D01*
X0223145Y0223269D01*
X0224157Y0222785D02*
X0224640Y0223269D01*
X0225608Y0223269D01*
X0226092Y0222785D01*
X0226092Y0222302D01*
X0224157Y0220367D01*
X0226092Y0220367D01*
X0227103Y0220367D02*
X0227587Y0220367D01*
X0227587Y0220850D01*
X0227103Y0220850D01*
X0227103Y0220367D01*
X0228576Y0220850D02*
X0230511Y0222785D01*
X0230511Y0220850D01*
X0230028Y0220367D01*
X0229060Y0220367D01*
X0228576Y0220850D01*
X0228576Y0222785D01*
X0229060Y0223269D01*
X0230028Y0223269D01*
X0230511Y0222785D01*
X0231523Y0222785D02*
X0232007Y0223269D01*
X0232974Y0223269D01*
X0233458Y0222785D01*
X0231523Y0220850D01*
X0232007Y0220367D01*
X0232974Y0220367D01*
X0233458Y0220850D01*
X0233458Y0222785D01*
X0231523Y0222785D02*
X0231523Y0220850D01*
X0237416Y0221818D02*
X0239351Y0221818D01*
X0243309Y0222785D02*
X0243793Y0223269D01*
X0244760Y0223269D01*
X0245244Y0222785D01*
X0245244Y0222302D01*
X0243309Y0220367D01*
X0245244Y0220367D01*
X0246256Y0220850D02*
X0246739Y0220367D01*
X0247707Y0220367D01*
X0248191Y0220850D01*
X0248191Y0221818D01*
X0247707Y0222302D01*
X0247223Y0222302D01*
X0246256Y0221818D01*
X0246256Y0223269D01*
X0248191Y0223269D01*
X0249202Y0220850D02*
X0249686Y0220850D01*
X0249686Y0220367D01*
X0249202Y0220367D01*
X0249202Y0220850D01*
X0250675Y0220367D02*
X0252610Y0220367D01*
X0251643Y0220367D02*
X0251643Y0223269D01*
X0250675Y0222302D01*
X0253622Y0222785D02*
X0253622Y0220850D01*
X0255557Y0222785D01*
X0255557Y0220850D01*
X0255073Y0220367D01*
X0254106Y0220367D01*
X0253622Y0220850D01*
X0253622Y0222785D02*
X0254106Y0223269D01*
X0255073Y0223269D01*
X0255557Y0222785D01*
X0256568Y0220850D02*
X0257052Y0220850D01*
X0257052Y0220367D01*
X0256568Y0220367D01*
X0256568Y0220850D01*
X0258042Y0220367D02*
X0259977Y0222302D01*
X0259977Y0222785D01*
X0259493Y0223269D01*
X0258525Y0223269D01*
X0258042Y0222785D01*
X0258042Y0220367D02*
X0259977Y0220367D01*
X0260988Y0220850D02*
X0262923Y0222785D01*
X0262923Y0220850D01*
X0262439Y0220367D01*
X0261472Y0220367D01*
X0260988Y0220850D01*
X0260988Y0222785D01*
X0261472Y0223269D01*
X0262439Y0223269D01*
X0262923Y0222785D01*
X0263935Y0222302D02*
X0264902Y0223269D01*
X0264902Y0220367D01*
X0263935Y0220367D02*
X0265870Y0220367D01*
X0266881Y0220850D02*
X0267365Y0220367D01*
X0268332Y0220367D01*
X0268816Y0220850D01*
X0268816Y0221334D01*
X0268332Y0221818D01*
X0266881Y0221818D01*
X0266881Y0220850D01*
X0266881Y0221818D02*
X0267849Y0222785D01*
X0268816Y0223269D01*
X0269552Y0214341D02*
X0269552Y0211438D01*
X0270519Y0211438D02*
X0268584Y0211438D01*
X0267573Y0211438D02*
X0265638Y0214341D01*
X0267573Y0214341D02*
X0265638Y0211438D01*
X0268584Y0213373D02*
X0269552Y0214341D01*
X0271531Y0213857D02*
X0272015Y0214341D01*
X0272982Y0214341D01*
X0273466Y0213857D01*
X0273466Y0213373D01*
X0272982Y0212889D01*
X0273466Y0212406D01*
X0273466Y0211922D01*
X0272982Y0211438D01*
X0272015Y0211438D01*
X0271531Y0211922D01*
X0272498Y0212889D02*
X0272982Y0212889D01*
X0279881Y0210390D02*
X0280365Y0210874D01*
X0281332Y0210874D01*
X0281816Y0210390D01*
X0280849Y0210390D01*
X0280849Y0209422D01*
X0281816Y0209422D01*
X0281816Y0210390D01*
X0282300Y0210874D02*
X0282784Y0210390D01*
X0282784Y0209422D01*
X0282300Y0208939D01*
X0280365Y0208939D01*
X0279881Y0209422D01*
X0279881Y0210390D01*
X0280849Y0211885D02*
X0280849Y0213336D01*
X0281332Y0213820D01*
X0282784Y0213820D01*
X0282784Y0214832D02*
X0280849Y0214832D01*
X0280849Y0216283D01*
X0281332Y0216767D01*
X0282784Y0216767D01*
X0282300Y0217778D02*
X0281332Y0217778D01*
X0280849Y0218262D01*
X0280849Y0219229D01*
X0281332Y0219713D01*
X0281816Y0219713D01*
X0281816Y0217778D01*
X0282300Y0217778D02*
X0282784Y0218262D01*
X0282784Y0219229D01*
X0282784Y0211885D02*
X0280849Y0211885D01*
X0281332Y0207942D02*
X0281332Y0206974D01*
X0281332Y0205963D02*
X0281816Y0205479D01*
X0281816Y0204028D01*
X0282784Y0204028D02*
X0279881Y0204028D01*
X0279881Y0205479D01*
X0280365Y0205963D01*
X0281332Y0205963D01*
X0280365Y0207458D02*
X0279881Y0207942D01*
X0280365Y0207458D02*
X0282784Y0207458D01*
X0282784Y0200070D02*
X0282784Y0198619D01*
X0282300Y0198135D01*
X0280849Y0198135D01*
X0281332Y0197123D02*
X0280849Y0196639D01*
X0280849Y0195188D01*
X0279881Y0195188D02*
X0282784Y0195188D01*
X0282784Y0196639D01*
X0282300Y0197123D01*
X0281332Y0197123D01*
X0280849Y0200070D02*
X0283267Y0200070D01*
X0283751Y0199586D01*
X0283751Y0199102D01*
X0281816Y0191245D02*
X0280849Y0191245D01*
X0279881Y0190277D01*
X0280849Y0189266D02*
X0280849Y0187815D01*
X0281332Y0187331D01*
X0282300Y0187331D01*
X0282784Y0187815D01*
X0282784Y0189266D01*
X0282784Y0190277D02*
X0281816Y0191245D01*
X0282784Y0186334D02*
X0281816Y0185367D01*
X0280849Y0185367D01*
X0279881Y0186334D01*
X0285638Y0174341D02*
X0287573Y0171438D01*
X0288584Y0171438D02*
X0290519Y0171438D01*
X0289552Y0171438D02*
X0289552Y0174341D01*
X0288584Y0173373D01*
X0287573Y0174341D02*
X0285638Y0171438D01*
X0291531Y0171922D02*
X0293466Y0173857D01*
X0293466Y0171922D01*
X0292982Y0171438D01*
X0292015Y0171438D01*
X0291531Y0171922D01*
X0291531Y0173857D01*
X0292015Y0174341D01*
X0292982Y0174341D01*
X0293466Y0173857D01*
X0304385Y0173412D02*
X0304385Y0172445D01*
X0304869Y0171961D01*
X0304385Y0173412D02*
X0304869Y0173896D01*
X0305353Y0173896D01*
X0307288Y0171961D01*
X0307288Y0173896D01*
X0306804Y0181961D02*
X0307288Y0182445D01*
X0307288Y0183412D01*
X0306804Y0183896D01*
X0306320Y0183896D01*
X0305836Y0183412D01*
X0305836Y0182929D01*
X0305836Y0183412D02*
X0305353Y0183896D01*
X0304869Y0183896D01*
X0304385Y0183412D01*
X0304385Y0182445D01*
X0304869Y0181961D01*
X0310638Y0193938D02*
X0312573Y0196841D01*
X0313584Y0195873D02*
X0314552Y0196841D01*
X0314552Y0193938D01*
X0315519Y0193938D02*
X0313584Y0193938D01*
X0312573Y0193938D02*
X0310638Y0196841D01*
X0316531Y0195389D02*
X0318466Y0195389D01*
X0317982Y0193938D02*
X0317982Y0196841D01*
X0316531Y0195389D01*
X0327369Y0183896D02*
X0327853Y0183896D01*
X0328336Y0183412D01*
X0328820Y0183896D01*
X0329304Y0183896D01*
X0329788Y0183412D01*
X0329788Y0182445D01*
X0329304Y0181961D01*
X0328336Y0182929D02*
X0328336Y0183412D01*
X0327369Y0183896D02*
X0326885Y0183412D01*
X0326885Y0182445D01*
X0327369Y0181961D01*
X0327369Y0173896D02*
X0326885Y0173412D01*
X0326885Y0172445D01*
X0327369Y0171961D01*
X0327369Y0173896D02*
X0327853Y0173896D01*
X0329788Y0171961D01*
X0329788Y0173896D01*
X0329788Y0162616D02*
X0329788Y0160681D01*
X0329788Y0161649D02*
X0326885Y0161649D01*
X0327853Y0160681D01*
X0332381Y0148267D02*
X0334316Y0148267D01*
X0335284Y0147299D01*
X0334316Y0146332D01*
X0332381Y0146332D01*
X0332865Y0145320D02*
X0332381Y0144836D01*
X0332381Y0143869D01*
X0332865Y0143385D01*
X0334800Y0143385D01*
X0332865Y0145320D01*
X0334800Y0145320D01*
X0335284Y0144836D01*
X0335284Y0143869D01*
X0334800Y0143385D01*
X0335284Y0142374D02*
X0335284Y0140439D01*
X0335284Y0141406D02*
X0332381Y0141406D01*
X0333349Y0140439D01*
X0333832Y0139427D02*
X0333832Y0137492D01*
X0332865Y0136481D02*
X0334800Y0134546D01*
X0335284Y0135029D01*
X0335284Y0135997D01*
X0334800Y0136481D01*
X0332865Y0136481D01*
X0332381Y0135997D01*
X0332381Y0135029D01*
X0332865Y0134546D01*
X0334800Y0134546D01*
X0337865Y0131481D02*
X0337381Y0130997D01*
X0337381Y0130029D01*
X0337865Y0129546D01*
X0339800Y0129546D01*
X0340284Y0130029D01*
X0340284Y0130997D01*
X0339800Y0131481D01*
X0339800Y0128534D02*
X0337865Y0128534D01*
X0337381Y0128050D01*
X0337381Y0126599D01*
X0340284Y0126599D01*
X0340284Y0128050D01*
X0339800Y0128534D01*
X0339316Y0125588D02*
X0337381Y0125588D01*
X0339316Y0125588D02*
X0340284Y0124620D01*
X0339316Y0123653D01*
X0337381Y0123653D01*
X0337865Y0122641D02*
X0339800Y0120706D01*
X0340284Y0121190D01*
X0340284Y0122157D01*
X0339800Y0122641D01*
X0337865Y0122641D01*
X0337381Y0122157D01*
X0337381Y0121190D01*
X0337865Y0120706D01*
X0339800Y0120706D01*
X0339800Y0119695D02*
X0340284Y0119211D01*
X0340284Y0118243D01*
X0339800Y0117760D01*
X0338832Y0118727D02*
X0338832Y0119211D01*
X0339316Y0119695D01*
X0339800Y0119695D01*
X0338832Y0119211D02*
X0338349Y0119695D01*
X0337865Y0119695D01*
X0337381Y0119211D01*
X0337381Y0118243D01*
X0337865Y0117760D01*
X0338832Y0116748D02*
X0338832Y0114813D01*
X0339316Y0113802D02*
X0338832Y0113318D01*
X0338832Y0111867D01*
X0339800Y0111867D01*
X0340284Y0112350D01*
X0340284Y0113318D01*
X0339800Y0113802D01*
X0339316Y0113802D01*
X0337865Y0112834D02*
X0338832Y0111867D01*
X0337865Y0112834D02*
X0337381Y0113802D01*
X0333832Y0116867D02*
X0333832Y0118802D01*
X0332865Y0117834D02*
X0334800Y0117834D01*
X0333832Y0125706D02*
X0333832Y0127641D01*
X0337865Y0138385D02*
X0339800Y0138385D01*
X0340284Y0138869D01*
X0340284Y0139836D01*
X0339800Y0140320D01*
X0337865Y0140320D01*
X0337381Y0139836D01*
X0337381Y0138869D01*
X0337865Y0138385D01*
X0337381Y0141332D02*
X0339800Y0141332D01*
X0340284Y0141815D01*
X0340284Y0142783D01*
X0339800Y0143267D01*
X0337381Y0143267D01*
X0337381Y0144278D02*
X0337381Y0146213D01*
X0337381Y0145246D02*
X0340284Y0145246D01*
X0316288Y0139912D02*
X0316288Y0138945D01*
X0315804Y0138461D01*
X0314836Y0139429D02*
X0314836Y0139912D01*
X0315320Y0140396D01*
X0315804Y0140396D01*
X0316288Y0139912D01*
X0314836Y0139912D02*
X0314353Y0140396D01*
X0313869Y0140396D01*
X0313385Y0139912D01*
X0313385Y0138945D01*
X0313869Y0138461D01*
X0313869Y0130396D02*
X0313385Y0129912D01*
X0313385Y0128945D01*
X0313869Y0128461D01*
X0313869Y0130396D02*
X0314353Y0130396D01*
X0316288Y0128461D01*
X0316288Y0130396D01*
X0316288Y0119116D02*
X0316288Y0117181D01*
X0316288Y0118149D02*
X0313385Y0118149D01*
X0314353Y0117181D01*
X0306804Y0096396D02*
X0307288Y0095912D01*
X0307288Y0094945D01*
X0306804Y0094461D01*
X0305836Y0095429D02*
X0305836Y0095912D01*
X0306320Y0096396D01*
X0306804Y0096396D01*
X0305836Y0095912D02*
X0305353Y0096396D01*
X0304869Y0096396D01*
X0304385Y0095912D01*
X0304385Y0094945D01*
X0304869Y0094461D01*
X0304869Y0086396D02*
X0304385Y0085912D01*
X0304385Y0084945D01*
X0304869Y0084461D01*
X0304869Y0086396D02*
X0305353Y0086396D01*
X0307288Y0084461D01*
X0307288Y0086396D01*
X0293466Y0087889D02*
X0291531Y0087889D01*
X0292982Y0089341D01*
X0292982Y0086438D01*
X0290519Y0086438D02*
X0288584Y0089341D01*
X0290519Y0089341D02*
X0288584Y0086438D01*
X0284788Y0098181D02*
X0284788Y0100116D01*
X0284788Y0099149D02*
X0281885Y0099149D01*
X0282853Y0098181D01*
X0273466Y0088857D02*
X0273466Y0088373D01*
X0272982Y0087889D01*
X0273466Y0087406D01*
X0273466Y0086922D01*
X0272982Y0086438D01*
X0272015Y0086438D01*
X0271531Y0086922D01*
X0270519Y0086438D02*
X0268584Y0089341D01*
X0270519Y0089341D02*
X0268584Y0086438D01*
X0271531Y0088857D02*
X0272015Y0089341D01*
X0272982Y0089341D01*
X0273466Y0088857D01*
X0272982Y0087889D02*
X0272498Y0087889D01*
X0262288Y0098181D02*
X0262288Y0100116D01*
X0262288Y0099149D02*
X0259385Y0099149D01*
X0260353Y0098181D01*
X0250966Y0088857D02*
X0250482Y0089341D01*
X0249515Y0089341D01*
X0249031Y0088857D01*
X0248019Y0089341D02*
X0246084Y0086438D01*
X0248019Y0086438D02*
X0246084Y0089341D01*
X0249031Y0086438D02*
X0250966Y0088373D01*
X0250966Y0088857D01*
X0250966Y0086438D02*
X0249031Y0086438D01*
X0244788Y0075912D02*
X0241885Y0075912D01*
X0243336Y0074461D01*
X0243336Y0076396D01*
X0228466Y0086438D02*
X0226531Y0086438D01*
X0227498Y0086438D02*
X0227498Y0089341D01*
X0226531Y0088373D01*
X0225519Y0089341D02*
X0223584Y0086438D01*
X0225519Y0086438D02*
X0223584Y0089341D01*
X0217288Y0098181D02*
X0217288Y0100116D01*
X0217288Y0099149D02*
X0214385Y0099149D01*
X0215353Y0098181D01*
X0214869Y0109461D02*
X0214385Y0109945D01*
X0214385Y0110912D01*
X0214869Y0111396D01*
X0215353Y0111396D01*
X0217288Y0109461D01*
X0217288Y0111396D01*
X0216804Y0119461D02*
X0217288Y0119945D01*
X0217288Y0120912D01*
X0216804Y0121396D01*
X0216320Y0121396D01*
X0215836Y0120912D01*
X0215836Y0120429D01*
X0215836Y0120912D02*
X0215353Y0121396D01*
X0214869Y0121396D01*
X0214385Y0120912D01*
X0214385Y0119945D01*
X0214869Y0119461D01*
X0236885Y0119945D02*
X0236885Y0120912D01*
X0237369Y0121396D01*
X0237853Y0121396D01*
X0238336Y0120912D01*
X0238820Y0121396D01*
X0239304Y0121396D01*
X0239788Y0120912D01*
X0239788Y0119945D01*
X0239304Y0119461D01*
X0238336Y0120429D02*
X0238336Y0120912D01*
X0237369Y0119461D02*
X0236885Y0119945D01*
X0237369Y0111396D02*
X0236885Y0110912D01*
X0236885Y0109945D01*
X0237369Y0109461D01*
X0237369Y0111396D02*
X0237853Y0111396D01*
X0239788Y0109461D01*
X0239788Y0111396D01*
X0239788Y0100116D02*
X0239788Y0098181D01*
X0239788Y0099149D02*
X0236885Y0099149D01*
X0237853Y0098181D01*
X0259385Y0109945D02*
X0259869Y0109461D01*
X0259385Y0109945D02*
X0259385Y0110912D01*
X0259869Y0111396D01*
X0260353Y0111396D01*
X0262288Y0109461D01*
X0262288Y0111396D01*
X0261804Y0119461D02*
X0262288Y0119945D01*
X0262288Y0120912D01*
X0261804Y0121396D01*
X0261320Y0121396D01*
X0260836Y0120912D01*
X0260836Y0120429D01*
X0260836Y0120912D02*
X0260353Y0121396D01*
X0259869Y0121396D01*
X0259385Y0120912D01*
X0259385Y0119945D01*
X0259869Y0119461D01*
X0258055Y0132473D02*
X0255153Y0134408D01*
X0255637Y0135419D02*
X0256120Y0135419D01*
X0256604Y0135903D01*
X0256604Y0137354D01*
X0255637Y0137354D02*
X0255153Y0136871D01*
X0255153Y0135903D01*
X0255637Y0135419D01*
X0257572Y0135419D02*
X0258055Y0135903D01*
X0258055Y0136871D01*
X0257572Y0137354D01*
X0255637Y0137354D01*
X0258055Y0134408D02*
X0255153Y0132473D01*
X0260353Y0138181D02*
X0259385Y0139149D01*
X0262288Y0139149D01*
X0262288Y0140116D02*
X0262288Y0138181D01*
X0262288Y0149461D02*
X0260353Y0151396D01*
X0259869Y0151396D01*
X0259385Y0150912D01*
X0259385Y0149945D01*
X0259869Y0149461D01*
X0262288Y0149461D02*
X0262288Y0151396D01*
X0261804Y0159461D02*
X0262288Y0159945D01*
X0262288Y0160912D01*
X0261804Y0161396D01*
X0261320Y0161396D01*
X0260836Y0160912D01*
X0260836Y0160429D01*
X0260836Y0160912D02*
X0260353Y0161396D01*
X0259869Y0161396D01*
X0259385Y0160912D01*
X0259385Y0159945D01*
X0259869Y0159461D01*
X0239788Y0159945D02*
X0239304Y0159461D01*
X0239788Y0159945D02*
X0239788Y0160912D01*
X0239304Y0161396D01*
X0238820Y0161396D01*
X0238336Y0160912D01*
X0238336Y0160429D01*
X0238336Y0160912D02*
X0237853Y0161396D01*
X0237369Y0161396D01*
X0236885Y0160912D01*
X0236885Y0159945D01*
X0237369Y0159461D01*
X0237369Y0151396D02*
X0236885Y0150912D01*
X0236885Y0149945D01*
X0237369Y0149461D01*
X0237369Y0151396D02*
X0237853Y0151396D01*
X0239788Y0149461D01*
X0239788Y0151396D01*
X0239788Y0140116D02*
X0239788Y0138181D01*
X0239788Y0139149D02*
X0236885Y0139149D01*
X0237853Y0138181D01*
X0235555Y0136871D02*
X0235555Y0135903D01*
X0235072Y0135419D01*
X0234588Y0135419D01*
X0234104Y0135903D01*
X0234104Y0136871D01*
X0234588Y0137354D01*
X0235072Y0137354D01*
X0235555Y0136871D01*
X0234104Y0136871D02*
X0233620Y0137354D01*
X0233137Y0137354D01*
X0232653Y0136871D01*
X0232653Y0135903D01*
X0233137Y0135419D01*
X0233620Y0135419D01*
X0234104Y0135903D01*
X0232653Y0134408D02*
X0235555Y0132473D01*
X0235555Y0134408D02*
X0232653Y0132473D01*
X0217288Y0138181D02*
X0217288Y0140116D01*
X0217288Y0139149D02*
X0214385Y0139149D01*
X0215353Y0138181D01*
X0208055Y0137919D02*
X0207572Y0137919D01*
X0205637Y0139854D01*
X0205153Y0139854D01*
X0205153Y0137919D01*
X0205153Y0136908D02*
X0208055Y0134973D01*
X0208055Y0136908D02*
X0205153Y0134973D01*
X0214869Y0149461D02*
X0214385Y0149945D01*
X0214385Y0150912D01*
X0214869Y0151396D01*
X0215353Y0151396D01*
X0217288Y0149461D01*
X0217288Y0151396D01*
X0216804Y0159461D02*
X0217288Y0159945D01*
X0217288Y0160912D01*
X0216804Y0161396D01*
X0216320Y0161396D01*
X0215836Y0160912D01*
X0215836Y0160429D01*
X0215836Y0160912D02*
X0215353Y0161396D01*
X0214869Y0161396D01*
X0214385Y0160912D01*
X0214385Y0159945D01*
X0214869Y0159461D01*
X0194925Y0172017D02*
X0193524Y0172017D01*
X0194224Y0172017D02*
X0194224Y0174118D01*
X0193524Y0173418D01*
X0192715Y0174118D02*
X0191314Y0174118D01*
X0191314Y0172017D01*
X0191314Y0173067D02*
X0192015Y0173067D01*
X0190505Y0173067D02*
X0190155Y0172717D01*
X0189104Y0172717D01*
X0189104Y0172017D02*
X0189104Y0174118D01*
X0190155Y0174118D01*
X0190505Y0173768D01*
X0190505Y0173067D01*
X0214385Y0179149D02*
X0217288Y0179149D01*
X0217288Y0180116D02*
X0217288Y0178181D01*
X0215353Y0178181D02*
X0214385Y0179149D01*
X0214869Y0189461D02*
X0214385Y0189945D01*
X0214385Y0190912D01*
X0214869Y0191396D01*
X0215353Y0191396D01*
X0217288Y0189461D01*
X0217288Y0191396D01*
X0216804Y0199461D02*
X0217288Y0199945D01*
X0217288Y0200912D01*
X0216804Y0201396D01*
X0216320Y0201396D01*
X0215836Y0200912D01*
X0215836Y0200429D01*
X0215836Y0200912D02*
X0215353Y0201396D01*
X0214869Y0201396D01*
X0214385Y0200912D01*
X0214385Y0199945D01*
X0214869Y0199461D01*
X0220638Y0211438D02*
X0222573Y0214341D01*
X0223584Y0213373D02*
X0224552Y0214341D01*
X0224552Y0211438D01*
X0225519Y0211438D02*
X0223584Y0211438D01*
X0222573Y0211438D02*
X0220638Y0214341D01*
X0226531Y0213373D02*
X0227498Y0214341D01*
X0227498Y0211438D01*
X0226531Y0211438D02*
X0228466Y0211438D01*
X0243138Y0211438D02*
X0245073Y0214341D01*
X0246084Y0213373D02*
X0247052Y0214341D01*
X0247052Y0211438D01*
X0248019Y0211438D02*
X0246084Y0211438D01*
X0245073Y0211438D02*
X0243138Y0214341D01*
X0249031Y0213857D02*
X0249515Y0214341D01*
X0250482Y0214341D01*
X0250966Y0213857D01*
X0250966Y0213373D01*
X0249031Y0211438D01*
X0250966Y0211438D01*
X0259869Y0201396D02*
X0260353Y0201396D01*
X0260836Y0200912D01*
X0261320Y0201396D01*
X0261804Y0201396D01*
X0262288Y0200912D01*
X0262288Y0199945D01*
X0261804Y0199461D01*
X0260836Y0200429D02*
X0260836Y0200912D01*
X0259869Y0201396D02*
X0259385Y0200912D01*
X0259385Y0199945D01*
X0259869Y0199461D01*
X0259869Y0191396D02*
X0259385Y0190912D01*
X0259385Y0189945D01*
X0259869Y0189461D01*
X0259869Y0191396D02*
X0260353Y0191396D01*
X0262288Y0189461D01*
X0262288Y0191396D01*
X0262288Y0180116D02*
X0262288Y0178181D01*
X0262288Y0179149D02*
X0259385Y0179149D01*
X0260353Y0178181D01*
X0239788Y0178181D02*
X0239788Y0180116D01*
X0239788Y0179149D02*
X0236885Y0179149D01*
X0237853Y0178181D01*
X0237369Y0189461D02*
X0236885Y0189945D01*
X0236885Y0190912D01*
X0237369Y0191396D01*
X0237853Y0191396D01*
X0239788Y0189461D01*
X0239788Y0191396D01*
X0239304Y0199461D02*
X0239788Y0199945D01*
X0239788Y0200912D01*
X0239304Y0201396D01*
X0238820Y0201396D01*
X0238336Y0200912D01*
X0238336Y0200429D01*
X0238336Y0200912D02*
X0237853Y0201396D01*
X0237369Y0201396D01*
X0236885Y0200912D01*
X0236885Y0199945D01*
X0237369Y0199461D01*
X0188769Y0222785D02*
X0188285Y0223269D01*
X0187318Y0223269D01*
X0186834Y0222785D01*
X0186834Y0220850D01*
X0281885Y0160912D02*
X0281885Y0159945D01*
X0282369Y0159461D01*
X0283336Y0160429D02*
X0283336Y0160912D01*
X0283820Y0161396D01*
X0284304Y0161396D01*
X0284788Y0160912D01*
X0284788Y0159945D01*
X0284304Y0159461D01*
X0283336Y0160912D02*
X0282853Y0161396D01*
X0282369Y0161396D01*
X0281885Y0160912D01*
X0282369Y0151396D02*
X0281885Y0150912D01*
X0281885Y0149945D01*
X0282369Y0149461D01*
X0282369Y0151396D02*
X0282853Y0151396D01*
X0284788Y0149461D01*
X0284788Y0151396D01*
X0284788Y0140116D02*
X0284788Y0138181D01*
X0284788Y0139149D02*
X0281885Y0139149D01*
X0282853Y0138181D01*
X0282853Y0121396D02*
X0283336Y0120912D01*
X0283820Y0121396D01*
X0284304Y0121396D01*
X0284788Y0120912D01*
X0284788Y0119945D01*
X0284304Y0119461D01*
X0283336Y0120429D02*
X0283336Y0120912D01*
X0282853Y0121396D02*
X0282369Y0121396D01*
X0281885Y0120912D01*
X0281885Y0119945D01*
X0282369Y0119461D01*
X0282369Y0111396D02*
X0281885Y0110912D01*
X0281885Y0109945D01*
X0282369Y0109461D01*
X0282369Y0111396D02*
X0282853Y0111396D01*
X0284788Y0109461D01*
X0284788Y0111396D01*
X0326885Y0095912D02*
X0326885Y0094945D01*
X0327369Y0094461D01*
X0328336Y0095429D02*
X0328336Y0095912D01*
X0328820Y0096396D01*
X0329304Y0096396D01*
X0329788Y0095912D01*
X0329788Y0094945D01*
X0329304Y0094461D01*
X0328336Y0095912D02*
X0327853Y0096396D01*
X0327369Y0096396D01*
X0326885Y0095912D01*
X0327369Y0086396D02*
X0326885Y0085912D01*
X0326885Y0084945D01*
X0327369Y0084461D01*
X0327369Y0086396D02*
X0327853Y0086396D01*
X0329788Y0084461D01*
X0329788Y0086396D01*
X0329788Y0075116D02*
X0329788Y0073181D01*
X0329788Y0074149D02*
X0326885Y0074149D01*
X0327853Y0073181D01*
X0336084Y0064341D02*
X0338019Y0061438D01*
X0339031Y0061922D02*
X0339515Y0061438D01*
X0340482Y0061438D01*
X0340966Y0061922D01*
X0340966Y0062406D01*
X0340482Y0062889D01*
X0339031Y0062889D01*
X0339031Y0061922D01*
X0339031Y0062889D02*
X0339998Y0063857D01*
X0340966Y0064341D01*
X0338019Y0064341D02*
X0336084Y0061438D01*
X0318466Y0061922D02*
X0317982Y0061438D01*
X0317015Y0061438D01*
X0316531Y0061922D01*
X0316531Y0062889D02*
X0317498Y0063373D01*
X0317982Y0063373D01*
X0318466Y0062889D01*
X0318466Y0061922D01*
X0316531Y0062889D02*
X0316531Y0064341D01*
X0318466Y0064341D01*
X0315519Y0064341D02*
X0313584Y0061438D01*
X0315519Y0061438D02*
X0313584Y0064341D01*
X0307288Y0073181D02*
X0307288Y0075116D01*
X0307288Y0074149D02*
X0304385Y0074149D01*
X0305353Y0073181D01*
X0293444Y0068269D02*
X0293444Y0065367D01*
X0292477Y0065367D02*
X0294412Y0065367D01*
X0292477Y0067302D02*
X0293444Y0068269D01*
X0291465Y0068269D02*
X0291465Y0065367D01*
X0289530Y0068269D01*
X0289530Y0065367D01*
X0288519Y0065367D02*
X0287551Y0066334D01*
X0288035Y0066334D02*
X0286584Y0066334D01*
X0286584Y0065367D02*
X0286584Y0068269D01*
X0288035Y0068269D01*
X0288519Y0067785D01*
X0288519Y0066818D01*
X0288035Y0066334D01*
X0267288Y0065912D02*
X0267288Y0064945D01*
X0266804Y0064461D01*
X0265836Y0065429D02*
X0265836Y0065912D01*
X0266320Y0066396D01*
X0266804Y0066396D01*
X0267288Y0065912D01*
X0265836Y0065912D02*
X0265353Y0066396D01*
X0264869Y0066396D01*
X0264385Y0065912D01*
X0264385Y0064945D01*
X0264869Y0064461D01*
X0264869Y0056396D02*
X0264385Y0055912D01*
X0264385Y0054945D01*
X0264869Y0054461D01*
X0264869Y0056396D02*
X0265353Y0056396D01*
X0267288Y0054461D01*
X0267288Y0056396D01*
X0267288Y0045116D02*
X0267288Y0043181D01*
X0267288Y0044149D02*
X0264385Y0044149D01*
X0265353Y0043181D01*
X0270638Y0034341D02*
X0272573Y0031438D01*
X0273584Y0031438D02*
X0275519Y0033373D01*
X0275519Y0033857D01*
X0275036Y0034341D01*
X0274068Y0034341D01*
X0273584Y0033857D01*
X0272573Y0034341D02*
X0270638Y0031438D01*
X0273584Y0031438D02*
X0275519Y0031438D01*
X0276531Y0031438D02*
X0278466Y0033373D01*
X0278466Y0033857D01*
X0277982Y0034341D01*
X0277015Y0034341D01*
X0276531Y0033857D01*
X0276531Y0031438D02*
X0278466Y0031438D01*
X0255966Y0031438D02*
X0254031Y0031438D01*
X0254998Y0031438D02*
X0254998Y0034341D01*
X0254031Y0033373D01*
X0253019Y0033373D02*
X0253019Y0033857D01*
X0252536Y0034341D01*
X0251568Y0034341D01*
X0251084Y0033857D01*
X0250073Y0034341D02*
X0248138Y0031438D01*
X0250073Y0031438D02*
X0248138Y0034341D01*
X0251084Y0031438D02*
X0253019Y0033373D01*
X0253019Y0031438D02*
X0251084Y0031438D01*
X0244788Y0043181D02*
X0244788Y0045116D01*
X0244788Y0044149D02*
X0241885Y0044149D01*
X0242853Y0043181D01*
X0233466Y0033857D02*
X0231531Y0031922D01*
X0232015Y0031438D01*
X0232982Y0031438D01*
X0233466Y0031922D01*
X0233466Y0033857D01*
X0232982Y0034341D01*
X0232015Y0034341D01*
X0231531Y0033857D01*
X0231531Y0031922D01*
X0230519Y0031438D02*
X0228584Y0031438D01*
X0230519Y0033373D01*
X0230519Y0033857D01*
X0230036Y0034341D01*
X0229068Y0034341D01*
X0228584Y0033857D01*
X0227573Y0034341D02*
X0225638Y0031438D01*
X0227573Y0031438D02*
X0225638Y0034341D01*
X0222288Y0043181D02*
X0222288Y0045116D01*
X0222288Y0044149D02*
X0219385Y0044149D01*
X0220353Y0043181D01*
X0219869Y0054461D02*
X0219385Y0054945D01*
X0219385Y0055912D01*
X0219869Y0056396D01*
X0220353Y0056396D01*
X0222288Y0054461D01*
X0222288Y0056396D01*
X0221804Y0064461D02*
X0222288Y0064945D01*
X0222288Y0065912D01*
X0221804Y0066396D01*
X0221320Y0066396D01*
X0220836Y0065912D01*
X0220836Y0065429D01*
X0220836Y0065912D02*
X0220353Y0066396D01*
X0219869Y0066396D01*
X0219385Y0065912D01*
X0219385Y0064945D01*
X0219869Y0064461D01*
X0220836Y0074461D02*
X0220836Y0076396D01*
X0219385Y0075912D02*
X0220836Y0074461D01*
X0222288Y0075912D02*
X0219385Y0075912D01*
X0241885Y0065912D02*
X0242369Y0066396D01*
X0242853Y0066396D01*
X0243336Y0065912D01*
X0243820Y0066396D01*
X0244304Y0066396D01*
X0244788Y0065912D01*
X0244788Y0064945D01*
X0244304Y0064461D01*
X0243336Y0065429D02*
X0243336Y0065912D01*
X0241885Y0065912D02*
X0241885Y0064945D01*
X0242369Y0064461D01*
X0242369Y0056396D02*
X0241885Y0055912D01*
X0241885Y0054945D01*
X0242369Y0054461D01*
X0242369Y0056396D02*
X0242853Y0056396D01*
X0244788Y0054461D01*
X0244788Y0056396D01*
X0264385Y0075912D02*
X0265836Y0074461D01*
X0265836Y0076396D01*
X0264385Y0075912D02*
X0267288Y0075912D01*
X0205966Y0033857D02*
X0205482Y0034341D01*
X0204515Y0034341D01*
X0204031Y0033857D01*
X0204031Y0033373D01*
X0204515Y0032889D01*
X0205966Y0032889D01*
X0205966Y0031922D02*
X0205966Y0033857D01*
X0205966Y0031922D02*
X0205482Y0031438D01*
X0204515Y0031438D01*
X0204031Y0031922D01*
X0203019Y0031438D02*
X0201084Y0031438D01*
X0202052Y0031438D02*
X0202052Y0034341D01*
X0201084Y0033373D01*
X0200073Y0034341D02*
X0198138Y0031438D01*
X0200073Y0031438D02*
X0198138Y0034341D01*
X0194788Y0043181D02*
X0194788Y0045116D01*
X0194788Y0044149D02*
X0191885Y0044149D01*
X0192853Y0043181D01*
X0183466Y0033857D02*
X0183466Y0033373D01*
X0182982Y0032889D01*
X0182015Y0032889D01*
X0181531Y0033373D01*
X0181531Y0033857D01*
X0182015Y0034341D01*
X0182982Y0034341D01*
X0183466Y0033857D01*
X0182982Y0032889D02*
X0183466Y0032406D01*
X0183466Y0031922D01*
X0182982Y0031438D01*
X0182015Y0031438D01*
X0181531Y0031922D01*
X0181531Y0032406D01*
X0182015Y0032889D01*
X0180519Y0031438D02*
X0178584Y0031438D01*
X0179552Y0031438D02*
X0179552Y0034341D01*
X0178584Y0033373D01*
X0177573Y0034341D02*
X0175638Y0031438D01*
X0177573Y0031438D02*
X0175638Y0034341D01*
X0172288Y0043181D02*
X0172288Y0045116D01*
X0172288Y0044149D02*
X0169385Y0044149D01*
X0170353Y0043181D01*
X0160966Y0034341D02*
X0159031Y0034341D01*
X0160966Y0034341D02*
X0160966Y0033857D01*
X0159031Y0031922D01*
X0159031Y0031438D01*
X0158019Y0031438D02*
X0156084Y0031438D01*
X0157052Y0031438D02*
X0157052Y0034341D01*
X0156084Y0033373D01*
X0155073Y0034341D02*
X0153138Y0031438D01*
X0155073Y0031438D02*
X0153138Y0034341D01*
X0149788Y0043181D02*
X0149788Y0045116D01*
X0149788Y0044149D02*
X0146885Y0044149D01*
X0147853Y0043181D01*
X0138466Y0034341D02*
X0137498Y0033857D01*
X0136531Y0032889D01*
X0137982Y0032889D01*
X0138466Y0032406D01*
X0138466Y0031922D01*
X0137982Y0031438D01*
X0137015Y0031438D01*
X0136531Y0031922D01*
X0136531Y0032889D01*
X0135519Y0031438D02*
X0133584Y0031438D01*
X0134552Y0031438D02*
X0134552Y0034341D01*
X0133584Y0033373D01*
X0132573Y0034341D02*
X0130638Y0031438D01*
X0132573Y0031438D02*
X0130638Y0034341D01*
X0127288Y0043181D02*
X0127288Y0045116D01*
X0127288Y0044149D02*
X0124385Y0044149D01*
X0125353Y0043181D01*
X0124869Y0054461D02*
X0124385Y0054945D01*
X0124385Y0055912D01*
X0124869Y0056396D01*
X0125353Y0056396D01*
X0127288Y0054461D01*
X0127288Y0056396D01*
X0126804Y0064461D02*
X0127288Y0064945D01*
X0127288Y0065912D01*
X0126804Y0066396D01*
X0126320Y0066396D01*
X0125836Y0065912D01*
X0125836Y0065429D01*
X0125836Y0065912D02*
X0125353Y0066396D01*
X0124869Y0066396D01*
X0124385Y0065912D01*
X0124385Y0064945D01*
X0124869Y0064461D01*
X0125836Y0074461D02*
X0125836Y0076396D01*
X0124385Y0075912D02*
X0125836Y0074461D01*
X0127288Y0075912D02*
X0124385Y0075912D01*
X0146885Y0075912D02*
X0148336Y0074461D01*
X0148336Y0076396D01*
X0146885Y0075912D02*
X0149788Y0075912D01*
X0149304Y0066396D02*
X0149788Y0065912D01*
X0149788Y0064945D01*
X0149304Y0064461D01*
X0148336Y0065429D02*
X0148336Y0065912D01*
X0148820Y0066396D01*
X0149304Y0066396D01*
X0148336Y0065912D02*
X0147853Y0066396D01*
X0147369Y0066396D01*
X0146885Y0065912D01*
X0146885Y0064945D01*
X0147369Y0064461D01*
X0147369Y0056396D02*
X0146885Y0055912D01*
X0146885Y0054945D01*
X0147369Y0054461D01*
X0147369Y0056396D02*
X0147853Y0056396D01*
X0149788Y0054461D01*
X0149788Y0056396D01*
X0169385Y0055912D02*
X0169385Y0054945D01*
X0169869Y0054461D01*
X0169385Y0055912D02*
X0169869Y0056396D01*
X0170353Y0056396D01*
X0172288Y0054461D01*
X0172288Y0056396D01*
X0171804Y0064461D02*
X0172288Y0064945D01*
X0172288Y0065912D01*
X0171804Y0066396D01*
X0171320Y0066396D01*
X0170836Y0065912D01*
X0170836Y0065429D01*
X0170836Y0065912D02*
X0170353Y0066396D01*
X0169869Y0066396D01*
X0169385Y0065912D01*
X0169385Y0064945D01*
X0169869Y0064461D01*
X0170836Y0074461D02*
X0170836Y0076396D01*
X0169385Y0075912D02*
X0170836Y0074461D01*
X0172288Y0075912D02*
X0169385Y0075912D01*
X0191885Y0075912D02*
X0193336Y0074461D01*
X0193336Y0076396D01*
X0191885Y0075912D02*
X0194788Y0075912D01*
X0194304Y0066396D02*
X0194788Y0065912D01*
X0194788Y0064945D01*
X0194304Y0064461D01*
X0193336Y0065429D02*
X0193336Y0065912D01*
X0193820Y0066396D01*
X0194304Y0066396D01*
X0193336Y0065912D02*
X0192853Y0066396D01*
X0192369Y0066396D01*
X0191885Y0065912D01*
X0191885Y0064945D01*
X0192369Y0064461D01*
X0192369Y0056396D02*
X0191885Y0055912D01*
X0191885Y0054945D01*
X0192369Y0054461D01*
X0192369Y0056396D02*
X0192853Y0056396D01*
X0194788Y0054461D01*
X0194788Y0056396D01*
X0304385Y0161649D02*
X0307288Y0161649D01*
X0307288Y0162616D02*
X0307288Y0160681D01*
X0305353Y0160681D02*
X0304385Y0161649D01*
X0333138Y0193938D02*
X0335073Y0196841D01*
X0336084Y0195873D02*
X0337052Y0196841D01*
X0337052Y0193938D01*
X0338019Y0193938D02*
X0336084Y0193938D01*
X0335073Y0193938D02*
X0333138Y0196841D01*
X0339031Y0196841D02*
X0339031Y0195389D01*
X0339998Y0195873D01*
X0340482Y0195873D01*
X0340966Y0195389D01*
X0340966Y0194422D01*
X0340482Y0193938D01*
X0339515Y0193938D01*
X0339031Y0194422D01*
X0339031Y0196841D02*
X0340966Y0196841D01*
D95*
X0183521Y0157276D02*
X0183521Y0134157D01*
X0167346Y0134157D01*
X0167346Y0157276D01*
X0183521Y0157276D01*
X0172485Y0159776D02*
X0171017Y0159776D01*
X0171751Y0159776D02*
X0171751Y0161977D01*
X0171017Y0161244D01*
X0170275Y0161610D02*
X0169908Y0161977D01*
X0169174Y0161977D01*
X0168807Y0161610D01*
X0168807Y0160143D01*
X0169174Y0159776D01*
X0169908Y0159776D01*
X0170275Y0160143D01*
X0168068Y0159776D02*
X0167334Y0159776D01*
X0167701Y0159776D02*
X0167701Y0161977D01*
X0167334Y0161977D02*
X0168068Y0161977D01*
X0090434Y0200684D02*
X0090067Y0200317D01*
X0088599Y0201784D01*
X0090067Y0201784D01*
X0090434Y0201417D01*
X0090434Y0200684D01*
X0090067Y0200317D02*
X0088599Y0200317D01*
X0088232Y0200684D01*
X0088232Y0201417D01*
X0088599Y0201784D01*
X0089333Y0202526D02*
X0089333Y0203994D01*
X0088966Y0204736D02*
X0088232Y0205470D01*
X0090434Y0205470D01*
X0090434Y0204736D02*
X0090434Y0206204D01*
X0090067Y0206946D02*
X0088599Y0208414D01*
X0090067Y0208414D01*
X0090434Y0208047D01*
X0090434Y0207313D01*
X0090067Y0206946D01*
X0088599Y0206946D01*
X0088232Y0207313D01*
X0088232Y0208047D01*
X0088599Y0208414D01*
X0088232Y0209156D02*
X0089700Y0209156D01*
X0090434Y0209890D01*
X0089700Y0210624D01*
X0088232Y0210624D01*
X0077621Y0207005D02*
X0077621Y0205537D01*
X0077621Y0206271D02*
X0075419Y0206271D01*
X0076153Y0205537D01*
X0075419Y0204795D02*
X0075419Y0203327D01*
X0075419Y0204061D02*
X0077621Y0204061D01*
X0077254Y0202585D02*
X0075786Y0202585D01*
X0075419Y0202218D01*
X0075419Y0201484D01*
X0075786Y0201117D01*
X0077254Y0201117D01*
X0077621Y0201484D01*
X0077621Y0202218D01*
X0077254Y0202585D01*
X0076520Y0200375D02*
X0075786Y0200375D01*
X0075419Y0200008D01*
X0075419Y0198907D01*
X0077621Y0198907D01*
X0076887Y0198907D02*
X0076887Y0200008D01*
X0076520Y0200375D01*
D96*
X0166446Y0158176D02*
X0184421Y0158176D01*
X0184421Y0133257D01*
X0166446Y0133257D01*
X0166446Y0158176D01*
X0168834Y0154676D02*
X0168836Y0154760D01*
X0168842Y0154845D01*
X0168852Y0154928D01*
X0168866Y0155012D01*
X0168883Y0155094D01*
X0168905Y0155176D01*
X0168930Y0155256D01*
X0168959Y0155335D01*
X0168992Y0155413D01*
X0169028Y0155489D01*
X0169068Y0155564D01*
X0169112Y0155636D01*
X0169158Y0155707D01*
X0169208Y0155775D01*
X0169261Y0155840D01*
X0169317Y0155903D01*
X0169376Y0155964D01*
X0169438Y0156021D01*
X0169502Y0156076D01*
X0169569Y0156127D01*
X0169638Y0156176D01*
X0169710Y0156221D01*
X0169783Y0156262D01*
X0169858Y0156300D01*
X0169935Y0156335D01*
X0170014Y0156366D01*
X0170094Y0156393D01*
X0170175Y0156416D01*
X0170257Y0156436D01*
X0170340Y0156452D01*
X0170423Y0156464D01*
X0170508Y0156472D01*
X0170592Y0156476D01*
X0170676Y0156476D01*
X0170760Y0156472D01*
X0170845Y0156464D01*
X0170928Y0156452D01*
X0171011Y0156436D01*
X0171093Y0156416D01*
X0171174Y0156393D01*
X0171254Y0156366D01*
X0171333Y0156335D01*
X0171410Y0156300D01*
X0171485Y0156262D01*
X0171558Y0156221D01*
X0171630Y0156176D01*
X0171699Y0156127D01*
X0171766Y0156076D01*
X0171830Y0156021D01*
X0171892Y0155964D01*
X0171951Y0155903D01*
X0172007Y0155840D01*
X0172060Y0155775D01*
X0172110Y0155707D01*
X0172156Y0155636D01*
X0172200Y0155564D01*
X0172240Y0155489D01*
X0172276Y0155413D01*
X0172309Y0155335D01*
X0172338Y0155256D01*
X0172363Y0155176D01*
X0172385Y0155094D01*
X0172402Y0155012D01*
X0172416Y0154928D01*
X0172426Y0154845D01*
X0172432Y0154760D01*
X0172434Y0154676D01*
X0172432Y0154592D01*
X0172426Y0154507D01*
X0172416Y0154424D01*
X0172402Y0154340D01*
X0172385Y0154258D01*
X0172363Y0154176D01*
X0172338Y0154096D01*
X0172309Y0154017D01*
X0172276Y0153939D01*
X0172240Y0153863D01*
X0172200Y0153788D01*
X0172156Y0153716D01*
X0172110Y0153645D01*
X0172060Y0153577D01*
X0172007Y0153512D01*
X0171951Y0153449D01*
X0171892Y0153388D01*
X0171830Y0153331D01*
X0171766Y0153276D01*
X0171699Y0153225D01*
X0171630Y0153176D01*
X0171558Y0153131D01*
X0171485Y0153090D01*
X0171410Y0153052D01*
X0171333Y0153017D01*
X0171254Y0152986D01*
X0171174Y0152959D01*
X0171093Y0152936D01*
X0171011Y0152916D01*
X0170928Y0152900D01*
X0170845Y0152888D01*
X0170760Y0152880D01*
X0170676Y0152876D01*
X0170592Y0152876D01*
X0170508Y0152880D01*
X0170423Y0152888D01*
X0170340Y0152900D01*
X0170257Y0152916D01*
X0170175Y0152936D01*
X0170094Y0152959D01*
X0170014Y0152986D01*
X0169935Y0153017D01*
X0169858Y0153052D01*
X0169783Y0153090D01*
X0169710Y0153131D01*
X0169638Y0153176D01*
X0169569Y0153225D01*
X0169502Y0153276D01*
X0169438Y0153331D01*
X0169376Y0153388D01*
X0169317Y0153449D01*
X0169261Y0153512D01*
X0169208Y0153577D01*
X0169158Y0153645D01*
X0169112Y0153716D01*
X0169068Y0153788D01*
X0169028Y0153863D01*
X0168992Y0153939D01*
X0168959Y0154017D01*
X0168930Y0154096D01*
X0168905Y0154176D01*
X0168883Y0154258D01*
X0168866Y0154340D01*
X0168852Y0154424D01*
X0168842Y0154507D01*
X0168836Y0154592D01*
X0168834Y0154676D01*
X0185906Y0210717D02*
X0186961Y0210717D01*
X0195906Y0210717D02*
X0196961Y0210717D01*
X0199682Y0216717D02*
X0183186Y0216717D01*
X0310334Y0043517D02*
X0311634Y0042617D01*
X0312834Y0043117D01*
X0313134Y0044717D01*
X0314434Y0044717D01*
X0314734Y0043117D01*
X0315934Y0042617D01*
X0317334Y0043517D01*
X0318234Y0042617D01*
X0317334Y0041317D01*
X0317834Y0040117D01*
X0319334Y0039817D01*
X0319334Y0038517D01*
X0317934Y0038217D01*
X0317334Y0036917D01*
X0318234Y0035617D01*
X0317334Y0034717D01*
X0316134Y0035517D01*
X0315534Y0035217D01*
X0314634Y0037517D01*
X0315234Y0037217D02*
X0316234Y0039217D01*
X0315234Y0040717D01*
X0313734Y0041217D01*
X0312234Y0040717D01*
X0311734Y0039217D01*
X0312234Y0037717D01*
X0312734Y0037217D01*
X0311734Y0035717D01*
X0310234Y0035217D01*
X0309734Y0035717D01*
X0310734Y0037217D01*
X0309734Y0038717D01*
X0308734Y0038717D01*
X0308734Y0039717D01*
X0310234Y0039717D01*
X0310734Y0041217D01*
X0309734Y0042717D01*
X0310234Y0043217D01*
X0311734Y0042217D01*
X0313234Y0043217D01*
X0313234Y0044217D01*
X0314234Y0044217D01*
X0314734Y0042717D01*
X0316234Y0042217D01*
X0317234Y0043217D01*
X0317734Y0042717D01*
X0317234Y0041217D01*
X0317734Y0039717D01*
X0319234Y0039717D01*
X0318734Y0038717D01*
X0317234Y0038217D01*
X0317234Y0036717D01*
X0317734Y0035717D01*
X0317234Y0035217D01*
X0316234Y0035717D01*
X0315734Y0035717D01*
X0315234Y0037217D01*
X0315325Y0037399D02*
X0317234Y0037399D01*
X0317234Y0037997D02*
X0315624Y0037997D01*
X0315923Y0038596D02*
X0318371Y0038596D01*
X0318973Y0039194D02*
X0316223Y0039194D01*
X0315850Y0039793D02*
X0317708Y0039793D01*
X0317509Y0040391D02*
X0315451Y0040391D01*
X0314414Y0040990D02*
X0317309Y0040990D01*
X0317358Y0041588D02*
X0310486Y0041588D01*
X0310334Y0041317D02*
X0309434Y0042617D01*
X0310334Y0043517D01*
X0309802Y0042785D02*
X0310881Y0042785D01*
X0310087Y0042187D02*
X0317557Y0042187D01*
X0317665Y0042785D02*
X0316802Y0042785D01*
X0314711Y0042785D02*
X0312587Y0042785D01*
X0313234Y0043384D02*
X0314511Y0043384D01*
X0314312Y0043982D02*
X0313234Y0043982D01*
X0313053Y0040990D02*
X0310658Y0040990D01*
X0310334Y0041317D02*
X0309734Y0040017D01*
X0308234Y0039817D01*
X0308234Y0038517D01*
X0309734Y0038217D01*
X0310234Y0036917D01*
X0309434Y0035617D01*
X0310334Y0034717D01*
X0311534Y0035517D01*
X0312034Y0035217D01*
X0313034Y0037517D01*
X0312552Y0037399D02*
X0310612Y0037399D01*
X0310456Y0036800D02*
X0312456Y0036800D01*
X0312057Y0036202D02*
X0310057Y0036202D01*
X0309847Y0035603D02*
X0311394Y0035603D01*
X0312140Y0037997D02*
X0310213Y0037997D01*
X0309814Y0038596D02*
X0311941Y0038596D01*
X0311741Y0039194D02*
X0308734Y0039194D01*
X0310259Y0039793D02*
X0311926Y0039793D01*
X0312125Y0040391D02*
X0310459Y0040391D01*
X0313034Y0037517D02*
X0312960Y0037556D01*
X0312887Y0037599D01*
X0312817Y0037645D01*
X0312749Y0037695D01*
X0312683Y0037747D01*
X0312620Y0037803D01*
X0312560Y0037861D01*
X0312502Y0037922D01*
X0312448Y0037986D01*
X0312396Y0038052D01*
X0312348Y0038121D01*
X0312303Y0038192D01*
X0312261Y0038265D01*
X0312223Y0038340D01*
X0312188Y0038416D01*
X0312157Y0038494D01*
X0312129Y0038574D01*
X0312106Y0038655D01*
X0312086Y0038736D01*
X0312070Y0038819D01*
X0312058Y0038902D01*
X0312050Y0038986D01*
X0312046Y0039069D01*
X0312045Y0039154D01*
X0312049Y0039237D01*
X0312057Y0039321D01*
X0312068Y0039404D01*
X0312084Y0039487D01*
X0312103Y0039569D01*
X0312126Y0039650D01*
X0312153Y0039729D01*
X0312184Y0039808D01*
X0312218Y0039884D01*
X0312256Y0039959D01*
X0312297Y0040032D01*
X0312342Y0040104D01*
X0312390Y0040173D01*
X0312441Y0040239D01*
X0312495Y0040304D01*
X0312552Y0040365D01*
X0312612Y0040424D01*
X0312675Y0040480D01*
X0312740Y0040533D01*
X0312808Y0040583D01*
X0312878Y0040629D01*
X0312950Y0040672D01*
X0313024Y0040712D01*
X0313100Y0040748D01*
X0313177Y0040781D01*
X0313256Y0040810D01*
X0313336Y0040835D01*
X0313418Y0040857D01*
X0313500Y0040875D01*
X0313583Y0040888D01*
X0313666Y0040898D01*
X0313750Y0040904D01*
X0313834Y0040906D01*
X0313918Y0040904D01*
X0314002Y0040898D01*
X0314085Y0040888D01*
X0314168Y0040875D01*
X0314250Y0040857D01*
X0314332Y0040835D01*
X0314412Y0040810D01*
X0314491Y0040781D01*
X0314568Y0040748D01*
X0314644Y0040712D01*
X0314718Y0040672D01*
X0314790Y0040629D01*
X0314860Y0040583D01*
X0314928Y0040533D01*
X0314993Y0040480D01*
X0315056Y0040424D01*
X0315116Y0040365D01*
X0315173Y0040304D01*
X0315227Y0040239D01*
X0315278Y0040173D01*
X0315326Y0040104D01*
X0315371Y0040032D01*
X0315412Y0039959D01*
X0315450Y0039884D01*
X0315484Y0039808D01*
X0315515Y0039729D01*
X0315542Y0039650D01*
X0315565Y0039569D01*
X0315584Y0039487D01*
X0315600Y0039404D01*
X0315611Y0039321D01*
X0315619Y0039237D01*
X0315623Y0039154D01*
X0315622Y0039069D01*
X0315618Y0038986D01*
X0315610Y0038902D01*
X0315598Y0038819D01*
X0315582Y0038736D01*
X0315562Y0038655D01*
X0315539Y0038574D01*
X0315511Y0038494D01*
X0315480Y0038416D01*
X0315445Y0038340D01*
X0315407Y0038265D01*
X0315365Y0038192D01*
X0315320Y0038121D01*
X0315272Y0038052D01*
X0315220Y0037986D01*
X0315166Y0037922D01*
X0315108Y0037861D01*
X0315048Y0037803D01*
X0314985Y0037747D01*
X0314919Y0037695D01*
X0314851Y0037645D01*
X0314781Y0037599D01*
X0314708Y0037556D01*
X0314634Y0037517D01*
X0315373Y0036800D02*
X0317234Y0036800D01*
X0317491Y0036202D02*
X0315572Y0036202D01*
X0316461Y0035603D02*
X0317620Y0035603D01*
D97*
X0196434Y0175529D02*
X0176434Y0175529D01*
X0176434Y0184904D01*
X0196434Y0184904D01*
X0196434Y0175529D01*
D98*
X0201167Y0214830D02*
X0200678Y0214600D01*
X0200679Y0214601D02*
X0200579Y0214804D01*
X0200475Y0215006D01*
X0200367Y0215205D01*
X0200254Y0215402D01*
X0200137Y0215596D01*
X0200016Y0215788D01*
X0199890Y0215976D01*
X0199760Y0216162D01*
X0199626Y0216346D01*
X0199488Y0216526D01*
X0199912Y0216859D01*
X0199913Y0216860D01*
X0200058Y0216670D01*
X0200199Y0216477D01*
X0200336Y0216281D01*
X0200468Y0216082D01*
X0200596Y0215880D01*
X0200720Y0215675D01*
X0200839Y0215468D01*
X0200953Y0215258D01*
X0201063Y0215045D01*
X0201167Y0214831D01*
X0201117Y0214807D01*
X0201012Y0215020D01*
X0200903Y0215232D01*
X0200790Y0215441D01*
X0200671Y0215647D01*
X0200549Y0215851D01*
X0200421Y0216051D01*
X0200290Y0216249D01*
X0200154Y0216444D01*
X0200013Y0216636D01*
X0199869Y0216825D01*
X0199825Y0216791D01*
X0199968Y0216603D01*
X0200108Y0216412D01*
X0200243Y0216218D01*
X0200374Y0216021D01*
X0200501Y0215821D01*
X0200623Y0215619D01*
X0200741Y0215413D01*
X0200854Y0215206D01*
X0200962Y0214995D01*
X0201066Y0214783D01*
X0201015Y0214759D01*
X0200912Y0214970D01*
X0200804Y0215179D01*
X0200692Y0215386D01*
X0200575Y0215590D01*
X0200453Y0215792D01*
X0200327Y0215990D01*
X0200197Y0216186D01*
X0200063Y0216379D01*
X0199924Y0216569D01*
X0199781Y0216756D01*
X0199737Y0216721D01*
X0199879Y0216535D01*
X0200017Y0216347D01*
X0200151Y0216155D01*
X0200281Y0215960D01*
X0200406Y0215762D01*
X0200527Y0215562D01*
X0200643Y0215359D01*
X0200755Y0215153D01*
X0200862Y0214945D01*
X0200965Y0214735D01*
X0200914Y0214711D01*
X0200812Y0214920D01*
X0200705Y0215127D01*
X0200594Y0215332D01*
X0200478Y0215534D01*
X0200358Y0215733D01*
X0200234Y0215929D01*
X0200105Y0216123D01*
X0199972Y0216314D01*
X0199834Y0216502D01*
X0199693Y0216687D01*
X0199649Y0216652D01*
X0199789Y0216468D01*
X0199926Y0216281D01*
X0200058Y0216092D01*
X0200187Y0215899D01*
X0200311Y0215703D01*
X0200430Y0215505D01*
X0200545Y0215304D01*
X0200656Y0215101D01*
X0200762Y0214895D01*
X0200863Y0214687D01*
X0200813Y0214664D01*
X0200712Y0214870D01*
X0200606Y0215075D01*
X0200496Y0215277D01*
X0200382Y0215477D01*
X0200263Y0215674D01*
X0200140Y0215868D01*
X0200012Y0216060D01*
X0199880Y0216249D01*
X0199745Y0216434D01*
X0199605Y0216617D01*
X0199561Y0216583D01*
X0199700Y0216401D01*
X0199835Y0216216D01*
X0199966Y0216028D01*
X0200093Y0215838D01*
X0200215Y0215644D01*
X0200333Y0215448D01*
X0200447Y0215250D01*
X0200557Y0215049D01*
X0200662Y0214845D01*
X0200762Y0214640D01*
X0200711Y0214616D01*
X0200612Y0214820D01*
X0200507Y0215023D01*
X0200398Y0215223D01*
X0200285Y0215420D01*
X0200168Y0215615D01*
X0200046Y0215807D01*
X0199920Y0215997D01*
X0199789Y0216183D01*
X0199655Y0216367D01*
X0199517Y0216548D01*
X0181703Y0205603D02*
X0182192Y0205833D01*
X0182191Y0205833D02*
X0182301Y0205608D01*
X0182417Y0205385D01*
X0182538Y0205165D01*
X0182665Y0204949D01*
X0182797Y0204735D01*
X0182934Y0204525D01*
X0183076Y0204319D01*
X0183223Y0204115D01*
X0183375Y0203916D01*
X0183532Y0203720D01*
X0183693Y0203528D01*
X0183860Y0203341D01*
X0184031Y0203157D01*
X0184206Y0202978D01*
X0184386Y0202803D01*
X0184569Y0202632D01*
X0184757Y0202466D01*
X0184950Y0202305D01*
X0185145Y0202148D01*
X0185345Y0201996D01*
X0185549Y0201850D01*
X0185755Y0201708D01*
X0185966Y0201571D01*
X0186179Y0201440D01*
X0186396Y0201313D01*
X0186616Y0201193D01*
X0186839Y0201077D01*
X0187064Y0200967D01*
X0187292Y0200863D01*
X0187523Y0200764D01*
X0187756Y0200671D01*
X0187991Y0200584D01*
X0188228Y0200502D01*
X0188467Y0200427D01*
X0188708Y0200357D01*
X0188951Y0200293D01*
X0189195Y0200235D01*
X0189440Y0200183D01*
X0189687Y0200137D01*
X0189934Y0200098D01*
X0190183Y0200064D01*
X0190432Y0200036D01*
X0190682Y0200015D01*
X0190933Y0199999D01*
X0191183Y0199990D01*
X0191434Y0199987D01*
X0191685Y0199990D01*
X0191935Y0199999D01*
X0192186Y0200015D01*
X0192436Y0200036D01*
X0192685Y0200064D01*
X0192934Y0200098D01*
X0193181Y0200137D01*
X0193428Y0200183D01*
X0193673Y0200235D01*
X0193917Y0200293D01*
X0194160Y0200357D01*
X0194401Y0200427D01*
X0194640Y0200502D01*
X0194877Y0200584D01*
X0195112Y0200671D01*
X0195345Y0200764D01*
X0195576Y0200863D01*
X0195804Y0200967D01*
X0196029Y0201077D01*
X0196252Y0201193D01*
X0196472Y0201313D01*
X0196689Y0201440D01*
X0196902Y0201571D01*
X0197113Y0201708D01*
X0197319Y0201850D01*
X0197523Y0201996D01*
X0197723Y0202148D01*
X0197918Y0202305D01*
X0198111Y0202466D01*
X0198299Y0202632D01*
X0198482Y0202803D01*
X0198662Y0202978D01*
X0198837Y0203157D01*
X0199008Y0203341D01*
X0199175Y0203528D01*
X0199336Y0203720D01*
X0199493Y0203916D01*
X0199645Y0204115D01*
X0199792Y0204319D01*
X0199934Y0204525D01*
X0200071Y0204735D01*
X0200203Y0204949D01*
X0200330Y0205165D01*
X0200451Y0205385D01*
X0200567Y0205608D01*
X0200677Y0205833D01*
X0201165Y0205603D01*
X0201166Y0205603D01*
X0201049Y0205366D01*
X0200928Y0205131D01*
X0200800Y0204900D01*
X0200667Y0204672D01*
X0200528Y0204447D01*
X0200384Y0204226D01*
X0200234Y0204008D01*
X0200079Y0203794D01*
X0199919Y0203584D01*
X0199754Y0203378D01*
X0199584Y0203176D01*
X0199409Y0202979D01*
X0199229Y0202785D01*
X0199044Y0202596D01*
X0198855Y0202412D01*
X0198662Y0202232D01*
X0198464Y0202058D01*
X0198262Y0201888D01*
X0198055Y0201723D01*
X0197845Y0201563D01*
X0197631Y0201408D01*
X0197413Y0201259D01*
X0197192Y0201115D01*
X0196967Y0200977D01*
X0196738Y0200844D01*
X0196507Y0200717D01*
X0196272Y0200595D01*
X0196035Y0200479D01*
X0195795Y0200369D01*
X0195552Y0200265D01*
X0195307Y0200167D01*
X0195059Y0200076D01*
X0194810Y0199990D01*
X0194558Y0199910D01*
X0194304Y0199836D01*
X0194049Y0199769D01*
X0193792Y0199708D01*
X0193533Y0199654D01*
X0193274Y0199605D01*
X0193013Y0199563D01*
X0192751Y0199528D01*
X0192489Y0199499D01*
X0192226Y0199476D01*
X0191962Y0199460D01*
X0191698Y0199450D01*
X0191434Y0199447D01*
X0191170Y0199450D01*
X0190906Y0199460D01*
X0190642Y0199476D01*
X0190379Y0199499D01*
X0190117Y0199528D01*
X0189855Y0199563D01*
X0189594Y0199605D01*
X0189335Y0199654D01*
X0189076Y0199708D01*
X0188819Y0199769D01*
X0188564Y0199836D01*
X0188310Y0199910D01*
X0188058Y0199990D01*
X0187809Y0200076D01*
X0187561Y0200167D01*
X0187316Y0200265D01*
X0187073Y0200369D01*
X0186833Y0200479D01*
X0186596Y0200595D01*
X0186361Y0200717D01*
X0186130Y0200844D01*
X0185901Y0200977D01*
X0185676Y0201115D01*
X0185455Y0201259D01*
X0185237Y0201408D01*
X0185023Y0201563D01*
X0184813Y0201723D01*
X0184606Y0201888D01*
X0184404Y0202058D01*
X0184206Y0202232D01*
X0184013Y0202412D01*
X0183824Y0202596D01*
X0183639Y0202785D01*
X0183459Y0202979D01*
X0183284Y0203176D01*
X0183114Y0203378D01*
X0182949Y0203584D01*
X0182789Y0203794D01*
X0182634Y0204008D01*
X0182484Y0204226D01*
X0182340Y0204447D01*
X0182201Y0204672D01*
X0182068Y0204900D01*
X0181940Y0205131D01*
X0181819Y0205366D01*
X0181702Y0205603D01*
X0181753Y0205627D01*
X0181869Y0205391D01*
X0181990Y0205158D01*
X0182117Y0204928D01*
X0182249Y0204701D01*
X0182387Y0204477D01*
X0182531Y0204257D01*
X0182680Y0204041D01*
X0182834Y0203828D01*
X0182993Y0203619D01*
X0183157Y0203414D01*
X0183326Y0203213D01*
X0183501Y0203016D01*
X0183680Y0202824D01*
X0183863Y0202636D01*
X0184051Y0202453D01*
X0184244Y0202274D01*
X0184441Y0202100D01*
X0184642Y0201931D01*
X0184847Y0201767D01*
X0185056Y0201608D01*
X0185269Y0201454D01*
X0185486Y0201306D01*
X0185706Y0201162D01*
X0185930Y0201025D01*
X0186157Y0200893D01*
X0186387Y0200766D01*
X0186621Y0200645D01*
X0186857Y0200530D01*
X0187096Y0200421D01*
X0187337Y0200317D01*
X0187581Y0200220D01*
X0187828Y0200128D01*
X0188076Y0200043D01*
X0188327Y0199964D01*
X0188579Y0199890D01*
X0188833Y0199824D01*
X0189089Y0199763D01*
X0189346Y0199709D01*
X0189604Y0199660D01*
X0189863Y0199619D01*
X0190124Y0199583D01*
X0190385Y0199555D01*
X0190647Y0199532D01*
X0190909Y0199516D01*
X0191171Y0199506D01*
X0191434Y0199503D01*
X0191697Y0199506D01*
X0191959Y0199516D01*
X0192221Y0199532D01*
X0192483Y0199555D01*
X0192744Y0199583D01*
X0193005Y0199619D01*
X0193264Y0199660D01*
X0193522Y0199709D01*
X0193779Y0199763D01*
X0194035Y0199824D01*
X0194289Y0199890D01*
X0194541Y0199964D01*
X0194792Y0200043D01*
X0195040Y0200128D01*
X0195287Y0200220D01*
X0195531Y0200317D01*
X0195772Y0200421D01*
X0196011Y0200530D01*
X0196247Y0200645D01*
X0196481Y0200766D01*
X0196711Y0200893D01*
X0196938Y0201025D01*
X0197162Y0201162D01*
X0197382Y0201306D01*
X0197599Y0201454D01*
X0197812Y0201608D01*
X0198021Y0201767D01*
X0198226Y0201931D01*
X0198427Y0202100D01*
X0198624Y0202274D01*
X0198817Y0202453D01*
X0199005Y0202636D01*
X0199188Y0202824D01*
X0199367Y0203016D01*
X0199542Y0203213D01*
X0199711Y0203414D01*
X0199875Y0203619D01*
X0200034Y0203828D01*
X0200188Y0204041D01*
X0200337Y0204257D01*
X0200481Y0204477D01*
X0200619Y0204701D01*
X0200751Y0204928D01*
X0200878Y0205158D01*
X0200999Y0205391D01*
X0201115Y0205627D01*
X0201064Y0205651D01*
X0200949Y0205416D01*
X0200829Y0205184D01*
X0200702Y0204955D01*
X0200571Y0204729D01*
X0200433Y0204507D01*
X0200291Y0204288D01*
X0200143Y0204073D01*
X0199989Y0203861D01*
X0199831Y0203653D01*
X0199667Y0203449D01*
X0199499Y0203249D01*
X0199326Y0203054D01*
X0199148Y0202862D01*
X0198965Y0202675D01*
X0198778Y0202493D01*
X0198586Y0202315D01*
X0198390Y0202142D01*
X0198190Y0201974D01*
X0197986Y0201811D01*
X0197778Y0201653D01*
X0197566Y0201500D01*
X0197351Y0201352D01*
X0197132Y0201210D01*
X0196909Y0201073D01*
X0196683Y0200941D01*
X0196454Y0200815D01*
X0196222Y0200695D01*
X0195987Y0200581D01*
X0195749Y0200472D01*
X0195509Y0200369D01*
X0195267Y0200272D01*
X0195022Y0200181D01*
X0194774Y0200096D01*
X0194525Y0200017D01*
X0194274Y0199944D01*
X0194021Y0199878D01*
X0193767Y0199818D01*
X0193511Y0199763D01*
X0193255Y0199716D01*
X0192996Y0199674D01*
X0192738Y0199639D01*
X0192478Y0199610D01*
X0192217Y0199588D01*
X0191957Y0199572D01*
X0191695Y0199562D01*
X0191434Y0199559D01*
X0191173Y0199562D01*
X0190911Y0199572D01*
X0190651Y0199588D01*
X0190390Y0199610D01*
X0190130Y0199639D01*
X0189872Y0199674D01*
X0189613Y0199716D01*
X0189357Y0199763D01*
X0189101Y0199818D01*
X0188847Y0199878D01*
X0188594Y0199944D01*
X0188343Y0200017D01*
X0188094Y0200096D01*
X0187846Y0200181D01*
X0187601Y0200272D01*
X0187359Y0200369D01*
X0187119Y0200472D01*
X0186881Y0200581D01*
X0186646Y0200695D01*
X0186414Y0200815D01*
X0186185Y0200941D01*
X0185959Y0201073D01*
X0185736Y0201210D01*
X0185517Y0201352D01*
X0185302Y0201500D01*
X0185090Y0201653D01*
X0184882Y0201811D01*
X0184678Y0201974D01*
X0184478Y0202142D01*
X0184282Y0202315D01*
X0184090Y0202493D01*
X0183903Y0202675D01*
X0183720Y0202862D01*
X0183542Y0203054D01*
X0183369Y0203249D01*
X0183201Y0203449D01*
X0183037Y0203653D01*
X0182879Y0203861D01*
X0182725Y0204073D01*
X0182577Y0204288D01*
X0182435Y0204507D01*
X0182297Y0204729D01*
X0182166Y0204955D01*
X0182039Y0205184D01*
X0181919Y0205416D01*
X0181804Y0205651D01*
X0181854Y0205674D01*
X0181969Y0205441D01*
X0182089Y0205210D01*
X0182214Y0204983D01*
X0182345Y0204758D01*
X0182482Y0204537D01*
X0182624Y0204319D01*
X0182771Y0204105D01*
X0182924Y0203894D01*
X0183081Y0203688D01*
X0183244Y0203485D01*
X0183411Y0203286D01*
X0183584Y0203091D01*
X0183761Y0202901D01*
X0183943Y0202715D01*
X0184129Y0202534D01*
X0184319Y0202357D01*
X0184514Y0202185D01*
X0184713Y0202017D01*
X0184916Y0201855D01*
X0185123Y0201698D01*
X0185334Y0201546D01*
X0185548Y0201399D01*
X0185766Y0201257D01*
X0185988Y0201121D01*
X0186213Y0200990D01*
X0186440Y0200865D01*
X0186671Y0200745D01*
X0186905Y0200631D01*
X0187141Y0200523D01*
X0187380Y0200421D01*
X0187622Y0200324D01*
X0187865Y0200234D01*
X0188111Y0200149D01*
X0188359Y0200071D01*
X0188609Y0199998D01*
X0188860Y0199932D01*
X0189113Y0199872D01*
X0189367Y0199818D01*
X0189623Y0199771D01*
X0189880Y0199730D01*
X0190137Y0199695D01*
X0190396Y0199666D01*
X0190655Y0199644D01*
X0190914Y0199628D01*
X0191174Y0199618D01*
X0191434Y0199615D01*
X0191694Y0199618D01*
X0191954Y0199628D01*
X0192213Y0199644D01*
X0192472Y0199666D01*
X0192731Y0199695D01*
X0192988Y0199730D01*
X0193245Y0199771D01*
X0193501Y0199818D01*
X0193755Y0199872D01*
X0194008Y0199932D01*
X0194259Y0199998D01*
X0194509Y0200071D01*
X0194757Y0200149D01*
X0195003Y0200234D01*
X0195246Y0200324D01*
X0195488Y0200421D01*
X0195727Y0200523D01*
X0195963Y0200631D01*
X0196197Y0200745D01*
X0196428Y0200865D01*
X0196655Y0200990D01*
X0196880Y0201121D01*
X0197102Y0201257D01*
X0197320Y0201399D01*
X0197534Y0201546D01*
X0197745Y0201698D01*
X0197952Y0201855D01*
X0198155Y0202017D01*
X0198354Y0202185D01*
X0198549Y0202357D01*
X0198739Y0202534D01*
X0198925Y0202715D01*
X0199107Y0202901D01*
X0199284Y0203091D01*
X0199457Y0203286D01*
X0199624Y0203485D01*
X0199787Y0203688D01*
X0199944Y0203894D01*
X0200097Y0204105D01*
X0200244Y0204319D01*
X0200386Y0204537D01*
X0200523Y0204758D01*
X0200654Y0204983D01*
X0200779Y0205210D01*
X0200899Y0205441D01*
X0201014Y0205674D01*
X0200963Y0205698D01*
X0200849Y0205466D01*
X0200730Y0205237D01*
X0200605Y0205010D01*
X0200475Y0204787D01*
X0200339Y0204567D01*
X0200197Y0204350D01*
X0200051Y0204137D01*
X0199899Y0203928D01*
X0199743Y0203722D01*
X0199581Y0203520D01*
X0199414Y0203322D01*
X0199243Y0203129D01*
X0199067Y0202939D01*
X0198886Y0202755D01*
X0198701Y0202574D01*
X0198511Y0202398D01*
X0198317Y0202227D01*
X0198119Y0202061D01*
X0197917Y0201899D01*
X0197711Y0201743D01*
X0197502Y0201591D01*
X0197288Y0201445D01*
X0197072Y0201304D01*
X0196851Y0201169D01*
X0196628Y0201039D01*
X0196401Y0200914D01*
X0196172Y0200795D01*
X0195939Y0200682D01*
X0195704Y0200574D01*
X0195466Y0200472D01*
X0195226Y0200376D01*
X0194984Y0200286D01*
X0194739Y0200202D01*
X0194493Y0200124D01*
X0194244Y0200052D01*
X0193994Y0199986D01*
X0193743Y0199927D01*
X0193490Y0199873D01*
X0193235Y0199826D01*
X0192980Y0199785D01*
X0192724Y0199750D01*
X0192467Y0199722D01*
X0192209Y0199700D01*
X0191951Y0199684D01*
X0191693Y0199674D01*
X0191434Y0199671D01*
X0191175Y0199674D01*
X0190917Y0199684D01*
X0190659Y0199700D01*
X0190401Y0199722D01*
X0190144Y0199750D01*
X0189888Y0199785D01*
X0189633Y0199826D01*
X0189378Y0199873D01*
X0189125Y0199927D01*
X0188874Y0199986D01*
X0188624Y0200052D01*
X0188375Y0200124D01*
X0188129Y0200202D01*
X0187884Y0200286D01*
X0187642Y0200376D01*
X0187402Y0200472D01*
X0187164Y0200574D01*
X0186929Y0200682D01*
X0186696Y0200795D01*
X0186467Y0200914D01*
X0186240Y0201039D01*
X0186017Y0201169D01*
X0185796Y0201304D01*
X0185580Y0201445D01*
X0185366Y0201591D01*
X0185157Y0201743D01*
X0184951Y0201899D01*
X0184749Y0202061D01*
X0184551Y0202227D01*
X0184357Y0202398D01*
X0184167Y0202574D01*
X0183982Y0202755D01*
X0183801Y0202939D01*
X0183625Y0203129D01*
X0183454Y0203322D01*
X0183287Y0203520D01*
X0183125Y0203722D01*
X0182969Y0203928D01*
X0182817Y0204137D01*
X0182671Y0204350D01*
X0182529Y0204567D01*
X0182393Y0204787D01*
X0182263Y0205010D01*
X0182138Y0205237D01*
X0182019Y0205466D01*
X0181905Y0205698D01*
X0181956Y0205722D01*
X0182069Y0205491D01*
X0182188Y0205263D01*
X0182312Y0205038D01*
X0182442Y0204816D01*
X0182577Y0204597D01*
X0182717Y0204381D01*
X0182863Y0204169D01*
X0183014Y0203961D01*
X0183170Y0203756D01*
X0183331Y0203556D01*
X0183496Y0203359D01*
X0183667Y0203166D01*
X0183842Y0202978D01*
X0184022Y0202794D01*
X0184206Y0202615D01*
X0184395Y0202440D01*
X0184587Y0202269D01*
X0184784Y0202104D01*
X0184985Y0201943D01*
X0185190Y0201788D01*
X0185399Y0201637D01*
X0185611Y0201492D01*
X0185826Y0201352D01*
X0186046Y0201217D01*
X0186268Y0201087D01*
X0186493Y0200963D01*
X0186722Y0200845D01*
X0186953Y0200732D01*
X0187187Y0200625D01*
X0187423Y0200524D01*
X0187662Y0200429D01*
X0187903Y0200339D01*
X0188146Y0200255D01*
X0188392Y0200178D01*
X0188639Y0200106D01*
X0188887Y0200041D01*
X0189138Y0199981D01*
X0189389Y0199928D01*
X0189642Y0199881D01*
X0189896Y0199840D01*
X0190151Y0199806D01*
X0190407Y0199777D01*
X0190663Y0199755D01*
X0190920Y0199740D01*
X0191177Y0199730D01*
X0191434Y0199727D01*
X0191691Y0199730D01*
X0191948Y0199740D01*
X0192205Y0199755D01*
X0192461Y0199777D01*
X0192717Y0199806D01*
X0192972Y0199840D01*
X0193226Y0199881D01*
X0193479Y0199928D01*
X0193730Y0199981D01*
X0193981Y0200041D01*
X0194229Y0200106D01*
X0194476Y0200178D01*
X0194722Y0200255D01*
X0194965Y0200339D01*
X0195206Y0200429D01*
X0195445Y0200524D01*
X0195681Y0200625D01*
X0195915Y0200732D01*
X0196146Y0200845D01*
X0196375Y0200963D01*
X0196600Y0201087D01*
X0196822Y0201217D01*
X0197042Y0201352D01*
X0197257Y0201492D01*
X0197469Y0201637D01*
X0197678Y0201788D01*
X0197883Y0201943D01*
X0198084Y0202104D01*
X0198281Y0202269D01*
X0198473Y0202440D01*
X0198662Y0202615D01*
X0198846Y0202794D01*
X0199026Y0202978D01*
X0199201Y0203166D01*
X0199372Y0203359D01*
X0199537Y0203556D01*
X0199698Y0203756D01*
X0199854Y0203961D01*
X0200005Y0204169D01*
X0200151Y0204381D01*
X0200291Y0204597D01*
X0200426Y0204816D01*
X0200556Y0205038D01*
X0200680Y0205263D01*
X0200799Y0205491D01*
X0200912Y0205722D01*
X0200862Y0205746D01*
X0200749Y0205516D01*
X0200631Y0205289D01*
X0200507Y0205065D01*
X0200378Y0204844D01*
X0200244Y0204627D01*
X0200104Y0204412D01*
X0199959Y0204201D01*
X0199809Y0203994D01*
X0199654Y0203791D01*
X0199494Y0203591D01*
X0199329Y0203395D01*
X0199160Y0203204D01*
X0198985Y0203017D01*
X0198807Y0202834D01*
X0198623Y0202655D01*
X0198436Y0202481D01*
X0198244Y0202312D01*
X0198048Y0202147D01*
X0197848Y0201987D01*
X0197645Y0201833D01*
X0197437Y0201683D01*
X0197226Y0201538D01*
X0197012Y0201399D01*
X0196794Y0201265D01*
X0196573Y0201136D01*
X0196348Y0201013D01*
X0196121Y0200895D01*
X0195891Y0200783D01*
X0195659Y0200676D01*
X0195423Y0200576D01*
X0195186Y0200481D01*
X0194946Y0200392D01*
X0194704Y0200309D01*
X0194460Y0200231D01*
X0194214Y0200160D01*
X0193967Y0200095D01*
X0193718Y0200036D01*
X0193468Y0199983D01*
X0193216Y0199936D01*
X0192964Y0199896D01*
X0192710Y0199861D01*
X0192456Y0199833D01*
X0192201Y0199811D01*
X0191945Y0199796D01*
X0191690Y0199786D01*
X0191434Y0199783D01*
X0191178Y0199786D01*
X0190923Y0199796D01*
X0190667Y0199811D01*
X0190412Y0199833D01*
X0190158Y0199861D01*
X0189904Y0199896D01*
X0189652Y0199936D01*
X0189400Y0199983D01*
X0189150Y0200036D01*
X0188901Y0200095D01*
X0188654Y0200160D01*
X0188408Y0200231D01*
X0188164Y0200309D01*
X0187922Y0200392D01*
X0187682Y0200481D01*
X0187445Y0200576D01*
X0187209Y0200676D01*
X0186977Y0200783D01*
X0186747Y0200895D01*
X0186520Y0201013D01*
X0186295Y0201136D01*
X0186074Y0201265D01*
X0185856Y0201399D01*
X0185642Y0201538D01*
X0185431Y0201683D01*
X0185223Y0201833D01*
X0185020Y0201987D01*
X0184820Y0202147D01*
X0184624Y0202312D01*
X0184432Y0202481D01*
X0184245Y0202655D01*
X0184061Y0202834D01*
X0183883Y0203017D01*
X0183708Y0203204D01*
X0183539Y0203395D01*
X0183374Y0203591D01*
X0183214Y0203791D01*
X0183059Y0203994D01*
X0182909Y0204201D01*
X0182764Y0204412D01*
X0182624Y0204627D01*
X0182490Y0204844D01*
X0182361Y0205065D01*
X0182237Y0205289D01*
X0182119Y0205516D01*
X0182006Y0205746D01*
X0182057Y0205770D01*
X0182169Y0205541D01*
X0182286Y0205315D01*
X0182409Y0205093D01*
X0182538Y0204873D01*
X0182671Y0204656D01*
X0182810Y0204443D01*
X0182955Y0204234D01*
X0183104Y0204027D01*
X0183258Y0203825D01*
X0183417Y0203627D01*
X0183581Y0203432D01*
X0183750Y0203241D01*
X0183923Y0203055D01*
X0184101Y0202873D01*
X0184283Y0202696D01*
X0184470Y0202523D01*
X0184661Y0202354D01*
X0184856Y0202190D01*
X0185054Y0202032D01*
X0185257Y0201878D01*
X0185463Y0201729D01*
X0185673Y0201585D01*
X0185886Y0201446D01*
X0186103Y0201313D01*
X0186323Y0201185D01*
X0186546Y0201062D01*
X0186772Y0200945D01*
X0187001Y0200834D01*
X0187232Y0200728D01*
X0187466Y0200627D01*
X0187702Y0200533D01*
X0187941Y0200445D01*
X0188182Y0200362D01*
X0188424Y0200285D01*
X0188669Y0200214D01*
X0188915Y0200149D01*
X0189162Y0200091D01*
X0189411Y0200038D01*
X0189661Y0199991D01*
X0189913Y0199951D01*
X0190165Y0199917D01*
X0190418Y0199889D01*
X0190671Y0199867D01*
X0190925Y0199851D01*
X0191180Y0199842D01*
X0191434Y0199839D01*
X0191688Y0199842D01*
X0191943Y0199851D01*
X0192197Y0199867D01*
X0192450Y0199889D01*
X0192703Y0199917D01*
X0192955Y0199951D01*
X0193207Y0199991D01*
X0193457Y0200038D01*
X0193706Y0200091D01*
X0193953Y0200149D01*
X0194199Y0200214D01*
X0194444Y0200285D01*
X0194686Y0200362D01*
X0194927Y0200445D01*
X0195166Y0200533D01*
X0195402Y0200627D01*
X0195636Y0200728D01*
X0195867Y0200834D01*
X0196096Y0200945D01*
X0196322Y0201062D01*
X0196545Y0201185D01*
X0196765Y0201313D01*
X0196982Y0201446D01*
X0197195Y0201585D01*
X0197405Y0201729D01*
X0197611Y0201878D01*
X0197814Y0202032D01*
X0198012Y0202190D01*
X0198207Y0202354D01*
X0198398Y0202523D01*
X0198585Y0202696D01*
X0198767Y0202873D01*
X0198945Y0203055D01*
X0199118Y0203241D01*
X0199287Y0203432D01*
X0199451Y0203627D01*
X0199610Y0203825D01*
X0199764Y0204027D01*
X0199913Y0204234D01*
X0200058Y0204443D01*
X0200197Y0204656D01*
X0200330Y0204873D01*
X0200459Y0205093D01*
X0200582Y0205315D01*
X0200699Y0205541D01*
X0200811Y0205770D01*
X0200760Y0205794D01*
X0200649Y0205566D01*
X0200532Y0205342D01*
X0200410Y0205120D01*
X0200282Y0204902D01*
X0200149Y0204686D01*
X0200011Y0204474D01*
X0199868Y0204266D01*
X0199719Y0204061D01*
X0199566Y0203859D01*
X0199407Y0203662D01*
X0199244Y0203468D01*
X0199077Y0203279D01*
X0198904Y0203094D01*
X0198727Y0202913D01*
X0198546Y0202736D01*
X0198360Y0202564D01*
X0198171Y0202396D01*
X0197977Y0202234D01*
X0197779Y0202076D01*
X0197578Y0201923D01*
X0197372Y0201774D01*
X0197164Y0201631D01*
X0196951Y0201493D01*
X0196736Y0201361D01*
X0196517Y0201233D01*
X0196295Y0201112D01*
X0196071Y0200995D01*
X0195843Y0200884D01*
X0195613Y0200779D01*
X0195380Y0200679D01*
X0195145Y0200585D01*
X0194908Y0200497D01*
X0194669Y0200415D01*
X0194428Y0200339D01*
X0194184Y0200268D01*
X0193940Y0200204D01*
X0193693Y0200145D01*
X0193446Y0200093D01*
X0193197Y0200047D01*
X0192947Y0200007D01*
X0192696Y0199972D01*
X0192445Y0199945D01*
X0192193Y0199923D01*
X0191940Y0199907D01*
X0191687Y0199898D01*
X0191434Y0199895D01*
X0191181Y0199898D01*
X0190928Y0199907D01*
X0190675Y0199923D01*
X0190423Y0199945D01*
X0190172Y0199972D01*
X0189921Y0200007D01*
X0189671Y0200047D01*
X0189422Y0200093D01*
X0189175Y0200145D01*
X0188928Y0200204D01*
X0188684Y0200268D01*
X0188440Y0200339D01*
X0188199Y0200415D01*
X0187960Y0200497D01*
X0187723Y0200585D01*
X0187488Y0200679D01*
X0187255Y0200779D01*
X0187025Y0200884D01*
X0186797Y0200995D01*
X0186573Y0201112D01*
X0186351Y0201233D01*
X0186132Y0201361D01*
X0185917Y0201493D01*
X0185704Y0201631D01*
X0185496Y0201774D01*
X0185290Y0201923D01*
X0185089Y0202076D01*
X0184891Y0202234D01*
X0184697Y0202396D01*
X0184508Y0202564D01*
X0184322Y0202736D01*
X0184141Y0202913D01*
X0183964Y0203094D01*
X0183791Y0203279D01*
X0183624Y0203468D01*
X0183461Y0203662D01*
X0183302Y0203859D01*
X0183149Y0204061D01*
X0183000Y0204266D01*
X0182857Y0204474D01*
X0182719Y0204686D01*
X0182586Y0204902D01*
X0182458Y0205120D01*
X0182336Y0205342D01*
X0182219Y0205566D01*
X0182108Y0205794D01*
X0182158Y0205817D01*
X0182269Y0205591D01*
X0182385Y0205368D01*
X0182507Y0205148D01*
X0182634Y0204930D01*
X0182766Y0204716D01*
X0182904Y0204505D01*
X0183046Y0204298D01*
X0183194Y0204094D01*
X0183346Y0203894D01*
X0183504Y0203697D01*
X0183666Y0203505D01*
X0183833Y0203317D01*
X0184004Y0203132D01*
X0184180Y0202952D01*
X0184361Y0202777D01*
X0184545Y0202605D01*
X0184734Y0202439D01*
X0184927Y0202277D01*
X0185123Y0202120D01*
X0185324Y0201967D01*
X0185528Y0201820D01*
X0185735Y0201678D01*
X0185947Y0201541D01*
X0186161Y0201409D01*
X0186378Y0201282D01*
X0186599Y0201161D01*
X0186822Y0201045D01*
X0187049Y0200935D01*
X0187278Y0200830D01*
X0187509Y0200731D01*
X0187743Y0200638D01*
X0187979Y0200550D01*
X0188217Y0200468D01*
X0188457Y0200392D01*
X0188699Y0200322D01*
X0188942Y0200258D01*
X0189187Y0200200D01*
X0189433Y0200148D01*
X0189681Y0200102D01*
X0189929Y0200062D01*
X0190179Y0200028D01*
X0190429Y0200000D01*
X0190680Y0199979D01*
X0190931Y0199963D01*
X0191182Y0199954D01*
X0191434Y0199951D01*
X0191686Y0199954D01*
X0191937Y0199963D01*
X0192188Y0199979D01*
X0192439Y0200000D01*
X0192689Y0200028D01*
X0192939Y0200062D01*
X0193187Y0200102D01*
X0193435Y0200148D01*
X0193681Y0200200D01*
X0193926Y0200258D01*
X0194169Y0200322D01*
X0194411Y0200392D01*
X0194651Y0200468D01*
X0194889Y0200550D01*
X0195125Y0200638D01*
X0195359Y0200731D01*
X0195590Y0200830D01*
X0195819Y0200935D01*
X0196046Y0201045D01*
X0196269Y0201161D01*
X0196490Y0201282D01*
X0196707Y0201409D01*
X0196921Y0201541D01*
X0197133Y0201678D01*
X0197340Y0201820D01*
X0197544Y0201967D01*
X0197745Y0202120D01*
X0197941Y0202277D01*
X0198134Y0202439D01*
X0198323Y0202605D01*
X0198507Y0202777D01*
X0198688Y0202952D01*
X0198864Y0203132D01*
X0199035Y0203317D01*
X0199202Y0203505D01*
X0199364Y0203697D01*
X0199522Y0203894D01*
X0199674Y0204094D01*
X0199822Y0204298D01*
X0199964Y0204505D01*
X0200102Y0204716D01*
X0200234Y0204930D01*
X0200361Y0205148D01*
X0200483Y0205368D01*
X0200599Y0205591D01*
X0200710Y0205817D01*
X0182956Y0216859D02*
X0183380Y0216525D01*
X0183380Y0216526D02*
X0183236Y0216337D01*
X0183096Y0216146D01*
X0182961Y0215951D01*
X0182830Y0215753D01*
X0182704Y0215553D01*
X0182583Y0215349D01*
X0182466Y0215143D01*
X0182355Y0214934D01*
X0182248Y0214722D01*
X0182146Y0214508D01*
X0181656Y0214733D01*
X0181655Y0214733D01*
X0181763Y0214959D01*
X0181875Y0215182D01*
X0181993Y0215402D01*
X0182116Y0215620D01*
X0182244Y0215834D01*
X0182376Y0216046D01*
X0182514Y0216254D01*
X0182656Y0216460D01*
X0182804Y0216662D01*
X0182955Y0216860D01*
X0182999Y0216825D01*
X0182848Y0216628D01*
X0182702Y0216427D01*
X0182560Y0216223D01*
X0182423Y0216016D01*
X0182291Y0215805D01*
X0182164Y0215592D01*
X0182042Y0215375D01*
X0181925Y0215156D01*
X0181813Y0214934D01*
X0181706Y0214710D01*
X0181757Y0214687D01*
X0181863Y0214910D01*
X0181975Y0215130D01*
X0182091Y0215348D01*
X0182213Y0215564D01*
X0182339Y0215776D01*
X0182471Y0215985D01*
X0182607Y0216192D01*
X0182748Y0216395D01*
X0182893Y0216594D01*
X0183043Y0216791D01*
X0183087Y0216756D01*
X0182938Y0216561D01*
X0182793Y0216362D01*
X0182653Y0216160D01*
X0182518Y0215955D01*
X0182387Y0215747D01*
X0182261Y0215536D01*
X0182140Y0215321D01*
X0182024Y0215105D01*
X0181914Y0214885D01*
X0181808Y0214663D01*
X0181859Y0214640D01*
X0181964Y0214861D01*
X0182074Y0215079D01*
X0182189Y0215295D01*
X0182310Y0215507D01*
X0182435Y0215718D01*
X0182565Y0215925D01*
X0182699Y0216129D01*
X0182839Y0216329D01*
X0182983Y0216527D01*
X0183131Y0216721D01*
X0183175Y0216687D01*
X0183028Y0216493D01*
X0182884Y0216297D01*
X0182746Y0216097D01*
X0182612Y0215894D01*
X0182482Y0215688D01*
X0182358Y0215479D01*
X0182238Y0215268D01*
X0182124Y0215053D01*
X0182014Y0214836D01*
X0181910Y0214617D01*
X0181961Y0214593D01*
X0182065Y0214812D01*
X0182174Y0215027D01*
X0182288Y0215241D01*
X0182406Y0215451D01*
X0182530Y0215659D01*
X0182659Y0215864D01*
X0182792Y0216066D01*
X0182930Y0216264D01*
X0183072Y0216460D01*
X0183219Y0216652D01*
X0183263Y0216617D01*
X0183117Y0216426D01*
X0182976Y0216232D01*
X0182838Y0216034D01*
X0182706Y0215834D01*
X0182578Y0215630D01*
X0182455Y0215423D01*
X0182337Y0215214D01*
X0182223Y0215002D01*
X0182115Y0214787D01*
X0182011Y0214570D01*
X0182062Y0214547D01*
X0182165Y0214762D01*
X0182273Y0214976D01*
X0182386Y0215187D01*
X0182503Y0215395D01*
X0182626Y0215601D01*
X0182753Y0215803D01*
X0182885Y0216003D01*
X0183021Y0216199D01*
X0183162Y0216393D01*
X0183307Y0216583D01*
X0183351Y0216548D01*
X0183207Y0216359D01*
X0183067Y0216167D01*
X0182931Y0215971D01*
X0182800Y0215773D01*
X0182674Y0215571D01*
X0182552Y0215367D01*
X0182435Y0215160D01*
X0182323Y0214950D01*
X0182216Y0214738D01*
X0182113Y0214523D01*
D99*
X0126434Y0187717D03*
X0126434Y0097717D03*
D100*
X0128423Y0089843D02*
X0124184Y0089843D01*
X0120247Y0089843D02*
X0116007Y0089843D01*
X0112070Y0089843D02*
X0107830Y0089843D01*
X0103893Y0089843D02*
X0099653Y0089843D01*
X0095716Y0089843D02*
X0091476Y0089843D01*
X0087539Y0089843D02*
X0083299Y0089843D01*
X0079362Y0089843D02*
X0075122Y0089843D01*
X0071185Y0089843D02*
X0066946Y0089843D01*
X0066665Y0089846D01*
X0066384Y0089856D01*
X0066103Y0089873D01*
X0065823Y0089896D01*
X0065544Y0089927D01*
X0065265Y0089963D01*
X0064988Y0090006D01*
X0064711Y0090056D01*
X0064436Y0090113D01*
X0064162Y0090176D01*
X0063889Y0090245D01*
X0063619Y0090321D01*
X0063350Y0090404D01*
X0063083Y0090492D01*
X0062819Y0090588D01*
X0062557Y0090689D01*
X0062297Y0090796D01*
X0062040Y0090910D01*
X0061786Y0091030D01*
X0061534Y0091156D01*
X0061286Y0091287D01*
X0061041Y0091425D01*
X0060799Y0091568D01*
X0060561Y0091718D01*
X0060326Y0091872D01*
X0060096Y0092033D01*
X0055135Y0101654D02*
X0055135Y0105591D01*
X0055135Y0109528D02*
X0055135Y0113465D01*
X0055135Y0117402D02*
X0055135Y0121339D01*
X0055135Y0125276D02*
X0055135Y0129213D01*
X0055135Y0133150D02*
X0055135Y0137087D01*
X0055135Y0141024D02*
X0055135Y0144961D01*
X0055135Y0148898D02*
X0055135Y0152835D01*
X0055135Y0156772D02*
X0055135Y0160709D01*
X0055135Y0164646D02*
X0055135Y0168583D01*
X0055135Y0172520D02*
X0055135Y0176457D01*
X0055135Y0180394D02*
X0055135Y0184331D01*
X0055138Y0184612D01*
X0055148Y0184893D01*
X0055165Y0185174D01*
X0055188Y0185454D01*
X0055219Y0185733D01*
X0055255Y0186012D01*
X0055298Y0186289D01*
X0055348Y0186566D01*
X0055405Y0186841D01*
X0055468Y0187115D01*
X0055537Y0187388D01*
X0055613Y0187658D01*
X0055696Y0187927D01*
X0055784Y0188194D01*
X0055880Y0188458D01*
X0055981Y0188720D01*
X0056088Y0188980D01*
X0056202Y0189237D01*
X0056322Y0189491D01*
X0056448Y0189743D01*
X0056579Y0189991D01*
X0056717Y0190236D01*
X0056860Y0190478D01*
X0057010Y0190716D01*
X0057164Y0190951D01*
X0057325Y0191181D01*
X0066946Y0196142D02*
X0070883Y0196142D01*
X0074820Y0196142D02*
X0078757Y0196142D01*
X0082694Y0196142D02*
X0086631Y0196142D01*
X0090568Y0196142D02*
X0094505Y0196142D01*
X0098442Y0196142D02*
X0102379Y0196142D01*
X0106316Y0196142D02*
X0110253Y0196142D01*
X0114190Y0196142D02*
X0118127Y0196142D01*
X0122064Y0196142D02*
X0126001Y0196142D01*
X0129938Y0196142D02*
X0133875Y0196142D01*
X0137812Y0196142D02*
X0141749Y0196142D01*
X0145686Y0196142D02*
X0149623Y0196142D01*
X0153560Y0196142D02*
X0157497Y0196142D01*
X0161434Y0196142D02*
X0165371Y0196142D01*
X0169308Y0196142D02*
X0173245Y0196142D01*
X0177182Y0196142D02*
X0181119Y0196142D01*
X0185056Y0196142D02*
X0188993Y0196142D01*
X0192930Y0196142D02*
X0196867Y0196142D01*
X0196867Y0192205D01*
X0196867Y0188268D02*
X0196867Y0184331D01*
X0196867Y0180394D02*
X0196867Y0176457D01*
X0196867Y0172520D02*
X0196867Y0168583D01*
X0196867Y0164646D02*
X0196867Y0160709D01*
X0196867Y0156772D02*
X0196867Y0152835D01*
X0196867Y0148898D02*
X0196867Y0144961D01*
X0196867Y0141024D02*
X0196867Y0137087D01*
X0196867Y0133150D02*
X0196867Y0129213D01*
X0196867Y0125276D02*
X0196867Y0121339D01*
X0196867Y0117402D02*
X0196867Y0113465D01*
X0196867Y0109528D02*
X0196867Y0105591D01*
X0192930Y0105591D01*
X0188993Y0105591D02*
X0185056Y0105591D01*
X0181119Y0105591D02*
X0177182Y0105591D01*
X0174125Y0099477D01*
X0172364Y0095956D02*
X0169308Y0089843D01*
X0165068Y0089843D01*
X0161131Y0089843D02*
X0156891Y0089843D01*
X0152954Y0089843D02*
X0148714Y0089843D01*
X0144777Y0089843D02*
X0140537Y0089843D01*
X0136600Y0089843D02*
X0132360Y0089843D01*
X0141099Y0085217D02*
X0163934Y0085217D01*
X0163934Y0035217D01*
X0141099Y0035217D01*
X0141099Y0085217D01*
X0141434Y0085217D02*
X0118599Y0085217D01*
X0118599Y0035217D01*
X0141434Y0035217D01*
X0141434Y0085217D01*
X0163599Y0085217D02*
X0186434Y0085217D01*
X0186434Y0035217D01*
X0163599Y0035217D01*
X0163599Y0085217D01*
X0186099Y0085217D02*
X0208934Y0085217D01*
X0208934Y0035217D01*
X0186099Y0035217D01*
X0186099Y0085217D01*
X0208599Y0090217D02*
X0208599Y0130217D01*
X0208599Y0170217D01*
X0208599Y0210217D01*
X0231434Y0210217D01*
X0231434Y0170217D01*
X0208599Y0170217D01*
X0231434Y0170217D01*
X0231434Y0130217D01*
X0208599Y0130217D01*
X0231434Y0130217D01*
X0231434Y0090217D01*
X0208599Y0090217D01*
X0213599Y0085217D02*
X0236434Y0085217D01*
X0236434Y0035217D01*
X0213599Y0035217D01*
X0213599Y0085217D01*
X0231099Y0090217D02*
X0231099Y0130217D01*
X0231099Y0170217D01*
X0231099Y0210217D01*
X0253934Y0210217D01*
X0253934Y0170217D01*
X0231099Y0170217D01*
X0253934Y0170217D01*
X0253934Y0130217D01*
X0231099Y0130217D01*
X0253934Y0130217D01*
X0253934Y0090217D01*
X0231099Y0090217D01*
X0236099Y0085217D02*
X0258934Y0085217D01*
X0258934Y0035217D01*
X0236099Y0035217D01*
X0236099Y0085217D01*
X0253599Y0090217D02*
X0253599Y0130217D01*
X0253599Y0170217D01*
X0253599Y0210217D01*
X0276434Y0210217D01*
X0276434Y0170217D01*
X0253599Y0170217D01*
X0276434Y0170217D01*
X0276434Y0130217D01*
X0253599Y0130217D01*
X0276434Y0130217D01*
X0276434Y0090217D01*
X0253599Y0090217D01*
X0258599Y0085217D02*
X0281434Y0085217D01*
X0281434Y0035217D01*
X0258599Y0035217D01*
X0258599Y0085217D01*
X0276099Y0090217D02*
X0276099Y0130217D01*
X0276099Y0170217D01*
X0298934Y0170217D01*
X0298934Y0130217D01*
X0276099Y0130217D01*
X0298934Y0130217D01*
X0298934Y0090217D01*
X0276099Y0090217D01*
X0298599Y0105217D02*
X0321434Y0105217D01*
X0321434Y0065217D01*
X0298599Y0065217D01*
X0298599Y0105217D01*
X0307599Y0109217D02*
X0307599Y0149217D01*
X0330434Y0149217D01*
X0330434Y0109217D01*
X0307599Y0109217D01*
X0321099Y0105217D02*
X0343934Y0105217D01*
X0343934Y0065217D01*
X0321099Y0065217D01*
X0321099Y0105217D01*
X0321099Y0152717D02*
X0321099Y0192717D01*
X0343934Y0192717D01*
X0343934Y0152717D01*
X0321099Y0152717D01*
X0321434Y0152717D02*
X0321434Y0192717D01*
X0298599Y0192717D01*
X0298599Y0152717D01*
X0321434Y0152717D01*
X0137934Y0167217D02*
X0137934Y0123217D01*
X0069934Y0123217D01*
X0069934Y0167217D01*
X0137934Y0167217D01*
X0066946Y0196142D02*
X0066665Y0196139D01*
X0066384Y0196129D01*
X0066103Y0196112D01*
X0065823Y0196089D01*
X0065544Y0196058D01*
X0065265Y0196022D01*
X0064988Y0195979D01*
X0064711Y0195929D01*
X0064436Y0195872D01*
X0064162Y0195809D01*
X0063889Y0195740D01*
X0063619Y0195664D01*
X0063350Y0195581D01*
X0063083Y0195493D01*
X0062819Y0195397D01*
X0062557Y0195296D01*
X0062297Y0195189D01*
X0062040Y0195075D01*
X0061786Y0194955D01*
X0061534Y0194829D01*
X0061286Y0194698D01*
X0061041Y0194560D01*
X0060799Y0194417D01*
X0060561Y0194267D01*
X0060326Y0194113D01*
X0060096Y0193952D01*
X0055135Y0101654D02*
X0055138Y0101373D01*
X0055148Y0101092D01*
X0055165Y0100811D01*
X0055188Y0100531D01*
X0055219Y0100252D01*
X0055255Y0099973D01*
X0055298Y0099696D01*
X0055348Y0099419D01*
X0055405Y0099144D01*
X0055468Y0098870D01*
X0055537Y0098597D01*
X0055613Y0098327D01*
X0055696Y0098058D01*
X0055784Y0097791D01*
X0055880Y0097527D01*
X0055981Y0097265D01*
X0056088Y0097005D01*
X0056202Y0096748D01*
X0056322Y0096494D01*
X0056448Y0096242D01*
X0056579Y0095994D01*
X0056717Y0095749D01*
X0056860Y0095507D01*
X0057010Y0095269D01*
X0057164Y0095034D01*
X0057325Y0094804D01*
D101*
X0090931Y0105417D02*
X0090931Y0106818D01*
X0091398Y0107285D01*
X0092333Y0107285D01*
X0092800Y0106818D01*
X0092800Y0105417D01*
X0092800Y0106351D02*
X0093734Y0107285D01*
X0093267Y0108363D02*
X0093734Y0108830D01*
X0093734Y0109764D01*
X0093267Y0110231D01*
X0092800Y0110231D01*
X0092333Y0109764D01*
X0092333Y0108830D01*
X0091865Y0108363D01*
X0091398Y0108363D01*
X0090931Y0108830D01*
X0090931Y0109764D01*
X0091398Y0110231D01*
X0090931Y0111310D02*
X0090931Y0113178D01*
X0090931Y0112244D02*
X0093734Y0112244D01*
X0100931Y0109764D02*
X0100931Y0108830D01*
X0101398Y0108363D01*
X0103267Y0108363D01*
X0101398Y0110231D01*
X0103267Y0110231D01*
X0103734Y0109764D01*
X0103734Y0108830D01*
X0103267Y0108363D01*
X0103734Y0107285D02*
X0101865Y0107285D01*
X0100931Y0106351D01*
X0101865Y0105417D01*
X0103734Y0105417D01*
X0102333Y0105417D02*
X0102333Y0107285D01*
X0100931Y0109764D02*
X0101398Y0110231D01*
X0093734Y0105417D02*
X0090931Y0105417D01*
X0110931Y0105417D02*
X0110931Y0106818D01*
X0111398Y0107285D01*
X0113267Y0107285D01*
X0113734Y0106818D01*
X0113734Y0105417D01*
X0110931Y0105417D01*
X0111398Y0108363D02*
X0110931Y0108830D01*
X0110931Y0109764D01*
X0111398Y0110231D01*
X0113267Y0108363D01*
X0113734Y0108830D01*
X0113734Y0109764D01*
X0113267Y0110231D01*
X0111398Y0110231D01*
X0111398Y0108363D02*
X0113267Y0108363D01*
X0120931Y0108363D02*
X0122333Y0108363D01*
X0121865Y0109297D01*
X0121865Y0109764D01*
X0122333Y0110231D01*
X0123267Y0110231D01*
X0123734Y0109764D01*
X0123734Y0108830D01*
X0123267Y0108363D01*
X0123267Y0107285D02*
X0121398Y0107285D01*
X0120931Y0106818D01*
X0120931Y0105417D01*
X0123734Y0105417D01*
X0123734Y0106818D01*
X0123267Y0107285D01*
X0120931Y0108363D02*
X0120931Y0110231D01*
X0130931Y0110231D02*
X0131398Y0109297D01*
X0132333Y0108363D01*
X0132333Y0109764D01*
X0132800Y0110231D01*
X0133267Y0110231D01*
X0133734Y0109764D01*
X0133734Y0108830D01*
X0133267Y0108363D01*
X0132333Y0108363D01*
X0133267Y0107285D02*
X0131398Y0107285D01*
X0130931Y0106818D01*
X0130931Y0105417D01*
X0133734Y0105417D01*
X0133734Y0106818D01*
X0133267Y0107285D01*
X0140931Y0106818D02*
X0140931Y0105417D01*
X0143734Y0105417D01*
X0143734Y0106818D01*
X0143267Y0107285D01*
X0141398Y0107285D01*
X0140931Y0106818D01*
X0140931Y0108363D02*
X0140931Y0110231D01*
X0141398Y0110231D01*
X0143267Y0108363D01*
X0143734Y0108363D01*
X0150931Y0108830D02*
X0150931Y0109764D01*
X0151398Y0110231D01*
X0151865Y0110231D01*
X0152333Y0109764D01*
X0152333Y0108830D01*
X0151865Y0108363D01*
X0151398Y0108363D01*
X0150931Y0108830D01*
X0152333Y0108830D02*
X0152800Y0108363D01*
X0153267Y0108363D01*
X0153734Y0108830D01*
X0153734Y0109764D01*
X0153267Y0110231D01*
X0152800Y0110231D01*
X0152333Y0109764D01*
X0153267Y0107285D02*
X0151398Y0107285D01*
X0150931Y0106818D01*
X0150931Y0105417D01*
X0153734Y0105417D01*
X0153734Y0106818D01*
X0153267Y0107285D01*
X0160931Y0106818D02*
X0160931Y0105884D01*
X0161398Y0105417D01*
X0162333Y0106351D02*
X0162333Y0106818D01*
X0162800Y0107285D01*
X0163267Y0107285D01*
X0163734Y0106818D01*
X0163734Y0105884D01*
X0163267Y0105417D01*
X0162333Y0106818D02*
X0161865Y0107285D01*
X0161398Y0107285D01*
X0160931Y0106818D01*
X0160931Y0108363D02*
X0162800Y0108363D01*
X0163734Y0109297D01*
X0162800Y0110231D01*
X0160931Y0110231D01*
X0161398Y0111310D02*
X0160931Y0111777D01*
X0160931Y0112711D01*
X0161398Y0113178D01*
X0161865Y0113178D01*
X0162333Y0112711D01*
X0162800Y0113178D01*
X0163267Y0113178D01*
X0163734Y0112711D01*
X0163734Y0111777D01*
X0163267Y0111310D01*
X0162333Y0112244D02*
X0162333Y0112711D01*
X0125345Y0128427D02*
X0122276Y0128427D01*
X0123811Y0129962D02*
X0123811Y0126893D01*
X0119207Y0126125D02*
X0119207Y0130729D01*
X0117672Y0130729D02*
X0120742Y0130729D01*
X0116138Y0130729D02*
X0116138Y0126893D01*
X0115370Y0126125D01*
X0113836Y0126125D01*
X0113068Y0126893D01*
X0113068Y0130729D01*
X0111534Y0129962D02*
X0110766Y0130729D01*
X0109232Y0130729D01*
X0108464Y0129962D01*
X0108464Y0126893D01*
X0109232Y0126125D01*
X0110766Y0126125D01*
X0111534Y0126893D01*
X0111534Y0129962D01*
X0092435Y0128427D02*
X0089366Y0128427D01*
X0090901Y0129962D02*
X0090901Y0126893D01*
X0087831Y0126125D02*
X0087831Y0130729D01*
X0084762Y0130729D02*
X0087831Y0126125D01*
X0084762Y0126125D02*
X0084762Y0130729D01*
X0083227Y0130729D02*
X0081693Y0130729D01*
X0082460Y0130729D02*
X0082460Y0126125D01*
X0081693Y0126125D02*
X0083227Y0126125D01*
X0083227Y0160377D02*
X0081693Y0160377D01*
X0082460Y0160377D02*
X0082460Y0164981D01*
X0081693Y0164981D02*
X0083227Y0164981D01*
X0084762Y0164981D02*
X0087831Y0160377D01*
X0087831Y0164981D01*
X0089366Y0162679D02*
X0092435Y0162679D01*
X0084762Y0160377D02*
X0084762Y0164981D01*
X0090931Y0175417D02*
X0090931Y0177285D01*
X0090931Y0176351D02*
X0093734Y0176351D01*
X0093734Y0178363D02*
X0090931Y0180231D01*
X0090931Y0178363D02*
X0093734Y0180231D01*
X0100931Y0180231D02*
X0103734Y0178363D01*
X0103734Y0177285D02*
X0102800Y0176351D01*
X0102800Y0176818D02*
X0102800Y0175417D01*
X0103734Y0175417D02*
X0100931Y0175417D01*
X0100931Y0176818D01*
X0101398Y0177285D01*
X0102333Y0177285D01*
X0102800Y0176818D01*
X0100931Y0178363D02*
X0103734Y0180231D01*
X0110931Y0179297D02*
X0113734Y0179297D01*
X0113734Y0178363D02*
X0113734Y0180231D01*
X0111865Y0178363D02*
X0110931Y0179297D01*
X0111398Y0177285D02*
X0110931Y0176818D01*
X0110931Y0175417D01*
X0113734Y0175417D01*
X0113734Y0176818D01*
X0113267Y0177285D01*
X0111398Y0177285D01*
X0120931Y0176818D02*
X0120931Y0175417D01*
X0123734Y0175417D01*
X0123734Y0176818D01*
X0123267Y0177285D01*
X0121398Y0177285D01*
X0120931Y0176818D01*
X0121398Y0178363D02*
X0120931Y0178830D01*
X0120931Y0179764D01*
X0121398Y0180231D01*
X0121865Y0180231D01*
X0123734Y0178363D01*
X0123734Y0180231D01*
X0130931Y0179764D02*
X0131398Y0180231D01*
X0131865Y0180231D01*
X0132333Y0179764D01*
X0132800Y0180231D01*
X0133267Y0180231D01*
X0133734Y0179764D01*
X0133734Y0178830D01*
X0133267Y0178363D01*
X0133267Y0177285D02*
X0131398Y0177285D01*
X0130931Y0176818D01*
X0130931Y0175417D01*
X0133734Y0175417D01*
X0133734Y0176818D01*
X0133267Y0177285D01*
X0131398Y0178363D02*
X0130931Y0178830D01*
X0130931Y0179764D01*
X0132333Y0179764D02*
X0132333Y0179297D01*
X0140931Y0179764D02*
X0142333Y0178363D01*
X0142333Y0180231D01*
X0143734Y0179764D02*
X0140931Y0179764D01*
X0141398Y0177285D02*
X0140931Y0176818D01*
X0140931Y0175417D01*
X0143734Y0175417D01*
X0143734Y0176818D01*
X0143267Y0177285D01*
X0141398Y0177285D01*
X0150931Y0177731D02*
X0153734Y0177731D01*
X0150931Y0175863D01*
X0153734Y0175863D01*
X0153267Y0174785D02*
X0152333Y0174785D01*
X0152333Y0173851D01*
X0153267Y0174785D02*
X0153734Y0174318D01*
X0153734Y0173384D01*
X0153267Y0172917D01*
X0151398Y0172917D01*
X0150931Y0173384D01*
X0150931Y0174318D01*
X0151398Y0174785D01*
X0150931Y0178810D02*
X0150931Y0180211D01*
X0151398Y0180678D01*
X0153267Y0180678D01*
X0153734Y0180211D01*
X0153734Y0178810D01*
X0150931Y0178810D01*
X0160931Y0178363D02*
X0162800Y0178363D01*
X0163734Y0179297D01*
X0162800Y0180231D01*
X0160931Y0180231D01*
X0160931Y0177285D02*
X0160931Y0175417D01*
X0162333Y0175417D01*
X0161865Y0176351D01*
X0161865Y0176818D01*
X0162333Y0177285D01*
X0163267Y0177285D01*
X0163734Y0176818D01*
X0163734Y0175884D01*
X0163267Y0175417D01*
X0127708Y0162679D02*
X0124638Y0162679D01*
X0123104Y0164981D02*
X0120034Y0164981D01*
X0118500Y0164981D02*
X0118500Y0161144D01*
X0117733Y0160377D01*
X0116198Y0160377D01*
X0115431Y0161144D01*
X0115431Y0164981D01*
X0113896Y0164214D02*
X0113129Y0164981D01*
X0111594Y0164981D01*
X0110827Y0164214D01*
X0110827Y0161144D01*
X0111594Y0160377D01*
X0113129Y0160377D01*
X0113896Y0161144D01*
X0113896Y0164214D01*
X0121569Y0164981D02*
X0121569Y0160377D01*
X0302401Y0123033D02*
X0303169Y0123800D01*
X0303936Y0123800D01*
X0304703Y0123033D01*
X0305471Y0123800D01*
X0306238Y0123800D01*
X0307005Y0123033D01*
X0307005Y0121498D01*
X0306238Y0120731D01*
X0307005Y0119196D02*
X0307005Y0116127D01*
X0303936Y0119196D01*
X0303169Y0119196D01*
X0302401Y0118429D01*
X0302401Y0116894D01*
X0303169Y0116127D01*
X0302401Y0114592D02*
X0307005Y0111523D01*
X0307005Y0114592D02*
X0302401Y0111523D01*
X0303169Y0120731D02*
X0302401Y0121498D01*
X0302401Y0123033D01*
X0304703Y0123033D02*
X0304703Y0122265D01*
D102*
X0087201Y0200217D02*
X0078934Y0200217D01*
X0078934Y0208878D01*
X0087201Y0208878D01*
X0087201Y0200217D01*
X0083855Y0202579D02*
X0083855Y0203760D01*
X0085036Y0203760D01*
X0085036Y0203759D02*
X0085091Y0203768D01*
X0085145Y0203781D01*
X0085198Y0203797D01*
X0085250Y0203817D01*
X0085300Y0203840D01*
X0085348Y0203867D01*
X0085395Y0203898D01*
X0085439Y0203931D01*
X0085481Y0203967D01*
X0085520Y0204007D01*
X0085556Y0204049D01*
X0085589Y0204093D01*
X0085619Y0204140D01*
X0085646Y0204188D01*
X0085670Y0204238D01*
X0085689Y0204290D01*
X0085705Y0204343D01*
X0085718Y0204397D01*
X0085726Y0204452D01*
X0085731Y0204507D01*
X0085732Y0204563D01*
X0085729Y0204618D01*
X0085722Y0204673D01*
X0085711Y0204727D01*
X0085697Y0204781D01*
X0085679Y0204833D01*
X0085657Y0204884D01*
X0085632Y0204933D01*
X0085603Y0204981D01*
X0085571Y0205026D01*
X0085536Y0205069D01*
X0085498Y0205110D01*
X0085458Y0205147D01*
X0085414Y0205182D01*
X0085369Y0205214D01*
X0085321Y0205242D01*
X0085272Y0205267D01*
X0085221Y0205289D01*
X0085168Y0205307D01*
X0085115Y0205321D01*
X0085060Y0205331D01*
X0085005Y0205338D01*
X0084950Y0205341D01*
X0084895Y0205340D01*
X0084840Y0205335D01*
X0084839Y0205335D02*
X0083855Y0205335D01*
X0083855Y0206713D01*
X0082280Y0206516D02*
X0082273Y0206437D01*
X0082269Y0206358D01*
X0082269Y0206280D01*
X0082273Y0206201D01*
X0082280Y0206122D01*
X0082280Y0206516D01*
X0082280Y0206122D02*
X0082280Y0205335D01*
X0081099Y0205335D01*
X0081099Y0205334D02*
X0081044Y0205332D01*
X0080989Y0205326D01*
X0080935Y0205317D01*
X0080882Y0205304D01*
X0080830Y0205287D01*
X0080779Y0205266D01*
X0080730Y0205242D01*
X0080682Y0205214D01*
X0080636Y0205184D01*
X0080593Y0205150D01*
X0080552Y0205113D01*
X0080514Y0205074D01*
X0080479Y0205032D01*
X0080447Y0204987D01*
X0080417Y0204941D01*
X0080392Y0204892D01*
X0080369Y0204842D01*
X0080351Y0204790D01*
X0080335Y0204737D01*
X0080324Y0204684D01*
X0080316Y0204629D01*
X0080312Y0204574D01*
X0080312Y0204520D01*
X0080316Y0204465D01*
X0080324Y0204410D01*
X0080335Y0204357D01*
X0080351Y0204304D01*
X0080369Y0204252D01*
X0080392Y0204202D01*
X0080417Y0204154D01*
X0080447Y0204107D01*
X0080479Y0204062D01*
X0080514Y0204020D01*
X0080552Y0203981D01*
X0080593Y0203944D01*
X0080636Y0203910D01*
X0080682Y0203880D01*
X0080730Y0203852D01*
X0080779Y0203828D01*
X0080830Y0203807D01*
X0080882Y0203790D01*
X0080935Y0203777D01*
X0080989Y0203768D01*
X0081044Y0203762D01*
X0081099Y0203760D01*
X0082280Y0203760D01*
X0082280Y0202382D01*
X0083855Y0202382D02*
X0083859Y0202431D01*
X0083860Y0202480D01*
X0083859Y0202529D01*
X0083855Y0202578D01*
X0083855Y0202382D02*
X0083847Y0202327D01*
X0083835Y0202273D01*
X0083820Y0202220D01*
X0083801Y0202169D01*
X0083778Y0202119D01*
X0083752Y0202070D01*
X0083723Y0202024D01*
X0083690Y0201979D01*
X0083655Y0201937D01*
X0083616Y0201898D01*
X0083575Y0201861D01*
X0083532Y0201827D01*
X0083486Y0201796D01*
X0083438Y0201769D01*
X0083389Y0201745D01*
X0083338Y0201724D01*
X0083285Y0201707D01*
X0083232Y0201694D01*
X0083178Y0201685D01*
X0083123Y0201679D01*
X0083068Y0201677D01*
X0083013Y0201679D01*
X0082958Y0201685D01*
X0082904Y0201694D01*
X0082851Y0201707D01*
X0082798Y0201724D01*
X0082747Y0201745D01*
X0082698Y0201769D01*
X0082650Y0201796D01*
X0082604Y0201827D01*
X0082561Y0201861D01*
X0082520Y0201898D01*
X0082481Y0201937D01*
X0082446Y0201979D01*
X0082413Y0202024D01*
X0082384Y0202070D01*
X0082358Y0202119D01*
X0082335Y0202169D01*
X0082316Y0202220D01*
X0082301Y0202273D01*
X0082289Y0202327D01*
X0082281Y0202382D01*
X0083855Y0202382D02*
X0083859Y0202431D01*
X0083860Y0202480D01*
X0083859Y0202529D01*
X0083855Y0202578D01*
X0082399Y0204547D02*
X0082401Y0204598D01*
X0082407Y0204649D01*
X0082417Y0204699D01*
X0082430Y0204749D01*
X0082448Y0204797D01*
X0082468Y0204844D01*
X0082493Y0204889D01*
X0082521Y0204932D01*
X0082552Y0204973D01*
X0082586Y0205011D01*
X0082623Y0205046D01*
X0082662Y0205079D01*
X0082704Y0205109D01*
X0082748Y0205135D01*
X0082794Y0205157D01*
X0082842Y0205177D01*
X0082891Y0205192D01*
X0082941Y0205204D01*
X0082991Y0205212D01*
X0083042Y0205216D01*
X0083094Y0205216D01*
X0083145Y0205212D01*
X0083195Y0205204D01*
X0083245Y0205192D01*
X0083294Y0205177D01*
X0083342Y0205157D01*
X0083388Y0205135D01*
X0083432Y0205109D01*
X0083474Y0205079D01*
X0083513Y0205046D01*
X0083550Y0205011D01*
X0083584Y0204973D01*
X0083615Y0204932D01*
X0083643Y0204889D01*
X0083668Y0204844D01*
X0083688Y0204797D01*
X0083706Y0204749D01*
X0083719Y0204699D01*
X0083729Y0204649D01*
X0083735Y0204598D01*
X0083737Y0204547D01*
X0083735Y0204496D01*
X0083729Y0204445D01*
X0083719Y0204395D01*
X0083706Y0204345D01*
X0083688Y0204297D01*
X0083668Y0204250D01*
X0083643Y0204205D01*
X0083615Y0204162D01*
X0083584Y0204121D01*
X0083550Y0204083D01*
X0083513Y0204048D01*
X0083474Y0204015D01*
X0083432Y0203985D01*
X0083388Y0203959D01*
X0083342Y0203937D01*
X0083294Y0203917D01*
X0083245Y0203902D01*
X0083195Y0203890D01*
X0083145Y0203882D01*
X0083094Y0203878D01*
X0083042Y0203878D01*
X0082991Y0203882D01*
X0082941Y0203890D01*
X0082891Y0203902D01*
X0082842Y0203917D01*
X0082794Y0203937D01*
X0082748Y0203959D01*
X0082704Y0203985D01*
X0082662Y0204015D01*
X0082623Y0204048D01*
X0082586Y0204083D01*
X0082552Y0204121D01*
X0082521Y0204162D01*
X0082493Y0204205D01*
X0082468Y0204250D01*
X0082448Y0204297D01*
X0082430Y0204345D01*
X0082417Y0204395D01*
X0082407Y0204445D01*
X0082401Y0204496D01*
X0082399Y0204547D01*
X0079525Y0204547D02*
X0079527Y0204665D01*
X0079533Y0204784D01*
X0079543Y0204902D01*
X0079557Y0205019D01*
X0079574Y0205136D01*
X0079596Y0205253D01*
X0079622Y0205368D01*
X0079651Y0205483D01*
X0079684Y0205597D01*
X0079721Y0205709D01*
X0079762Y0205820D01*
X0079806Y0205930D01*
X0079854Y0206038D01*
X0079906Y0206145D01*
X0079961Y0206250D01*
X0080020Y0206353D01*
X0080082Y0206453D01*
X0080147Y0206552D01*
X0080216Y0206649D01*
X0080287Y0206743D01*
X0080362Y0206834D01*
X0080440Y0206924D01*
X0080521Y0207010D01*
X0080605Y0207094D01*
X0080691Y0207175D01*
X0080781Y0207253D01*
X0080872Y0207328D01*
X0080966Y0207399D01*
X0081063Y0207468D01*
X0081162Y0207533D01*
X0081262Y0207595D01*
X0081365Y0207654D01*
X0081470Y0207709D01*
X0081577Y0207761D01*
X0081685Y0207809D01*
X0081795Y0207853D01*
X0081906Y0207894D01*
X0082018Y0207931D01*
X0082132Y0207964D01*
X0082247Y0207993D01*
X0082362Y0208019D01*
X0082479Y0208041D01*
X0082596Y0208058D01*
X0082713Y0208072D01*
X0082831Y0208082D01*
X0082950Y0208088D01*
X0083068Y0208090D01*
X0083186Y0208088D01*
X0083305Y0208082D01*
X0083423Y0208072D01*
X0083540Y0208058D01*
X0083657Y0208041D01*
X0083774Y0208019D01*
X0083889Y0207993D01*
X0084004Y0207964D01*
X0084118Y0207931D01*
X0084230Y0207894D01*
X0084341Y0207853D01*
X0084451Y0207809D01*
X0084559Y0207761D01*
X0084666Y0207709D01*
X0084771Y0207654D01*
X0084874Y0207595D01*
X0084974Y0207533D01*
X0085073Y0207468D01*
X0085170Y0207399D01*
X0085264Y0207328D01*
X0085355Y0207253D01*
X0085445Y0207175D01*
X0085531Y0207094D01*
X0085615Y0207010D01*
X0085696Y0206924D01*
X0085774Y0206834D01*
X0085849Y0206743D01*
X0085920Y0206649D01*
X0085989Y0206552D01*
X0086054Y0206453D01*
X0086116Y0206353D01*
X0086175Y0206250D01*
X0086230Y0206145D01*
X0086282Y0206038D01*
X0086330Y0205930D01*
X0086374Y0205820D01*
X0086415Y0205709D01*
X0086452Y0205597D01*
X0086485Y0205483D01*
X0086514Y0205368D01*
X0086540Y0205253D01*
X0086562Y0205136D01*
X0086579Y0205019D01*
X0086593Y0204902D01*
X0086603Y0204784D01*
X0086609Y0204665D01*
X0086611Y0204547D01*
X0086609Y0204429D01*
X0086603Y0204310D01*
X0086593Y0204192D01*
X0086579Y0204075D01*
X0086562Y0203958D01*
X0086540Y0203841D01*
X0086514Y0203726D01*
X0086485Y0203611D01*
X0086452Y0203497D01*
X0086415Y0203385D01*
X0086374Y0203274D01*
X0086330Y0203164D01*
X0086282Y0203056D01*
X0086230Y0202949D01*
X0086175Y0202844D01*
X0086116Y0202741D01*
X0086054Y0202641D01*
X0085989Y0202542D01*
X0085920Y0202445D01*
X0085849Y0202351D01*
X0085774Y0202260D01*
X0085696Y0202170D01*
X0085615Y0202084D01*
X0085531Y0202000D01*
X0085445Y0201919D01*
X0085355Y0201841D01*
X0085264Y0201766D01*
X0085170Y0201695D01*
X0085073Y0201626D01*
X0084974Y0201561D01*
X0084874Y0201499D01*
X0084771Y0201440D01*
X0084666Y0201385D01*
X0084559Y0201333D01*
X0084451Y0201285D01*
X0084341Y0201241D01*
X0084230Y0201200D01*
X0084118Y0201163D01*
X0084004Y0201130D01*
X0083889Y0201101D01*
X0083774Y0201075D01*
X0083657Y0201053D01*
X0083540Y0201036D01*
X0083423Y0201022D01*
X0083305Y0201012D01*
X0083186Y0201006D01*
X0083068Y0201004D01*
X0082950Y0201006D01*
X0082831Y0201012D01*
X0082713Y0201022D01*
X0082596Y0201036D01*
X0082479Y0201053D01*
X0082362Y0201075D01*
X0082247Y0201101D01*
X0082132Y0201130D01*
X0082018Y0201163D01*
X0081906Y0201200D01*
X0081795Y0201241D01*
X0081685Y0201285D01*
X0081577Y0201333D01*
X0081470Y0201385D01*
X0081365Y0201440D01*
X0081262Y0201499D01*
X0081162Y0201561D01*
X0081063Y0201626D01*
X0080966Y0201695D01*
X0080872Y0201766D01*
X0080781Y0201841D01*
X0080691Y0201919D01*
X0080605Y0202000D01*
X0080521Y0202084D01*
X0080440Y0202170D01*
X0080362Y0202260D01*
X0080287Y0202351D01*
X0080216Y0202445D01*
X0080147Y0202542D01*
X0080082Y0202641D01*
X0080020Y0202741D01*
X0079961Y0202844D01*
X0079906Y0202949D01*
X0079854Y0203056D01*
X0079806Y0203164D01*
X0079762Y0203274D01*
X0079721Y0203385D01*
X0079684Y0203497D01*
X0079651Y0203611D01*
X0079622Y0203726D01*
X0079596Y0203841D01*
X0079574Y0203958D01*
X0079557Y0204075D01*
X0079543Y0204192D01*
X0079533Y0204310D01*
X0079527Y0204429D01*
X0079525Y0204547D01*
X0082281Y0206516D02*
X0082282Y0206572D01*
X0082287Y0206627D01*
X0082296Y0206682D01*
X0082309Y0206736D01*
X0082325Y0206789D01*
X0082345Y0206840D01*
X0082369Y0206891D01*
X0082396Y0206939D01*
X0082426Y0206986D01*
X0082459Y0207030D01*
X0082496Y0207072D01*
X0082535Y0207111D01*
X0082577Y0207147D01*
X0082621Y0207181D01*
X0082668Y0207211D01*
X0082716Y0207238D01*
X0082766Y0207261D01*
X0082818Y0207281D01*
X0082871Y0207297D01*
X0082925Y0207310D01*
X0082980Y0207319D01*
X0083035Y0207324D01*
X0083091Y0207325D01*
X0083146Y0207322D01*
X0083201Y0207316D01*
X0083256Y0207305D01*
X0083309Y0207291D01*
X0083362Y0207273D01*
X0083413Y0207252D01*
X0083463Y0207227D01*
X0083510Y0207198D01*
X0083556Y0207167D01*
X0083599Y0207132D01*
X0083640Y0207095D01*
X0083678Y0207054D01*
X0083713Y0207011D01*
X0083745Y0206966D01*
X0083774Y0206919D01*
X0083800Y0206869D01*
X0083822Y0206819D01*
X0083840Y0206766D01*
X0083855Y0206713D01*
M02*
