%
M48
M72
T01C0.01200
T02C0.02362
T03C0.03150
T04C0.03200
T05C0.03543
T06C0.04724
T07C0.12598
%
T01
X166434Y177717
X218934Y82717
X178934Y167717
X171434Y167717
X73934Y149217
X78934Y190217
X83934Y190217
T02
X126434Y145217
X78934Y75217
X68934Y190217
X323934Y205217
X323934Y55217
X258934Y55217
X236434Y55217
X211434Y55217
X186434Y55217
X171434Y70217
X186434Y115217
X126434Y85217
X98934Y170217
X136434Y172717
X196434Y167717
X331434Y130217
T03
X161434Y97717
X151434Y97717
X141434Y97717
X131434Y97717
X121434Y97717
X111434Y97717
X101434Y97717
X91434Y97717
X161434Y187717
X151434Y187717
X141434Y187717
X131434Y187717
X121434Y187717
X111434Y187717
X101434Y187717
X91434Y187717
T04
X181434Y210217
X201434Y210217
X191434Y210217
T05
X146934Y114217
X146934Y106217
T06
X222379Y100217
X222379Y110217
X222379Y120217
X244879Y100217
X244879Y110217
X244879Y120217
X267379Y100217
X267379Y110217
X267379Y120217
X289879Y100217
X289879Y110217
X289879Y120217
X312379Y75217
X312379Y85217
X312379Y95217
X334879Y75217
X334879Y85217
X334879Y95217
X222379Y140217
X222379Y150217
X222379Y160217
X244879Y140217
X244879Y150217
X244879Y160217
X267379Y140217
X267379Y150217
X267379Y160217
X289879Y140217
X289879Y150217
X289879Y160217
X222379Y180217
X222379Y190217
X222379Y200217
X244879Y180217
X244879Y190217
X244879Y200217
X267379Y180217
X267379Y190217
X267379Y200217
X312379Y162717
X312379Y172717
X312379Y182717
X334879Y162717
X334879Y172717
X334879Y182717
X132379Y45217
X132379Y55217
X132379Y65217
X132379Y75217
X154879Y45217
X154879Y55217
X154879Y65217
X154879Y75217
X177379Y45217
X177379Y55217
X177379Y65217
X177379Y75217
X199879Y45217
X199879Y55217
X199879Y65217
X199879Y75217
X227379Y45217
X227379Y55217
X227379Y65217
X227379Y75217
X249879Y45217
X249879Y55217
X249879Y65217
X249879Y75217
X272379Y45217
X272379Y55217
X272379Y65217
X272379Y75217
X321379Y119217
X321379Y129217
X321379Y139217
T07
X103146Y49902
X103146Y207382
X299997Y207382
X299997Y49902
M30
